<svg width="134" height="32" viewBox="0 0 134 32" fill="none" xmlns="http://www.w3.org/2000/svg">
<circle cx="7" cy="7" r="3" fill="#F13C03"/>
<path d="M7 23C9.20914 23 11 21.2091 11 19C11 16.7909 9.20914 15 7 15C4.79086 15 3 16.7909 3 19C3 21.2091 4.79086 23 7 23Z" stroke="#050041" stroke-width="3" stroke-linejoin="round"/>
<path d="M18 11C20.2091 11 22 9.20914 22 7C22 4.79086 20.2091 3 18 3C15.7909 3 14 4.79086 14 7C14 9.20914 15.7909 11 18 11Z" stroke="#050041" stroke-width="3" stroke-linejoin="round"/>
<path d="M6.5 11C8.70914 11 10.5 9.20914 10.5 7C10.5 4.79086 8.70914 3 6.5 3C4.29086 3 2.5 4.79086 2.5 7C2.5 9.20914 4.29086 11 6.5 11Z" stroke="#050041" stroke-width="3" stroke-linejoin="round"/>
<path d="M21.9999 15.5L15 22.5M15.0001 15.5L22 22.5" stroke="#F13C03" stroke-width="3" stroke-linecap="round" stroke-linejoin="round"/>
<path d="M41.2402 8H45.1442V24H41.2402L41.0642 22.016C40.6269 22.7307 40.0456 23.312 39.3202 23.76C38.6056 24.1973 37.7576 24.416 36.7762 24.416C35.5922 24.416 34.4829 24.192 33.4482 23.744C32.4136 23.296 31.5016 22.6773 30.7122 21.888C29.9336 21.0987 29.3202 20.1867 28.8722 19.152C28.4349 18.1173 28.2162 17.008 28.2162 15.824C28.2162 14.6827 28.4242 13.6107 28.8402 12.608C29.2669 11.6053 29.8589 10.7253 30.6162 9.968C31.3736 9.21067 32.2482 8.61867 33.2402 8.192C34.2322 7.76533 35.2989 7.552 36.4402 7.552C37.4962 7.552 38.4402 7.78667 39.2722 8.256C40.1149 8.72533 40.8296 9.32267 41.4162 10.048L41.2402 8ZM36.6802 20.656C37.5122 20.656 38.2482 20.448 38.8882 20.032C39.5282 19.616 40.0296 19.056 40.3922 18.352C40.7549 17.6373 40.9362 16.8533 40.9362 16C40.9362 15.136 40.7549 14.352 40.3922 13.648C40.0296 12.9333 39.5229 12.368 38.8722 11.952C38.2322 11.536 37.5016 11.328 36.6802 11.328C35.8589 11.328 35.1069 11.5413 34.4242 11.968C33.7522 12.384 33.2136 12.944 32.8082 13.648C32.4136 14.352 32.2162 15.136 32.2162 16C32.2162 16.864 32.4189 17.648 32.8242 18.352C33.2296 19.056 33.7682 19.616 34.4402 20.032C35.1229 20.448 35.8696 20.656 36.6802 20.656ZM55.3085 11.904H52.2045V24H48.3005V11.904H45.9325V8H48.3005V2.976H52.2045V8H55.3085V11.904ZM65.1772 11.904H62.0732V24H58.1692V11.904H55.8012V8H58.1692V2.976H62.0732V8H65.1772V11.904ZM73.135 24.416C71.663 24.416 70.319 24.0373 69.103 23.28C67.8977 22.5227 66.9323 21.504 66.207 20.224C65.4923 18.944 65.135 17.5307 65.135 15.984C65.135 14.8213 65.343 13.7333 65.759 12.72C66.175 11.696 66.7457 10.8 67.471 10.032C68.207 9.25333 69.0603 8.64533 70.031 8.208C71.0017 7.77067 72.0363 7.552 73.135 7.552C74.383 7.552 75.5243 7.81867 76.559 8.352C77.6043 8.87467 78.4897 9.59467 79.215 10.512C79.9403 11.4293 80.4683 12.4747 80.799 13.648C81.1297 14.8213 81.2043 16.048 81.023 17.328H69.327C69.4763 17.9253 69.7217 18.464 70.063 18.944C70.4043 19.4133 70.8363 19.792 71.359 20.08C71.8817 20.3573 72.4737 20.5013 73.135 20.512C73.8177 20.5227 74.4363 20.3627 74.991 20.032C75.5563 19.6907 76.0257 19.232 76.399 18.656L80.383 19.584C79.7323 21.0027 78.7617 22.1653 77.471 23.072C76.1803 23.968 74.735 24.416 73.135 24.416ZM69.199 14.4H77.071C76.9537 13.76 76.703 13.184 76.319 12.672C75.9457 12.1493 75.4817 11.7333 74.927 11.424C74.3723 11.1147 73.775 10.96 73.135 10.96C72.495 10.96 71.903 11.1147 71.359 11.424C70.815 11.7227 70.351 12.1333 69.967 12.656C69.5937 13.168 69.3377 13.7493 69.199 14.4ZM96.6822 13.888V24H92.7782V14.912C92.7782 14.2827 92.6236 13.712 92.3142 13.2C92.0049 12.6773 91.5889 12.2667 91.0662 11.968C90.5542 11.6587 89.9836 11.504 89.3542 11.504C88.7249 11.504 88.1489 11.6587 87.6262 11.968C87.1142 12.2667 86.7036 12.6773 86.3942 13.2C86.0956 13.712 85.9462 14.2827 85.9462 14.912V24H82.0422L82.0262 8H85.9302L85.9462 9.424C86.4902 8.848 87.1409 8.39467 87.8982 8.064C88.6556 7.72267 89.4716 7.552 90.3462 7.552C91.5089 7.552 92.5702 7.84 93.5302 8.416C94.4902 8.98133 95.2529 9.744 95.8182 10.704C96.3942 11.6533 96.6822 12.7147 96.6822 13.888ZM110.053 -1.90735e-06H113.957V24H110.053V22C109.541 22.7147 108.896 23.296 108.117 23.744C107.339 24.192 106.437 24.416 105.413 24.416C104.251 24.416 103.163 24.1973 102.149 23.76C101.136 23.3227 100.24 22.72 99.4615 21.952C98.6935 21.1733 98.0908 20.2773 97.6535 19.264C97.2162 18.2507 96.9975 17.1627 96.9975 16C96.9975 14.8373 97.2162 13.7493 97.6535 12.736C98.0908 11.7227 98.6935 10.832 99.4615 10.064C100.24 9.28533 101.136 8.67733 102.149 8.24C103.163 7.80267 104.251 7.584 105.413 7.584C106.437 7.584 107.339 7.808 108.117 8.256C108.896 8.69333 109.541 9.27467 110.053 10V-1.90735e-06ZM105.461 20.656C106.293 20.656 107.029 20.448 107.669 20.032C108.309 19.616 108.811 19.056 109.173 18.352C109.536 17.6373 109.717 16.8533 109.717 16C109.717 15.136 109.536 14.352 109.173 13.648C108.811 12.9333 108.304 12.368 107.653 11.952C107.013 11.536 106.283 11.328 105.461 11.328C104.64 11.328 103.888 11.5413 103.205 11.968C102.533 12.384 101.995 12.944 101.589 13.648C101.195 14.352 100.997 15.136 100.997 16C100.997 16.864 101.2 17.648 101.605 18.352C102.011 19.056 102.549 19.616 103.221 20.032C103.904 20.448 104.651 20.656 105.461 20.656ZM126.084 8H130.228L121.476 32H117.332L120.228 24L114.468 8H118.74L122.18 18.656L126.084 8Z" fill="#050041"/>
<circle cx="131" cy="21" r="3" fill="#F13C03"/>
</svg>
