<svg width="134" height="32" viewBox="0 0 134 32" fill="none" xmlns="http://www.w3.org/2000/svg">
<circle cx="6.5" cy="7" r="3" fill="#F13C03"/>
<path d="M6.5 23C8.70914 23 10.5 21.2091 10.5 19C10.5 16.7909 8.70914 15 6.5 15C4.29086 15 2.5 16.7909 2.5 19C2.5 21.2091 4.29086 23 6.5 23Z" stroke="#FFF5EA" stroke-width="3" stroke-linejoin="round"/>
<path d="M17.5 11C19.7091 11 21.5 9.20914 21.5 7C21.5 4.79086 19.7091 3 17.5 3C15.2909 3 13.5 4.79086 13.5 7C13.5 9.20914 15.2909 11 17.5 11Z" stroke="#FFF5EA" stroke-width="3" stroke-linejoin="round"/>
<path d="M6 11C8.20914 11 10 9.20914 10 7C10 4.79086 8.20914 3 6 3C3.79086 3 2 4.79086 2 7C2 9.20914 3.79086 11 6 11Z" stroke="#FFF5EA" stroke-width="3" stroke-linejoin="round"/>
<path d="M21.4999 15.5L14.5 22.5M14.5001 15.5L21.5 22.5" stroke="#F13C03" stroke-width="3" stroke-linecap="round" stroke-linejoin="round"/>
<path d="M40.7402 8H44.6442V24H40.7402L40.5642 22.016C40.1269 22.7307 39.5456 23.312 38.8202 23.76C38.1056 24.1973 37.2576 24.416 36.2762 24.416C35.0922 24.416 33.9829 24.192 32.9482 23.744C31.9136 23.296 31.0016 22.6773 30.2122 21.888C29.4336 21.0987 28.8202 20.1867 28.3722 19.152C27.9349 18.1173 27.7162 17.008 27.7162 15.824C27.7162 14.6827 27.9242 13.6107 28.3402 12.608C28.7669 11.6053 29.3589 10.7253 30.1162 9.968C30.8736 9.21067 31.7482 8.61867 32.7402 8.192C33.7322 7.76533 34.7989 7.552 35.9402 7.552C36.9962 7.552 37.9402 7.78667 38.7722 8.256C39.6149 8.72533 40.3296 9.32267 40.9162 10.048L40.7402 8ZM36.1802 20.656C37.0122 20.656 37.7482 20.448 38.3882 20.032C39.0282 19.616 39.5296 19.056 39.8922 18.352C40.2549 17.6373 40.4362 16.8533 40.4362 16C40.4362 15.136 40.2549 14.352 39.8922 13.648C39.5296 12.9333 39.0229 12.368 38.3722 11.952C37.7322 11.536 37.0016 11.328 36.1802 11.328C35.3589 11.328 34.6069 11.5413 33.9242 11.968C33.2522 12.384 32.7136 12.944 32.3082 13.648C31.9136 14.352 31.7162 15.136 31.7162 16C31.7162 16.864 31.9189 17.648 32.3242 18.352C32.7296 19.056 33.2682 19.616 33.9402 20.032C34.6229 20.448 35.3696 20.656 36.1802 20.656ZM54.8085 11.904H51.7045V24H47.8005V11.904H45.4325V8H47.8005V2.976H51.7045V8H54.8085V11.904ZM64.6772 11.904H61.5732V24H57.6692V11.904H55.3012V8H57.6692V2.976H61.5732V8H64.6772V11.904ZM72.635 24.416C71.163 24.416 69.819 24.0373 68.603 23.28C67.3977 22.5227 66.4323 21.504 65.707 20.224C64.9923 18.944 64.635 17.5307 64.635 15.984C64.635 14.8213 64.843 13.7333 65.259 12.72C65.675 11.696 66.2457 10.8 66.971 10.032C67.707 9.25333 68.5603 8.64533 69.531 8.208C70.5017 7.77067 71.5363 7.552 72.635 7.552C73.883 7.552 75.0243 7.81867 76.059 8.352C77.1043 8.87467 77.9897 9.59467 78.715 10.512C79.4403 11.4293 79.9683 12.4747 80.299 13.648C80.6297 14.8213 80.7043 16.048 80.523 17.328H68.827C68.9763 17.9253 69.2217 18.464 69.563 18.944C69.9043 19.4133 70.3363 19.792 70.859 20.08C71.3817 20.3573 71.9737 20.5013 72.635 20.512C73.3177 20.5227 73.9363 20.3627 74.491 20.032C75.0563 19.6907 75.5257 19.232 75.899 18.656L79.883 19.584C79.2323 21.0027 78.2617 22.1653 76.971 23.072C75.6803 23.968 74.235 24.416 72.635 24.416ZM68.699 14.4H76.571C76.4537 13.76 76.203 13.184 75.819 12.672C75.4457 12.1493 74.9817 11.7333 74.427 11.424C73.8723 11.1147 73.275 10.96 72.635 10.96C71.995 10.96 71.403 11.1147 70.859 11.424C70.315 11.7227 69.851 12.1333 69.467 12.656C69.0937 13.168 68.8377 13.7493 68.699 14.4ZM96.1822 13.888V24H92.2782V14.912C92.2782 14.2827 92.1236 13.712 91.8142 13.2C91.5049 12.6773 91.0889 12.2667 90.5662 11.968C90.0542 11.6587 89.4836 11.504 88.8542 11.504C88.2249 11.504 87.6489 11.6587 87.1262 11.968C86.6142 12.2667 86.2036 12.6773 85.8942 13.2C85.5956 13.712 85.4462 14.2827 85.4462 14.912V24H81.5422L81.5262 8H85.4302L85.4462 9.424C85.9902 8.848 86.6409 8.39467 87.3982 8.064C88.1556 7.72267 88.9716 7.552 89.8462 7.552C91.0089 7.552 92.0702 7.84 93.0302 8.416C93.9902 8.98133 94.7529 9.744 95.3182 10.704C95.8942 11.6533 96.1822 12.7147 96.1822 13.888ZM109.553 -1.90735e-06H113.457V24H109.553V22C109.041 22.7147 108.396 23.296 107.617 23.744C106.839 24.192 105.937 24.416 104.913 24.416C103.751 24.416 102.663 24.1973 101.649 23.76C100.636 23.3227 99.7402 22.72 98.9615 21.952C98.1935 21.1733 97.5908 20.2773 97.1535 19.264C96.7162 18.2507 96.4975 17.1627 96.4975 16C96.4975 14.8373 96.7162 13.7493 97.1535 12.736C97.5908 11.7227 98.1935 10.832 98.9615 10.064C99.7402 9.28533 100.636 8.67733 101.649 8.24C102.663 7.80267 103.751 7.584 104.913 7.584C105.937 7.584 106.839 7.808 107.617 8.256C108.396 8.69333 109.041 9.27467 109.553 10V-1.90735e-06ZM104.961 20.656C105.793 20.656 106.529 20.448 107.169 20.032C107.809 19.616 108.311 19.056 108.673 18.352C109.036 17.6373 109.217 16.8533 109.217 16C109.217 15.136 109.036 14.352 108.673 13.648C108.311 12.9333 107.804 12.368 107.153 11.952C106.513 11.536 105.783 11.328 104.961 11.328C104.14 11.328 103.388 11.5413 102.705 11.968C102.033 12.384 101.495 12.944 101.089 13.648C100.695 14.352 100.497 15.136 100.497 16C100.497 16.864 100.7 17.648 101.105 18.352C101.511 19.056 102.049 19.616 102.721 20.032C103.404 20.448 104.151 20.656 104.961 20.656ZM125.584 8H129.728L120.976 32H116.832L119.728 24L113.968 8H118.24L121.68 18.656L125.584 8Z" fill="#FFF5EA"/>
<circle cx="130.5" cy="21" r="3" fill="#F13C03"/>
</svg>
