<svg width="310" height="439" viewBox="0 0 310 439" fill="none" xmlns="http://www.w3.org/2000/svg">
<rect width="310" height="438.5" transform="translate(0 0.25)" fill="white"/>
<path d="M167.414 50.6454C171.36 50.6454 174.559 47.4463 174.559 43.4999C174.559 39.5536 171.36 36.3545 167.414 36.3545C163.467 36.3545 160.268 39.5536 160.268 43.4999C160.268 47.4463 163.467 50.6454 167.414 50.6454Z" stroke="#050041" stroke-width="5.35909" stroke-linejoin="round"/>
<circle cx="150.539" cy="40.1455" r="5.35909" fill="#F13C03"/>
<g filter="url(#filter0_d_822_55)">
<path d="M149.645 47.2909C153.592 47.2909 156.791 44.0918 156.791 40.1455C156.791 36.1991 153.592 33 149.645 33C145.699 33 142.5 36.1991 142.5 40.1455C142.5 44.0918 145.699 47.2909 149.645 47.2909Z" stroke="#050041" stroke-width="5.35909" stroke-linejoin="round" shape-rendering="crispEdges"/>
</g>
<g filter="url(#filter1_d_822_55)">
<path d="M134.145 51.7909C138.092 51.7909 141.291 48.5918 141.291 44.6455C141.291 40.6991 138.092 37.5 134.145 37.5C130.199 37.5 127 40.6991 127 44.6455C127 48.5918 130.199 51.7909 134.145 51.7909Z" stroke="#050041" stroke-width="5.35909" stroke-linejoin="round" shape-rendering="crispEdges"/>
</g>
<g filter="url(#filter2_d_822_55)">
<path d="M183.54 33.2373L169 43.3028M171.237 31L181.303 45.5401" stroke="#F13C03" stroke-width="5.35909" stroke-linecap="round" stroke-linejoin="round" shape-rendering="crispEdges"/>
</g>
<path d="M105.257 78.152C105.793 78.152 106.385 78.256 107.033 78.464C107.177 78.576 107.249 78.7 107.249 78.836C107.249 78.964 107.181 79.08 107.045 79.184C106.917 79.28 106.769 79.328 106.601 79.328C106.169 79.216 105.765 79.16 105.389 79.16C104.525 79.16 103.869 79.416 103.421 79.928C102.973 80.44 102.749 81.2 102.749 82.208C102.749 83.216 103.013 84.004 103.541 84.572C103.813 84.868 104.137 85.016 104.513 85.016C104.889 85.016 105.489 84.816 106.313 84.416C106.601 84.28 106.793 84.212 106.889 84.212C107.097 84.212 107.201 84.32 107.201 84.536C107.201 84.752 107.101 84.932 106.901 85.076C106.213 85.436 105.677 85.68 105.293 85.808C104.909 85.928 104.577 85.988 104.297 85.988C103.721 85.988 103.229 85.776 102.821 85.352C102.093 84.568 101.729 83.5 101.729 82.148C101.729 80.788 102.073 79.784 102.761 79.136C103.457 78.48 104.289 78.152 105.257 78.152ZM110.379 80.408C110.955 80.408 111.427 80.684 111.795 81.236C112.171 81.788 112.359 82.452 112.359 83.228C112.359 83.996 112.167 84.652 111.783 85.196C111.407 85.74 110.903 86.012 110.271 86.012C109.647 86.012 109.143 85.736 108.759 85.184C108.375 84.624 108.183 84.004 108.183 83.324C108.183 82.452 108.359 81.756 108.711 81.236C109.087 80.684 109.643 80.408 110.379 80.408ZM110.235 81.392C109.899 81.392 109.623 81.568 109.407 81.92C109.191 82.272 109.083 82.644 109.083 83.036C109.083 83.644 109.203 84.108 109.443 84.428C109.683 84.748 109.955 84.908 110.259 84.908C110.803 84.908 111.151 84.672 111.303 84.2C111.367 83.976 111.399 83.696 111.399 83.36C111.399 82.048 111.011 81.392 110.235 81.392ZM113.071 80.864C113.103 80.728 113.171 80.616 113.275 80.528C113.379 80.432 113.483 80.384 113.587 80.384C113.699 80.384 113.783 80.404 113.839 80.444C113.903 80.484 113.939 80.52 113.947 80.552C113.963 80.584 113.979 80.64 113.995 80.72C113.947 81.344 113.923 81.908 113.923 82.412C113.923 82.908 113.983 83.48 114.103 84.128C114.223 84.768 114.355 85.088 114.499 85.088C114.715 85.088 114.987 84.968 115.315 84.728C115.651 84.488 115.891 84.236 116.035 83.972C115.939 82.82 115.891 81.832 115.891 81.008C115.891 80.84 115.943 80.696 116.047 80.576C116.159 80.456 116.291 80.396 116.443 80.396C116.691 80.396 116.815 80.564 116.815 80.9C116.815 81.468 116.855 82.312 116.935 83.432C117.023 84.552 117.111 85.264 117.199 85.568C117.215 85.632 117.223 85.708 117.223 85.796C117.223 85.876 117.167 85.952 117.055 86.024C116.951 86.104 116.811 86.144 116.635 86.144C116.467 86.144 116.355 86.048 116.299 85.856C116.283 85.696 116.243 85.456 116.179 85.136C115.619 85.72 115.055 86.012 114.487 86.012C114.223 86.012 113.987 85.912 113.779 85.712C113.571 85.512 113.407 85.24 113.287 84.896C113.079 84.232 112.975 83.608 112.975 83.024C112.975 82.44 113.007 81.72 113.071 80.864ZM119.447 84.248L119.459 85.484C119.459 85.628 119.391 85.76 119.255 85.88C119.127 86 118.999 86.06 118.871 86.06C118.687 86.06 118.571 85.916 118.523 85.628C118.515 85.564 118.483 84.98 118.427 83.876C118.371 82.764 118.263 81.892 118.103 81.26C118.031 80.956 117.995 80.776 117.995 80.72C117.995 80.456 118.155 80.324 118.475 80.324C118.611 80.324 118.719 80.376 118.799 80.48C118.879 80.584 118.927 80.692 118.943 80.804C118.967 80.908 118.987 81.052 119.003 81.236C119.019 81.42 119.031 81.536 119.039 81.584C119.207 81.184 119.459 80.884 119.795 80.684C120.131 80.484 120.499 80.384 120.899 80.384C121.555 80.384 121.883 80.552 121.883 80.888C121.883 81.056 121.823 81.192 121.703 81.296C121.591 81.392 121.459 81.44 121.307 81.44C120.627 81.44 120.147 81.656 119.867 82.088C119.587 82.52 119.447 83.24 119.447 84.248ZM122.721 81.92C122.721 81.448 122.889 81.072 123.225 80.792C123.561 80.512 123.949 80.372 124.389 80.372C124.837 80.372 125.265 80.452 125.673 80.612C126.081 80.772 126.285 80.984 126.285 81.248C126.285 81.384 126.233 81.492 126.129 81.572C126.025 81.652 125.933 81.692 125.853 81.692C125.781 81.692 125.721 81.692 125.673 81.692C125.633 81.684 125.473 81.608 125.193 81.464C124.921 81.32 124.669 81.248 124.437 81.248C124.205 81.248 124.005 81.308 123.837 81.428C123.677 81.54 123.597 81.708 123.597 81.932C123.597 82.156 123.689 82.332 123.873 82.46C124.065 82.588 124.397 82.7 124.869 82.796C125.341 82.884 125.701 83.012 125.949 83.18C126.205 83.348 126.333 83.66 126.333 84.116C126.333 84.78 126.157 85.252 125.805 85.532C125.461 85.804 125.041 85.94 124.545 85.94C124.049 85.94 123.625 85.872 123.273 85.736C122.929 85.6 122.757 85.396 122.757 85.124C122.757 84.812 122.913 84.656 123.225 84.656C123.305 84.656 123.481 84.712 123.753 84.824C124.025 84.936 124.293 84.992 124.557 84.992C124.829 84.992 125.033 84.908 125.169 84.74C125.313 84.564 125.385 84.364 125.385 84.14C125.385 83.916 125.293 83.756 125.109 83.66C124.925 83.556 124.645 83.472 124.269 83.408C123.893 83.344 123.617 83.276 123.441 83.204C122.961 83.012 122.721 82.584 122.721 81.92ZM128.862 80.444C129.286 80.444 129.69 80.568 130.074 80.816C130.458 81.064 130.65 81.372 130.65 81.74C130.65 82.1 130.494 82.452 130.182 82.796C129.87 83.132 129.454 83.336 128.934 83.408C128.71 83.44 128.374 83.456 127.926 83.456C128.014 84.136 128.186 84.584 128.442 84.8C128.522 84.888 128.63 84.932 128.766 84.932C129.262 84.932 129.678 84.776 130.014 84.464C130.35 84.144 130.59 83.984 130.734 83.984C130.798 83.984 130.894 84.044 131.022 84.164C131.15 84.284 131.214 84.396 131.214 84.5C131.214 84.708 130.962 85.008 130.458 85.4C130.234 85.584 129.962 85.74 129.642 85.868C129.33 85.988 129.038 86.048 128.766 86.048C128.07 86.048 127.558 85.6 127.23 84.704C127.022 84.152 126.918 83.544 126.918 82.88C126.918 82.216 127.074 81.644 127.386 81.164C127.698 80.684 128.19 80.444 128.862 80.444ZM128.922 81.272C128.618 81.272 128.358 81.444 128.142 81.788C128.062 81.908 127.986 82.18 127.914 82.604C129.034 82.604 129.594 82.328 129.594 81.776C129.594 81.44 129.37 81.272 128.922 81.272ZM137.333 78.092C137.533 78.092 137.701 78.18 137.837 78.356C137.973 78.532 138.149 78.896 138.365 79.448C138.869 80.752 139.361 82.796 139.841 85.58C139.849 85.612 139.853 85.66 139.853 85.724C139.853 85.78 139.813 85.844 139.733 85.916C139.661 85.98 139.553 86.012 139.409 86.012C139.273 86.012 139.157 85.98 139.061 85.916C138.965 85.844 138.901 85.732 138.869 85.58C138.837 85.42 138.777 85.112 138.689 84.656C138.497 83.64 138.369 83.112 138.305 83.072C138.209 83.016 137.889 82.956 137.345 82.892C136.809 82.828 136.453 82.796 136.277 82.796C136.101 82.796 135.997 82.812 135.965 82.844C135.821 82.972 135.625 83.944 135.377 85.76C135.345 85.912 135.193 85.988 134.921 85.988C134.649 85.988 134.513 85.872 134.513 85.64C134.513 85.064 134.725 83.964 135.149 82.34C135.573 80.716 135.925 79.64 136.205 79.112C136.557 78.432 136.933 78.092 137.333 78.092ZM137.285 79.424C137.165 79.424 136.957 79.78 136.661 80.492C136.365 81.196 136.217 81.632 136.217 81.8C136.217 81.84 136.225 81.868 136.241 81.884C136.305 81.948 136.557 82.004 136.997 82.052C137.437 82.1 137.729 82.124 137.873 82.124C138.017 82.124 138.097 82.116 138.113 82.1C138.129 82.076 138.137 82.012 138.137 81.908C138.137 81.796 138.029 81.356 137.813 80.588C137.597 79.812 137.421 79.424 137.285 79.424ZM140.84 80.396L141.44 80.408C141.576 80.408 141.652 80.404 141.668 80.396V77.936C141.676 77.8 141.744 77.684 141.872 77.588C142 77.492 142.12 77.444 142.232 77.444C142.344 77.444 142.432 77.48 142.496 77.552C142.568 77.624 142.6 77.736 142.592 77.888C142.584 78.04 142.58 78.872 142.58 80.384L143.984 80.336C144.224 80.336 144.344 80.476 144.344 80.756C144.344 80.964 144.28 81.12 144.152 81.224C144.032 81.328 143.9 81.384 143.756 81.392C143.62 81.4 143.484 81.404 143.348 81.404L142.616 81.392C142.616 81.72 142.648 82.368 142.712 83.336C142.784 84.304 142.84 84.932 142.88 85.22C142.92 85.5 142.928 85.684 142.904 85.772C142.88 85.852 142.836 85.908 142.772 85.94C142.668 85.988 142.528 86.012 142.352 86.012C142.176 86.012 142.072 85.916 142.04 85.724C141.88 84.676 141.772 83.236 141.716 81.404C141.644 81.412 141.368 81.416 140.888 81.416C140.408 81.416 140.168 81.276 140.168 80.996C140.168 80.596 140.392 80.396 140.84 80.396ZM144.965 80.396L145.565 80.408C145.701 80.408 145.777 80.404 145.793 80.396V77.936C145.801 77.8 145.869 77.684 145.997 77.588C146.125 77.492 146.245 77.444 146.357 77.444C146.469 77.444 146.557 77.48 146.621 77.552C146.693 77.624 146.725 77.736 146.717 77.888C146.709 78.04 146.705 78.872 146.705 80.384L148.109 80.336C148.349 80.336 148.469 80.476 148.469 80.756C148.469 80.964 148.405 81.12 148.277 81.224C148.157 81.328 148.025 81.384 147.881 81.392C147.745 81.4 147.609 81.404 147.473 81.404L146.741 81.392C146.741 81.72 146.773 82.368 146.837 83.336C146.909 84.304 146.965 84.932 147.005 85.22C147.045 85.5 147.053 85.684 147.029 85.772C147.005 85.852 146.961 85.908 146.897 85.94C146.793 85.988 146.653 86.012 146.477 86.012C146.301 86.012 146.197 85.916 146.165 85.724C146.005 84.676 145.897 83.236 145.841 81.404C145.769 81.412 145.493 81.416 145.013 81.416C144.533 81.416 144.293 81.276 144.293 80.996C144.293 80.596 144.517 80.396 144.965 80.396ZM150.518 80.444C150.942 80.444 151.346 80.568 151.73 80.816C152.114 81.064 152.306 81.372 152.306 81.74C152.306 82.1 152.15 82.452 151.838 82.796C151.526 83.132 151.11 83.336 150.59 83.408C150.366 83.44 150.03 83.456 149.582 83.456C149.67 84.136 149.842 84.584 150.098 84.8C150.178 84.888 150.286 84.932 150.422 84.932C150.918 84.932 151.334 84.776 151.67 84.464C152.006 84.144 152.246 83.984 152.39 83.984C152.454 83.984 152.55 84.044 152.678 84.164C152.806 84.284 152.87 84.396 152.87 84.5C152.87 84.708 152.618 85.008 152.114 85.4C151.89 85.584 151.618 85.74 151.298 85.868C150.986 85.988 150.694 86.048 150.422 86.048C149.726 86.048 149.214 85.6 148.886 84.704C148.678 84.152 148.574 83.544 148.574 82.88C148.574 82.216 148.73 81.644 149.042 81.164C149.354 80.684 149.846 80.444 150.518 80.444ZM150.578 81.272C150.274 81.272 150.014 81.444 149.798 81.788C149.718 81.908 149.642 82.18 149.57 82.604C150.69 82.604 151.25 82.328 151.25 81.776C151.25 81.44 151.026 81.272 150.578 81.272ZM154.027 85.628L153.895 80.756C153.895 80.604 153.947 80.48 154.051 80.384C154.155 80.288 154.259 80.24 154.363 80.24C154.619 80.24 154.767 80.348 154.807 80.564C154.839 80.78 154.855 81.004 154.855 81.236C155.287 80.668 155.827 80.384 156.475 80.384C157.467 80.384 157.963 81.516 157.963 83.78C157.963 83.988 157.963 84.304 157.963 84.728C157.963 85.144 157.939 85.448 157.891 85.64C157.835 85.88 157.663 86 157.375 86C157.183 86 157.087 85.872 157.087 85.616L157.099 84.944C157.099 84.016 157.067 83.384 157.003 83.048C156.947 82.704 156.891 82.432 156.835 82.232C156.699 81.8 156.479 81.584 156.175 81.584C155.775 81.584 155.495 81.728 155.335 82.016C155.159 82.328 155.055 82.696 155.023 83.12C154.967 83.864 154.939 84.652 154.939 85.484C154.939 85.644 154.879 85.772 154.759 85.868C154.639 85.964 154.495 86.012 154.327 86.012C154.127 86.012 154.027 85.884 154.027 85.628ZM161.865 80.384L161.853 78.068C161.853 77.636 161.989 77.42 162.261 77.42C162.541 77.42 162.697 77.54 162.729 77.78C162.745 77.884 162.765 78.512 162.789 79.664C162.813 80.816 162.849 81.896 162.897 82.904C162.953 83.912 162.981 84.852 162.981 85.724C162.981 85.964 162.801 86.084 162.441 86.084C162.201 86.084 162.081 85.916 162.081 85.58C161.737 85.852 161.329 85.988 160.857 85.988C160.257 85.988 159.769 85.764 159.393 85.316C159.025 84.868 158.841 84.316 158.841 83.66C158.841 83.004 158.973 82.392 159.237 81.824C159.509 81.248 159.929 80.836 160.497 80.588C160.849 80.436 161.189 80.36 161.517 80.36C161.637 80.36 161.753 80.368 161.865 80.384ZM161.925 82.028C161.869 81.852 161.801 81.72 161.721 81.632C161.641 81.536 161.553 81.48 161.457 81.464C161.369 81.44 161.261 81.428 161.133 81.428C161.005 81.428 160.849 81.476 160.665 81.572C160.481 81.668 160.325 81.824 160.197 82.04C159.941 82.472 159.813 82.928 159.813 83.408C159.813 83.88 159.905 84.268 160.089 84.572C160.281 84.868 160.549 85.016 160.893 85.016C161.245 85.016 161.521 84.844 161.721 84.5C161.921 84.156 162.021 83.716 162.021 83.18C162.021 82.58 161.989 82.196 161.925 82.028ZM167.021 80.396C167.373 80.396 167.549 80.696 167.549 81.296C167.549 81.36 167.549 81.428 167.549 81.5L167.525 82.34C167.517 82.604 167.513 82.864 167.513 83.12L167.693 85.832C167.693 86.032 167.489 86.132 167.081 86.132C167.057 86.132 166.997 86.132 166.901 86.132C166.813 86.132 166.749 86.096 166.709 86.024C166.677 85.952 166.673 85.864 166.697 85.76C166.729 85.656 166.721 85.54 166.673 85.412C166.305 85.804 165.817 86 165.209 86C164.081 86 163.517 85.128 163.517 83.384C163.517 82.416 163.697 81.684 164.057 81.188C164.425 80.692 164.949 80.444 165.629 80.444C165.949 80.444 166.269 80.5 166.589 80.612C166.693 80.468 166.837 80.396 167.021 80.396ZM165.773 81.488C165.317 81.488 164.977 81.62 164.753 81.884C164.529 82.148 164.417 82.632 164.417 83.336C164.417 84.52 164.737 85.112 165.377 85.112C165.545 85.112 165.729 85.036 165.929 84.884C166.137 84.732 166.281 84.56 166.361 84.368C166.513 83.936 166.589 83.464 166.589 82.952C166.589 82.44 166.525 82.068 166.397 81.836C166.277 81.604 166.069 81.488 165.773 81.488ZM168.828 85.628L168.696 80.756C168.696 80.604 168.748 80.48 168.852 80.384C168.956 80.288 169.06 80.24 169.164 80.24C169.42 80.24 169.568 80.348 169.608 80.564C169.64 80.78 169.656 81.004 169.656 81.236C170.088 80.668 170.628 80.384 171.276 80.384C172.268 80.384 172.764 81.516 172.764 83.78C172.764 83.988 172.764 84.304 172.764 84.728C172.764 85.144 172.74 85.448 172.692 85.64C172.636 85.88 172.464 86 172.176 86C171.984 86 171.888 85.872 171.888 85.616L171.9 84.944C171.9 84.016 171.868 83.384 171.804 83.048C171.748 82.704 171.692 82.432 171.636 82.232C171.5 81.8 171.28 81.584 170.976 81.584C170.576 81.584 170.296 81.728 170.136 82.016C169.96 82.328 169.856 82.696 169.824 83.12C169.768 83.864 169.74 84.652 169.74 85.484C169.74 85.644 169.68 85.772 169.56 85.868C169.44 85.964 169.296 86.012 169.128 86.012C168.928 86.012 168.828 85.884 168.828 85.628ZM173.63 83.192C173.63 82.656 173.77 82.168 174.05 81.728C174.338 81.288 174.702 80.96 175.142 80.744C175.582 80.52 176.01 80.408 176.426 80.408C176.842 80.408 177.174 80.46 177.422 80.564C177.678 80.66 177.806 80.792 177.806 80.96C177.806 81.12 177.758 81.284 177.662 81.452C177.574 81.612 177.454 81.692 177.302 81.692C177.246 81.692 177.09 81.648 176.834 81.56C176.586 81.464 176.426 81.416 176.354 81.416C175.89 81.416 175.494 81.588 175.166 81.932C174.838 82.268 174.674 82.716 174.674 83.276C174.674 83.836 174.762 84.256 174.938 84.536C175.122 84.808 175.434 84.944 175.874 84.944C176.05 84.944 176.35 84.844 176.774 84.644C177.206 84.436 177.474 84.332 177.578 84.332C177.682 84.332 177.766 84.364 177.83 84.428C177.894 84.492 177.926 84.572 177.926 84.668C177.926 84.86 177.802 85.064 177.554 85.28C177.314 85.488 177.014 85.664 176.654 85.808C176.294 85.944 175.97 86.012 175.682 86.012C175.042 86.012 174.538 85.76 174.17 85.256C173.81 84.752 173.63 84.064 173.63 83.192ZM180.178 80.444C180.602 80.444 181.006 80.568 181.39 80.816C181.774 81.064 181.966 81.372 181.966 81.74C181.966 82.1 181.81 82.452 181.498 82.796C181.186 83.132 180.77 83.336 180.25 83.408C180.026 83.44 179.69 83.456 179.242 83.456C179.33 84.136 179.502 84.584 179.758 84.8C179.838 84.888 179.946 84.932 180.082 84.932C180.578 84.932 180.994 84.776 181.33 84.464C181.666 84.144 181.906 83.984 182.05 83.984C182.114 83.984 182.21 84.044 182.338 84.164C182.466 84.284 182.53 84.396 182.53 84.5C182.53 84.708 182.278 85.008 181.774 85.4C181.55 85.584 181.278 85.74 180.958 85.868C180.646 85.988 180.354 86.048 180.082 86.048C179.386 86.048 178.874 85.6 178.546 84.704C178.338 84.152 178.234 83.544 178.234 82.88C178.234 82.216 178.39 81.644 178.702 81.164C179.014 80.684 179.506 80.444 180.178 80.444ZM180.238 81.272C179.934 81.272 179.674 81.444 179.458 81.788C179.378 81.908 179.302 82.18 179.23 82.604C180.35 82.604 180.91 82.328 180.91 81.776C180.91 81.44 180.686 81.272 180.238 81.272ZM188.733 78.056C189.253 78.056 189.693 78.144 190.053 78.32C190.421 78.496 190.605 78.72 190.605 78.992C190.605 79.112 190.573 79.216 190.509 79.304C190.453 79.392 190.365 79.436 190.245 79.436C190.133 79.436 189.885 79.348 189.501 79.172C189.117 78.988 188.765 78.896 188.445 78.896C188.133 78.896 187.809 78.996 187.473 79.196C187.137 79.396 186.969 79.64 186.969 79.928C186.969 80.32 187.173 80.608 187.581 80.792C187.885 80.928 188.321 81.052 188.889 81.164C189.457 81.268 189.921 81.488 190.281 81.824C190.641 82.152 190.821 82.652 190.821 83.324C190.821 84.348 190.513 85.104 189.897 85.592C189.553 85.864 189.065 86 188.433 86C187.809 86 187.185 85.828 186.561 85.484C186.153 85.268 185.949 85.052 185.949 84.836C185.949 84.756 185.981 84.668 186.045 84.572C186.117 84.476 186.213 84.396 186.333 84.332C186.453 84.268 186.561 84.26 186.657 84.308C186.761 84.348 186.925 84.424 187.149 84.536C187.373 84.648 187.537 84.724 187.641 84.764C187.977 84.892 188.293 84.956 188.589 84.956C188.885 84.956 189.169 84.812 189.441 84.524C189.721 84.228 189.861 83.868 189.861 83.444C189.861 82.884 189.581 82.492 189.021 82.268C188.749 82.156 188.441 82.072 188.097 82.016C187.385 81.888 186.849 81.676 186.489 81.38C186.129 81.076 185.949 80.62 185.949 80.012C185.949 79.404 186.209 78.928 186.729 78.584C187.249 78.232 187.917 78.056 188.733 78.056ZM192.789 82.112L192.885 84.944C192.885 85.296 192.869 85.5 192.837 85.556C192.821 85.7 192.773 85.812 192.693 85.892C192.621 85.972 192.477 86.012 192.261 86.012C192.157 86.012 192.073 85.948 192.009 85.82C191.945 85.684 191.909 85.532 191.901 85.364C191.845 83.956 191.769 82.636 191.673 81.404C191.585 80.164 191.541 79.012 191.541 77.948C191.541 77.78 191.597 77.648 191.709 77.552C191.821 77.456 191.953 77.408 192.105 77.408C192.329 77.408 192.461 77.6 192.501 77.984C192.549 78.368 192.577 78.848 192.585 79.424C192.601 80 192.617 80.42 192.633 80.684C193.033 80.476 193.433 80.372 193.833 80.372C194.761 80.372 195.349 80.78 195.597 81.596C195.741 82.06 195.813 82.656 195.813 83.384C195.813 83.624 195.789 84.004 195.741 84.524C195.701 85.036 195.677 85.368 195.669 85.52C195.661 85.672 195.593 85.792 195.465 85.88C195.345 85.96 195.213 86 195.069 86C194.845 86 194.733 85.88 194.733 85.64L194.817 83.552C194.817 83.376 194.809 83.084 194.793 82.676C194.777 82.268 194.693 81.944 194.541 81.704C194.397 81.464 194.141 81.344 193.773 81.344C193.117 81.344 192.789 81.6 192.789 82.112ZM198.272 80.444C198.696 80.444 199.1 80.568 199.484 80.816C199.868 81.064 200.06 81.372 200.06 81.74C200.06 82.1 199.904 82.452 199.592 82.796C199.28 83.132 198.864 83.336 198.344 83.408C198.12 83.44 197.784 83.456 197.336 83.456C197.424 84.136 197.596 84.584 197.852 84.8C197.932 84.888 198.04 84.932 198.176 84.932C198.672 84.932 199.088 84.776 199.424 84.464C199.76 84.144 200 83.984 200.144 83.984C200.208 83.984 200.304 84.044 200.432 84.164C200.56 84.284 200.624 84.396 200.624 84.5C200.624 84.708 200.372 85.008 199.868 85.4C199.644 85.584 199.372 85.74 199.052 85.868C198.74 85.988 198.448 86.048 198.176 86.048C197.48 86.048 196.968 85.6 196.64 84.704C196.432 84.152 196.328 83.544 196.328 82.88C196.328 82.216 196.484 81.644 196.796 81.164C197.108 80.684 197.6 80.444 198.272 80.444ZM198.332 81.272C198.028 81.272 197.768 81.444 197.552 81.788C197.472 81.908 197.396 82.18 197.324 82.604C198.444 82.604 199.004 82.328 199.004 81.776C199.004 81.44 198.78 81.272 198.332 81.272ZM203.053 80.444C203.477 80.444 203.881 80.568 204.265 80.816C204.649 81.064 204.841 81.372 204.841 81.74C204.841 82.1 204.685 82.452 204.373 82.796C204.061 83.132 203.645 83.336 203.125 83.408C202.901 83.44 202.565 83.456 202.117 83.456C202.205 84.136 202.377 84.584 202.633 84.8C202.713 84.888 202.821 84.932 202.957 84.932C203.453 84.932 203.869 84.776 204.205 84.464C204.541 84.144 204.781 83.984 204.925 83.984C204.989 83.984 205.085 84.044 205.213 84.164C205.341 84.284 205.405 84.396 205.405 84.5C205.405 84.708 205.153 85.008 204.649 85.4C204.425 85.584 204.153 85.74 203.833 85.868C203.521 85.988 203.229 86.048 202.957 86.048C202.261 86.048 201.749 85.6 201.421 84.704C201.213 84.152 201.109 83.544 201.109 82.88C201.109 82.216 201.265 81.644 201.577 81.164C201.889 80.684 202.381 80.444 203.053 80.444ZM203.113 81.272C202.809 81.272 202.549 81.444 202.333 81.788C202.253 81.908 202.177 82.18 202.105 82.604C203.225 82.604 203.785 82.328 203.785 81.776C203.785 81.44 203.561 81.272 203.113 81.272ZM206.406 80.396L207.006 80.408C207.142 80.408 207.218 80.404 207.234 80.396V77.936C207.242 77.8 207.31 77.684 207.438 77.588C207.566 77.492 207.686 77.444 207.798 77.444C207.91 77.444 207.998 77.48 208.062 77.552C208.134 77.624 208.166 77.736 208.158 77.888C208.15 78.04 208.146 78.872 208.146 80.384L209.55 80.336C209.79 80.336 209.91 80.476 209.91 80.756C209.91 80.964 209.846 81.12 209.718 81.224C209.598 81.328 209.466 81.384 209.322 81.392C209.186 81.4 209.05 81.404 208.914 81.404L208.182 81.392C208.182 81.72 208.214 82.368 208.278 83.336C208.35 84.304 208.406 84.932 208.446 85.22C208.486 85.5 208.494 85.684 208.47 85.772C208.446 85.852 208.402 85.908 208.338 85.94C208.234 85.988 208.094 86.012 207.918 86.012C207.742 86.012 207.638 85.916 207.606 85.724C207.446 84.676 207.338 83.236 207.282 81.404C207.21 81.412 206.934 81.416 206.454 81.416C205.974 81.416 205.734 81.276 205.734 80.996C205.734 80.596 205.958 80.396 206.406 80.396Z" fill="black"/>
<path d="M20 400C20 397.791 21.7909 396 24 396H108V412H20V400Z" fill="white" stroke="black" stroke-width="0.5"/>
<path d="M108 396H286C288.209 396 290 397.791 290 400V412H108V396Z" fill="white" stroke="black" stroke-width="0.5"/>
<path d="M20 412H108V428H24C21.7909 428 20 426.209 20 424V412Z" fill="white" stroke="black" stroke-width="0.5"/>
<path d="M20 130C20 127.791 21.7909 126 24 126H44V142H20V130Z" fill="white" stroke="black" stroke-width="0.5"/>
<rect x="44" y="126" width="52.6667" height="16" fill="white" stroke="black" stroke-width="0.5"/>
<rect x="96.6667" y="126" width="52.6667" height="16" fill="white" stroke="black" stroke-width="0.5"/>
<rect x="149.333" y="126" width="88" height="16" fill="white" stroke="black" stroke-width="0.5"/>
<path d="M237.333 126H286C288.209 126 290 127.791 290 130V142H237.333V126Z" fill="white" stroke="black" stroke-width="0.5"/>
<rect x="20" y="142" width="24" height="16" fill="white" stroke="black" stroke-width="0.5"/>
<rect x="44" y="142" width="52.6667" height="16" fill="white" stroke="black" stroke-width="0.5"/>
<rect x="96.6667" y="142" width="52.6667" height="16" fill="white" stroke="black" stroke-width="0.5"/>
<rect x="149.333" y="142" width="88" height="16" fill="white" stroke="black" stroke-width="0.5"/>
<rect x="237.333" y="142" width="52.6667" height="16" fill="white" stroke="black" stroke-width="0.5"/>
<rect x="20" y="158" width="24" height="16" fill="white" stroke="black" stroke-width="0.5"/>
<rect x="44" y="158" width="52.6667" height="16" fill="white" stroke="black" stroke-width="0.5"/>
<rect x="96.6667" y="158" width="52.6667" height="16" fill="white" stroke="black" stroke-width="0.5"/>
<rect x="149.333" y="158" width="88" height="16" fill="white" stroke="black" stroke-width="0.5"/>
<rect x="237.333" y="158" width="52.6667" height="16" fill="white" stroke="black" stroke-width="0.5"/>
<rect x="20" y="174" width="24" height="16" fill="white" stroke="black" stroke-width="0.5"/>
<rect x="44" y="174" width="52.6667" height="16" fill="white" stroke="black" stroke-width="0.5"/>
<rect x="96.6667" y="174" width="52.6667" height="16" fill="white" stroke="black" stroke-width="0.5"/>
<rect x="149.333" y="174" width="88" height="16" fill="white" stroke="black" stroke-width="0.5"/>
<rect x="237.333" y="174" width="52.6667" height="16" fill="white" stroke="black" stroke-width="0.5"/>
<rect x="20" y="190" width="24" height="16" fill="white" stroke="black" stroke-width="0.5"/>
<rect x="44" y="190" width="52.6667" height="16" fill="white" stroke="black" stroke-width="0.5"/>
<rect x="96.6667" y="190" width="52.6667" height="16" fill="white" stroke="black" stroke-width="0.5"/>
<rect x="149.333" y="190" width="88" height="16" fill="white" stroke="black" stroke-width="0.5"/>
<rect x="237.333" y="190" width="52.6667" height="16" fill="white" stroke="black" stroke-width="0.5"/>
<rect x="20" y="206" width="24" height="16" fill="white" stroke="black" stroke-width="0.5"/>
<rect x="44" y="206" width="52.6667" height="16" fill="white" stroke="black" stroke-width="0.5"/>
<rect x="96.6667" y="206" width="52.6667" height="16" fill="white" stroke="black" stroke-width="0.5"/>
<rect x="149.333" y="206" width="88" height="16" fill="white" stroke="black" stroke-width="0.5"/>
<rect x="237.333" y="206" width="52.6667" height="16" fill="white" stroke="black" stroke-width="0.5"/>
<rect x="20" y="222" width="24" height="16" fill="white" stroke="black" stroke-width="0.5"/>
<rect x="44" y="222" width="52.6667" height="16" fill="white" stroke="black" stroke-width="0.5"/>
<rect x="96.6667" y="222" width="52.6667" height="16" fill="white" stroke="black" stroke-width="0.5"/>
<rect x="149.333" y="222" width="88" height="16" fill="white" stroke="black" stroke-width="0.5"/>
<rect x="237.333" y="222" width="52.6667" height="16" fill="white" stroke="black" stroke-width="0.5"/>
<rect x="20" y="238" width="24" height="16" fill="white" stroke="black" stroke-width="0.5"/>
<rect x="44" y="238" width="52.6667" height="16" fill="white" stroke="black" stroke-width="0.5"/>
<rect x="96.6667" y="238" width="52.6667" height="16" fill="white" stroke="black" stroke-width="0.5"/>
<rect x="149.333" y="238" width="88" height="16" fill="white" stroke="black" stroke-width="0.5"/>
<rect x="237.333" y="238" width="52.6667" height="16" fill="white" stroke="black" stroke-width="0.5"/>
<rect x="20" y="254" width="24" height="16" fill="white" stroke="black" stroke-width="0.5"/>
<rect x="44" y="254" width="52.6667" height="16" fill="white" stroke="black" stroke-width="0.5"/>
<rect x="96.6667" y="254" width="52.6667" height="16" fill="white" stroke="black" stroke-width="0.5"/>
<rect x="149.333" y="254" width="88" height="16" fill="white" stroke="black" stroke-width="0.5"/>
<rect x="237.333" y="254" width="52.6667" height="16" fill="white" stroke="black" stroke-width="0.5"/>
<rect x="20" y="270" width="24" height="16" fill="white" stroke="black" stroke-width="0.5"/>
<rect x="44" y="270" width="52.6667" height="16" fill="white" stroke="black" stroke-width="0.5"/>
<rect x="96.6667" y="270" width="52.6667" height="16" fill="white" stroke="black" stroke-width="0.5"/>
<rect x="149.333" y="270" width="88" height="16" fill="white" stroke="black" stroke-width="0.5"/>
<rect x="237.333" y="270" width="52.6667" height="16" fill="white" stroke="black" stroke-width="0.5"/>
<rect x="20" y="286" width="24" height="16" fill="white" stroke="black" stroke-width="0.5"/>
<rect x="44" y="286" width="52.6667" height="16" fill="white" stroke="black" stroke-width="0.5"/>
<rect x="96.6667" y="286" width="52.6667" height="16" fill="white" stroke="black" stroke-width="0.5"/>
<rect x="149.333" y="286" width="88" height="16" fill="white" stroke="black" stroke-width="0.5"/>
<rect x="237.333" y="286" width="52.6667" height="16" fill="white" stroke="black" stroke-width="0.5"/>
<rect x="20" y="302" width="24" height="16" fill="white" stroke="black" stroke-width="0.5"/>
<rect x="44" y="302" width="52.6667" height="16" fill="white" stroke="black" stroke-width="0.5"/>
<rect x="96.6667" y="302" width="52.6667" height="16" fill="white" stroke="black" stroke-width="0.5"/>
<rect x="149.333" y="302" width="88" height="16" fill="white" stroke="black" stroke-width="0.5"/>
<rect x="237.333" y="302" width="52.6667" height="16" fill="white" stroke="black" stroke-width="0.5"/>
<rect x="20" y="318" width="24" height="16" fill="white" stroke="black" stroke-width="0.5"/>
<rect x="44" y="318" width="52.6667" height="16" fill="white" stroke="black" stroke-width="0.5"/>
<rect x="96.6667" y="318" width="52.6667" height="16" fill="white" stroke="black" stroke-width="0.5"/>
<rect x="149.333" y="318" width="88" height="16" fill="white" stroke="black" stroke-width="0.5"/>
<rect x="237.333" y="318" width="52.6667" height="16" fill="white" stroke="black" stroke-width="0.5"/>
<path d="M20 334H44V350H24C21.7909 350 20 348.209 20 346V334Z" fill="white" stroke="black" stroke-width="0.5"/>
<rect x="44" y="334" width="52.6667" height="16" fill="white" stroke="black" stroke-width="0.5"/>
<rect x="96.6667" y="334" width="52.6667" height="16" fill="white" stroke="black" stroke-width="0.5"/>
<rect x="149.333" y="334" width="88" height="16" fill="white" stroke="black" stroke-width="0.5"/>
<path d="M237.333 334H290V346C290 348.209 288.209 350 286 350H237.333V334Z" fill="white" stroke="black" stroke-width="0.5"/>
<path d="M108 412H290V424C290 426.209 288.209 428 286 428H108V412Z" fill="white" stroke="black" stroke-width="0.5"/>
<rect x="24" y="402" width="67" height="4" rx="2" fill="#BBBBBB"/>
<rect x="24" y="418" width="54" height="4" rx="2" fill="#BBBBBB"/>
<rect x="20" y="98" width="56" height="4" rx="2" fill="#BBBBBB"/>
<rect x="80" y="98" width="42" height="4" rx="2" fill="#D9D9D9"/>
<rect x="20" y="106" width="80" height="4" rx="2" fill="#BBBBBB"/>
<rect x="104" y="106" width="38" height="4" rx="2" fill="#D9D9D9"/>
<rect x="20" y="114" width="22" height="4" rx="2" fill="#BBBBBB"/>
<rect x="46" y="114" width="29" height="4" rx="2" fill="#D9D9D9"/>
<rect x="130" y="98" width="37" height="4" rx="2" fill="#BBBBBB"/>
<rect x="171" y="98" width="61" height="4" rx="2" fill="#D9D9D9"/>
<rect x="151" y="106" width="37" height="4" rx="2" fill="#BBBBBB"/>
<rect x="192" y="106" width="81" height="4" rx="2" fill="#D9D9D9"/>
<rect x="83" y="114" width="37" height="4" rx="2" fill="#BBBBBB"/>
<rect x="124" y="114" width="81" height="4" rx="2" fill="#D9D9D9"/>
<rect x="213" y="114" width="37" height="4" rx="2" fill="#BBBBBB"/>
<rect x="254" y="114" width="36" height="4" rx="2" fill="#D9D9D9"/>
<rect x="24" y="132" width="16" height="4" rx="2" fill="#BBBBBB"/>
<rect x="48" y="132" width="27" height="4" rx="2" fill="#BBBBBB"/>
<rect x="101" y="132" width="31" height="4" rx="2" fill="#BBBBBB"/>
<rect x="153" y="132" width="64" height="4" rx="2" fill="#BBBBBB"/>
<rect x="241" y="132" width="32" height="4" rx="2" fill="#BBBBBB"/>
<defs>
<filter id="filter0_d_822_55" x="138.321" y="28.3204" width="23.6499" height="23.65" filterUnits="userSpaceOnUse" color-interpolation-filters="sRGB">
<feFlood flood-opacity="0" result="BackgroundImageFix"/>
<feColorMatrix in="SourceAlpha" type="matrix" values="0 0 0 0 0 0 0 0 0 0 0 0 0 0 0 0 0 0 127 0" result="hardAlpha"/>
<feOffset dx="0.5"/>
<feGaussianBlur stdDeviation="1"/>
<feComposite in2="hardAlpha" operator="out"/>
<feColorMatrix type="matrix" values="0 0 0 0 0 0 0 0 0 0 0 0 0 0 0 0 0 0 0.3 0"/>
<feBlend mode="normal" in2="BackgroundImageFix" result="effect1_dropShadow_822_55"/>
<feBlend mode="normal" in="SourceGraphic" in2="effect1_dropShadow_822_55" result="shape"/>
</filter>
<filter id="filter1_d_822_55" x="122.821" y="32.8204" width="23.6499" height="23.65" filterUnits="userSpaceOnUse" color-interpolation-filters="sRGB">
<feFlood flood-opacity="0" result="BackgroundImageFix"/>
<feColorMatrix in="SourceAlpha" type="matrix" values="0 0 0 0 0 0 0 0 0 0 0 0 0 0 0 0 0 0 127 0" result="hardAlpha"/>
<feOffset dx="0.5"/>
<feGaussianBlur stdDeviation="1"/>
<feComposite in2="hardAlpha" operator="out"/>
<feColorMatrix type="matrix" values="0 0 0 0 0 0 0 0 0 0 0 0 0 0 0 0 0 0 0.3 0"/>
<feBlend mode="normal" in2="BackgroundImageFix" result="effect1_dropShadow_822_55"/>
<feBlend mode="normal" in="SourceGraphic" in2="effect1_dropShadow_822_55" result="shape"/>
</filter>
<filter id="filter2_d_822_55" x="163.82" y="26.8202" width="23.8994" height="23.8997" filterUnits="userSpaceOnUse" color-interpolation-filters="sRGB">
<feFlood flood-opacity="0" result="BackgroundImageFix"/>
<feColorMatrix in="SourceAlpha" type="matrix" values="0 0 0 0 0 0 0 0 0 0 0 0 0 0 0 0 0 0 127 0" result="hardAlpha"/>
<feOffset dx="-0.5" dy="0.5"/>
<feGaussianBlur stdDeviation="1"/>
<feComposite in2="hardAlpha" operator="out"/>
<feColorMatrix type="matrix" values="0 0 0 0 0 0 0 0 0 0 0 0 0 0 0 0 0 0 0.3 0"/>
<feBlend mode="normal" in2="BackgroundImageFix" result="effect1_dropShadow_822_55"/>
<feBlend mode="normal" in="SourceGraphic" in2="effect1_dropShadow_822_55" result="shape"/>
</filter>
</defs>
</svg>
