<svg width="980" height="820" viewBox="0 0 980 820" fill="none" xmlns="http://www.w3.org/2000/svg">
<path d="M979.667 747.538H898.087V748.154H979.667V747.538Z" fill="#EBEBEB"/>
<path d="M687.341 754.238H665.936V754.853H687.341V754.238Z" fill="#EBEBEB"/>
<path d="M895.624 724.68H848.357V725.296H895.624V724.68Z" fill="#EBEBEB"/>
<path d="M107.1 728.818H0.716675V729.434H107.1V728.818Z" fill="#EBEBEB"/>
<path d="M144.638 728.818H129.046V729.434H144.638V728.818Z" fill="#EBEBEB"/>
<path d="M426.076 739.212H195.329V739.828H426.076V739.212Z" fill="#EBEBEB"/>
<path d="M81.8525 351.662H95.72L95.72 59.7805H81.8525L81.8525 351.662Z" fill="#E0E0E0"/>
<path d="M353.758 59.805H89.8577V351.687H353.758V59.805Z" fill="#E0E0E0"/>
<path d="M362.182 59.805H88.4537V351.687H362.182V59.805Z" fill="#F0F0F0"/>
<path d="M350.606 69.1157H99.6117V338.263H350.606V69.1157Z" fill="white"/>
<path d="M350.605 69.1157H343.339V338.263H350.605V69.1157Z" fill="#E0E0E0"/>
<path d="M98.9467 262.644V269.911H344.103V262.644H98.9467Z" fill="#E0E0E0"/>
<path d="M350.606 250.477H95.72V262.669H350.606V250.477Z" fill="#F0F0F0"/>
<path d="M545.686 703.349H908.778V243.555L545.686 243.555V703.349Z" fill="#F0F0F0"/>
<path d="M558.519 358.608L895.944 358.608V260.28L558.519 260.28V358.608Z" fill="#E0E0E0"/>
<path d="M876.757 358.608H895.92V276.216H876.757V358.608Z" fill="#EBEBEB"/>
<path d="M784.069 358.608H803.232V276.216H784.069V358.608Z" fill="#EBEBEB"/>
<path d="M664.875 355.349L683.76 358.604L697.755 277.41L678.871 274.154L664.875 355.349Z" fill="#EBEBEB"/>
<path d="M853.036 358.608H872.2V287.054H853.036V358.608Z" fill="#EBEBEB"/>
<path d="M808.946 358.608H828.11V287.054H808.946V358.608Z" fill="#EBEBEB"/>
<path d="M697.736 358.608H716.899V287.054H697.736V358.608Z" fill="#EBEBEB"/>
<path d="M743.418 354.448L762.125 358.605L777.648 288.755L758.941 284.598L743.418 354.448Z" fill="#EBEBEB"/>
<path d="M836.46 358.608H846.041V272.103H836.46V358.608Z" fill="#EBEBEB"/>
<path d="M722.441 358.608H732.023V272.103H722.441V358.608Z" fill="#EBEBEB"/>
<path d="M895.92 374.2H558.495V472.529H895.92V374.2Z" fill="#E0E0E0"/>
<path d="M577.658 390.112H558.495V472.504H577.658V390.112Z" fill="#EBEBEB"/>
<path d="M670.346 390.112H651.182V472.504H670.346V390.112Z" fill="#EBEBEB"/>
<path d="M775.578 388.027L756.693 391.283L770.689 472.477L789.574 469.222L775.578 388.027Z" fill="#EBEBEB"/>
<path d="M601.427 400.974H582.264V472.529H601.427V400.974Z" fill="#EBEBEB"/>
<path d="M645.468 400.974H626.305V472.529H645.468V400.974Z" fill="#EBEBEB"/>
<path d="M756.679 400.974H737.515V472.529H756.679V400.974Z" fill="#EBEBEB"/>
<path d="M695.553 398.482L676.847 402.64L692.37 472.49L711.077 468.332L695.553 398.482Z" fill="#EBEBEB"/>
<path d="M618.004 386.023H608.422V472.529H618.004V386.023Z" fill="#EBEBEB"/>
<path d="M731.998 386.023H722.416V472.529H731.998V386.023Z" fill="#EBEBEB"/>
<path d="M876.757 472.504H895.92V390.112H876.757V472.504Z" fill="#EBEBEB"/>
<path d="M853.036 472.504H872.2V400.95H853.036V472.504Z" fill="#EBEBEB"/>
<path d="M808.946 472.504H828.11V400.95H808.946V472.504Z" fill="#EBEBEB"/>
<path d="M836.46 472.504H846.041V385.998H836.46V472.504Z" fill="#EBEBEB"/>
<path d="M558.519 586.399H895.944V488.071L558.519 488.071V586.399Z" fill="#E0E0E0"/>
<path d="M683.08 586.399H702.243V504.007H683.08V586.399Z" fill="#EBEBEB"/>
<path d="M563.895 583.112L582.779 586.367L596.775 505.172L577.89 501.917L563.895 583.112Z" fill="#EBEBEB"/>
<path d="M752.048 586.399H771.211V514.845H752.048V586.399Z" fill="#EBEBEB"/>
<path d="M707.982 586.399H727.146V514.845H707.982V586.399Z" fill="#EBEBEB"/>
<path d="M596.747 586.399H615.91V514.845H596.747V586.399Z" fill="#EBEBEB"/>
<path d="M642.447 582.208L661.153 586.366L676.677 516.516L657.97 512.358L642.447 582.208Z" fill="#EBEBEB"/>
<path d="M735.471 586.399H745.053V499.894H735.471V586.399Z" fill="#EBEBEB"/>
<path d="M621.452 586.399H631.034V499.894H621.452V586.399Z" fill="#EBEBEB"/>
<path d="M784.422 583.117L803.307 586.372L817.302 505.177L798.418 501.922L784.422 583.117Z" fill="#EBEBEB"/>
<path d="M817.296 586.399H836.46V514.845H817.296V586.399Z" fill="#EBEBEB"/>
<path d="M862.977 582.2L881.684 586.357L897.208 516.507L878.501 512.35L862.977 582.2Z" fill="#EBEBEB"/>
<path d="M841.952 586.399H851.534V499.894H841.952V586.399Z" fill="#EBEBEB"/>
<path d="M305.998 420.655H95.252C89.8104 420.645 84.4203 421.708 79.3898 423.783C74.3594 425.858 69.7872 428.904 65.9349 432.747C62.0825 436.591 59.0255 441.155 56.9386 446.181C54.8518 451.206 53.7759 456.594 53.7727 462.036V626.622H347.404V462.036C347.404 456.599 346.332 451.216 344.251 446.194C342.17 441.172 339.12 436.609 335.275 432.766C331.429 428.923 326.865 425.876 321.841 423.798C316.818 421.72 311.434 420.652 305.998 420.655Z" fill="#E6E6E6"/>
<path d="M409.721 542.629H372.01C365.478 542.629 359.212 545.225 354.593 549.844C349.974 554.463 347.379 560.728 347.379 567.261V703.349H434.278V567.236C434.272 560.721 431.684 554.473 427.081 549.861C422.479 545.249 416.236 542.649 409.721 542.629Z" fill="#E0E0E0"/>
<path d="M409.721 542.629H408.908C402.375 542.629 396.11 545.225 391.491 549.844C386.872 554.463 384.277 560.728 384.277 567.261V703.349H434.254V567.236C434.247 560.725 431.663 554.481 427.066 549.87C422.468 545.259 416.232 542.655 409.721 542.629Z" fill="#EBEBEB"/>
<path d="M373.808 640.81H84.5619V703.325H373.808V640.81Z" fill="#E6E6E6"/>
<path d="M374.202 583.641H95.2519C81.4444 583.641 70.2511 594.834 70.2511 608.642V624.233C70.2511 638.041 81.4444 649.234 95.2519 649.234H374.202C388.01 649.234 399.203 638.041 399.203 624.233V608.642C399.203 594.834 388.01 583.641 374.202 583.641Z" fill="#F5F5F5"/>
<path d="M130.327 583.641H95.72C81.9124 583.641 70.7191 594.834 70.7191 608.642V624.233C70.7191 638.041 81.9124 649.234 95.72 649.234H130.327C144.135 649.234 155.328 638.041 155.328 624.233V608.642C155.328 594.834 144.135 583.641 130.327 583.641Z" fill="#E0E0E0"/>
<path d="M91.976 542.629H54.2653C47.7326 542.629 41.4676 545.225 36.8483 549.844C32.229 554.463 29.6339 560.728 29.6339 567.261V703.349H116.583V567.236C116.576 560.712 113.982 554.457 109.368 549.844C104.755 545.231 98.5001 542.636 91.976 542.629Z" fill="#E0E0E0"/>
<path d="M91.976 542.629H91.1878C84.6551 542.629 78.39 545.225 73.7708 549.844C69.1515 554.463 66.5564 560.728 66.5564 567.261V703.349H116.583V567.236C116.576 560.712 113.982 554.457 109.368 549.844C104.755 545.231 98.5001 542.636 91.976 542.629Z" fill="#F0F0F0"/>
<path d="M718.032 134.315C745.729 134.315 768.182 111.862 768.182 84.1655C768.182 56.4687 745.729 34.016 718.032 34.016C690.335 34.016 667.883 56.4687 667.883 84.1655C667.883 111.862 690.335 134.315 718.032 134.315Z" fill="#E0E0E0"/>
<path d="M760.161 91.0132C763.934 67.7697 748.15 45.8685 724.907 42.0956C701.663 38.3226 679.762 54.1066 675.989 77.3501C672.216 100.594 688 122.495 711.244 126.268C734.487 130.041 756.388 114.257 760.161 91.0132Z" fill="#F0F0F0"/>
<path d="M716.037 54.9034V84.7074L696.283 73.5247" fill="#F0F0F0"/>
<path d="M716.037 86.8503C715.663 86.8516 715.296 86.7493 714.978 86.5547L695.272 75.3967C694.81 75.1008 694.478 74.6384 694.346 74.105C694.215 73.5717 694.293 73.0081 694.565 72.5307C694.836 72.0533 695.281 71.6985 695.807 71.5397C696.333 71.3809 696.9 71.4302 697.391 71.6774L713.943 81.0619V54.9034C714 54.3778 714.248 53.8917 714.642 53.5385C715.035 53.1853 715.545 52.9899 716.074 52.9899C716.602 52.9899 717.112 53.1853 717.505 53.5385C717.899 53.8917 718.148 54.3778 718.204 54.9034V84.7074C718.207 85.0814 718.11 85.4493 717.924 85.7738C717.738 86.0983 717.469 86.3677 717.145 86.5547C716.812 86.7583 716.427 86.861 716.037 86.8503Z" fill="#E0E0E0"/>
<path d="M487.285 819.166C751.044 819.166 964.863 803.981 964.863 785.249C964.863 766.517 751.044 751.331 487.285 751.331C223.526 751.331 9.70703 766.517 9.70703 785.249C9.70703 803.981 223.526 819.166 487.285 819.166Z" fill="#F5F5F5"/>
<path d="M828.824 272.965H762.319C756.263 272.965 750.456 275.371 746.174 279.653C741.892 283.935 739.486 289.743 739.486 295.798V323.336C739.486 329.392 741.892 335.2 746.174 339.482C750.456 343.764 756.263 346.17 762.319 346.17H790.744L798.379 370.284L806.089 346.17H828.701C834.756 346.17 840.564 343.764 844.846 339.482C849.128 335.2 851.534 329.392 851.534 323.336V295.798C851.534 289.764 849.145 283.975 844.89 279.696C840.634 275.418 834.858 272.998 828.824 272.965Z" fill="#37474F"/>
<path d="M769.758 307.892C769.758 308.803 769.488 309.694 768.982 310.451C768.476 311.209 767.756 311.799 766.915 312.148C766.073 312.496 765.147 312.588 764.253 312.41C763.36 312.232 762.539 311.794 761.895 311.149C761.251 310.505 760.812 309.684 760.634 308.791C760.457 307.897 760.548 306.971 760.896 306.13C761.245 305.288 761.835 304.569 762.593 304.063C763.35 303.556 764.241 303.286 765.152 303.286C765.757 303.286 766.356 303.405 766.915 303.637C767.473 303.868 767.981 304.208 768.409 304.635C768.837 305.063 769.176 305.571 769.407 306.13C769.639 306.689 769.758 307.287 769.758 307.892ZM785.473 303.286C784.562 303.286 783.671 303.556 782.914 304.063C782.156 304.569 781.566 305.288 781.217 306.13C780.869 306.971 780.777 307.897 780.955 308.791C781.133 309.684 781.572 310.505 782.216 311.149C782.86 311.794 783.681 312.232 784.574 312.41C785.468 312.588 786.394 312.496 787.235 312.148C788.077 311.799 788.796 311.209 789.303 310.451C789.809 309.694 790.079 308.803 790.079 307.892C790.053 306.688 789.556 305.541 788.695 304.699C787.834 303.856 786.677 303.385 785.473 303.385V303.286ZM805.794 303.286C804.883 303.286 803.992 303.556 803.235 304.063C802.477 304.569 801.887 305.288 801.538 306.13C801.19 306.971 801.098 307.897 801.276 308.791C801.454 309.684 801.892 310.505 802.537 311.149C803.181 311.794 804.002 312.232 804.895 312.41C805.789 312.588 806.715 312.496 807.556 312.148C808.398 311.799 809.117 311.209 809.623 310.451C810.13 309.694 810.4 308.803 810.4 307.892C810.374 306.688 809.877 305.541 809.016 304.699C808.155 303.856 806.998 303.385 805.794 303.385V303.286ZM826.115 303.286C825.204 303.286 824.313 303.556 823.556 304.063C822.798 304.569 822.208 305.288 821.859 306.13C821.51 306.971 821.419 307.897 821.597 308.791C821.775 309.684 822.213 310.505 822.858 311.149C823.502 311.794 824.322 312.232 825.216 312.41C826.109 312.588 827.036 312.496 827.877 312.148C828.719 311.799 829.438 311.209 829.944 310.451C830.45 309.694 830.721 308.803 830.721 307.892C830.695 306.688 830.198 305.541 829.337 304.699C828.476 303.856 827.319 303.385 826.115 303.385V303.286Z" fill="white"/>
<path d="M146.14 354.249H79.7588C76.7603 354.249 73.7911 354.839 71.0209 355.987C68.2506 357.134 65.7335 358.816 63.6132 360.936C61.4929 363.057 59.811 365.574 58.6636 368.344C57.5161 371.114 56.9255 374.083 56.9255 377.082V404.62C56.9255 410.676 59.3311 416.483 63.6132 420.765C67.8953 425.047 73.703 427.453 79.7588 427.453H108.183L115.819 451.543L123.529 427.453H146.14C152.196 427.453 158.004 425.047 162.286 420.765C166.568 416.483 168.974 410.676 168.974 404.62V377.082C168.974 374.083 168.383 371.114 167.236 368.344C166.088 365.574 164.406 363.057 162.286 360.936C160.166 358.816 157.649 357.134 154.878 355.987C152.108 354.839 149.139 354.249 146.14 354.249Z" fill="#37474F"/>
<path d="M87.0743 389.176C87.0743 390.087 86.8041 390.977 86.298 391.735C85.7919 392.492 85.0725 393.083 84.2309 393.431C83.3892 393.78 82.4631 393.871 81.5696 393.694C80.6761 393.516 79.8554 393.077 79.2112 392.433C78.567 391.789 78.1284 390.968 77.9506 390.075C77.7729 389.181 77.8641 388.255 78.2127 387.413C78.5614 386.572 79.1517 385.852 79.9092 385.346C80.6667 384.84 81.5572 384.57 82.4682 384.57C83.6898 384.57 84.8614 385.055 85.7252 385.919C86.589 386.783 87.0743 387.954 87.0743 389.176ZM102.789 384.57C101.878 384.57 100.988 384.84 100.23 385.346C99.4726 385.852 98.8823 386.572 98.5336 387.413C98.185 388.255 98.0938 389.181 98.2715 390.075C98.4493 390.968 98.8879 391.789 99.5321 392.433C100.176 393.077 100.997 393.516 101.89 393.694C102.784 393.871 103.71 393.78 104.552 393.431C105.393 393.083 106.113 392.492 106.619 391.735C107.125 390.977 107.395 390.087 107.395 389.176C107.376 387.969 106.881 386.819 106.019 385.975C105.156 385.131 103.996 384.662 102.789 384.668V384.57ZM123.11 384.57C122.197 384.56 121.302 384.822 120.538 385.322C119.774 385.822 119.176 386.538 118.82 387.379C118.463 388.22 118.365 389.147 118.537 390.044C118.709 390.941 119.144 391.766 119.786 392.415C120.428 393.064 121.249 393.508 122.144 393.69C123.039 393.871 123.967 393.783 124.812 393.436C125.656 393.089 126.379 392.498 126.887 391.74C127.395 390.981 127.667 390.089 127.667 389.176C127.647 387.978 127.16 386.835 126.308 385.993C125.456 385.15 124.308 384.675 123.11 384.668V384.57ZM143.431 384.57C142.52 384.57 141.629 384.84 140.872 385.346C140.114 385.852 139.524 386.572 139.175 387.413C138.827 388.255 138.736 389.181 138.913 390.075C139.091 390.968 139.53 391.789 140.174 392.433C140.818 393.077 141.639 393.516 142.532 393.694C143.426 393.871 144.352 393.78 145.194 393.431C146.035 393.083 146.755 392.492 147.261 391.735C147.767 390.977 148.037 390.087 148.037 389.176C148.017 387.969 147.523 386.819 146.66 385.975C145.798 385.131 144.638 384.662 143.431 384.668V384.57Z" fill="white"/>
<path d="M888.777 788.697H576.155C517.754 788.697 514.01 719.926 562.017 687.561C570.793 681.725 580.508 677.442 590.737 674.9C685.789 649.899 819.341 481.839 913.408 552.162L913.679 552.359C1007.38 623.174 941.882 788.697 888.777 788.697Z" fill="#263238"/>
<path opacity="0.5" d="M888.777 788.697H576.155C517.754 788.697 514.01 719.926 562.017 687.561C570.793 681.725 580.508 677.442 590.737 674.9C685.789 649.899 819.341 481.839 913.408 552.162L913.679 552.359C1007.38 623.174 941.882 788.697 888.777 788.697Z" fill="white"/>
<path opacity="0.2" d="M913.162 552.039C905.28 551.521 895.723 553.738 885.427 562.359C858.702 584.774 899.344 692.684 835.425 737.562C799.759 762.612 645.887 773.647 594.53 742.932C556.623 720.246 556.13 705.985 562.017 687.561C570.793 681.725 580.508 677.442 590.737 674.9C685.666 649.776 819.218 481.716 913.162 552.039Z" fill="black"/>
<path d="M670.099 531.693L651.453 518.565L665.395 504.303C665.395 504.303 679.705 511.692 678.351 524.87L670.099 531.693Z" fill="#E4897B"/>
<path d="M644.138 504.081L657.069 495.953L665.395 504.303L651.453 518.565L644.138 504.081Z" fill="#E4897B"/>
<path d="M761.827 497.776C744.166 502.973 735.471 534.033 720.889 563.369L678.449 521.2L664.951 533.171C664.951 533.171 703.82 594.922 722.17 594.922C745.077 594.922 768.847 531.299 768.847 531.299L761.827 497.776Z" fill="#F13C03"/>
<path opacity="0.1" d="M768.847 531.299C768.847 531.299 765.078 541.373 758.994 553.467C753.206 565.241 745.324 578.961 736.826 587.262C732.023 591.917 726.973 594.873 722.047 594.873C703.696 594.873 664.828 533.122 664.828 533.122L678.326 521.151L720.766 563.32C735.348 533.984 744.018 502.924 761.728 497.726L768.847 531.299Z" fill="white"/>
<path opacity="0.2" d="M759.093 553.517C753.304 565.29 745.422 579.01 736.924 587.311C737.836 559.157 751.703 531.693 751.703 531.693C755.527 538.434 758.034 545.84 759.093 553.517Z" fill="black"/>
<path d="M744.929 669.358C744.929 669.358 595.047 647.83 587.116 680.713C578.766 715.493 699.115 738.942 771.039 741.405C842.962 743.868 863.603 726.626 852.051 637.953H753.526L744.929 669.358Z" fill="#37474F"/>
<path opacity="0.6" d="M744.929 669.358C744.929 669.358 595.047 647.83 587.116 680.713C578.766 715.493 699.115 738.942 771.039 741.405C842.962 743.868 863.603 726.626 852.051 637.953H753.526L744.929 669.358Z" fill="white"/>
<path d="M661.454 737.932L630.049 737.956L614.974 737.981L613.176 722.094L627.117 720.222L661.183 715.69L661.454 737.932Z" fill="#E4897B"/>
<path d="M616.575 720.099L620.393 738.227C620.447 738.465 620.451 738.712 620.406 738.952C620.362 739.192 620.268 739.421 620.132 739.623C619.996 739.826 619.82 739.999 619.615 740.132C619.41 740.265 619.181 740.354 618.94 740.395L609.9 742.021C609.9 742.021 597.905 745.075 594.53 742.932C584.678 736.626 575.219 696.773 579.234 693.817C580.687 692.733 583.224 694.383 584.505 695.689C588.545 699.802 597.141 711.305 600.565 714.704C604.53 718.695 611.6 718.818 614.703 718.645C615.137 718.625 615.564 718.76 615.908 719.026C616.251 719.293 616.488 719.673 616.575 720.099Z" fill="#263238"/>
<path opacity="0.2" d="M661.454 737.932L630.049 737.956L627.117 720.222L661.183 715.69L661.454 737.932Z" fill="black"/>
<path d="M707.366 709.901L737.17 719.828L751.481 724.582L748.156 740.198L734.338 737.562L700.593 731.109L707.366 709.901Z" fill="#E4897B"/>
<path d="M744.314 741.011L746.407 722.611C746.438 722.37 746.515 722.137 746.636 721.926C746.756 721.715 746.917 721.53 747.11 721.381C747.302 721.232 747.521 721.123 747.756 721.059C747.99 720.996 748.235 720.979 748.476 721.01L757.565 722.34C757.565 722.34 769.881 723.227 772.344 726.33C779.734 735.419 776.088 776.234 771.359 777.761C769.61 778.327 767.738 775.963 766.925 774.337C764.462 769.14 759.881 755.494 757.713 751.208C755.25 746.159 748.526 743.819 745.545 742.981C745.14 742.852 744.794 742.582 744.568 742.222C744.343 741.861 744.253 741.432 744.314 741.011Z" fill="#263238"/>
<path opacity="0.2" d="M707.366 709.901L737.17 719.828L734.338 737.562L700.593 731.109L707.366 709.901Z" fill="black"/>
<path d="M729.165 740.321L720.667 741.134L725.741 711.724L735.495 716.872L729.165 740.321Z" fill="#37474F"/>
<path opacity="0.6" d="M729.165 740.321L720.667 741.134L725.741 711.724L735.495 716.872L729.165 740.321Z" fill="white"/>
<path d="M757.615 750.986C757.836 752.319 757.638 753.687 757.048 754.903C756.809 755.267 756.479 755.561 756.089 755.756C755.7 755.951 755.266 756.039 754.831 756.011C754.569 756.023 754.308 755.965 754.074 755.844C753.841 755.723 753.643 755.543 753.501 755.321C752.22 753.154 755.225 746.479 755.595 745.74C755.618 745.657 755.671 745.586 755.744 745.54C755.817 745.495 755.904 745.478 755.989 745.494C756.083 745.502 756.171 745.54 756.242 745.602C756.313 745.664 756.362 745.746 756.383 745.838C756.967 747.508 757.379 749.233 757.615 750.986ZM754.068 754.188C754.085 754.406 754.152 754.617 754.265 754.804C754.311 754.899 754.386 754.976 754.479 755.025C754.572 755.073 754.678 755.091 754.782 755.075C755.08 755.11 755.383 755.06 755.653 754.929C755.924 754.798 756.151 754.592 756.309 754.336C757.027 751.994 756.896 749.473 755.94 747.218C754.902 749.41 754.268 751.771 754.068 754.188Z" fill="#37474F"/>
<path d="M756.457 745.888V746.085C755.644 748.228 751.949 752.464 749.856 752.169C749.513 752.109 749.2 751.935 748.968 751.676C748.736 751.417 748.597 751.087 748.575 750.74C748.48 750.395 748.462 750.033 748.522 749.68C748.581 749.327 748.717 748.991 748.92 748.696C750.447 746.233 755.743 745.444 756.038 745.469C756.12 745.453 756.204 745.464 756.279 745.5C756.355 745.535 756.417 745.593 756.457 745.666C756.476 745.739 756.476 745.815 756.457 745.888ZM749.363 750.395V750.592C749.511 751.208 749.757 751.233 749.88 751.282C751.112 751.454 753.945 748.696 755.176 746.577C753.075 746.833 751.117 747.777 749.609 749.262C749.399 749.601 749.304 749.998 749.338 750.395H749.363Z" fill="#37474F"/>
<path d="M632.906 717.931C632.906 717.931 772.344 663.742 815.055 672.806C857.766 681.871 857.963 704.211 836.312 725.049C814.661 745.888 782.32 737.858 782.32 737.858C782.32 737.858 807.74 722.636 805.966 713.226C804.193 703.817 788.034 725.32 788.034 725.32C788.034 725.32 703.77 745.937 634.187 740.493L632.906 717.931Z" fill="#37474F"/>
<path d="M601.526 715C600.716 713.927 600.267 712.625 600.245 711.281C600.283 710.848 600.436 710.433 600.687 710.078C600.938 709.724 601.278 709.442 601.673 709.261C601.903 709.134 602.162 709.067 602.425 709.067C602.687 709.067 602.946 709.134 603.176 709.261C605.294 710.616 605.639 717.931 605.639 718.769C605.649 718.852 605.63 718.937 605.586 719.009C605.541 719.081 605.473 719.135 605.393 719.163C605.316 719.213 605.226 719.241 605.134 719.241C605.042 719.241 604.952 719.213 604.875 719.163C603.616 717.896 602.494 716.501 601.526 715ZM603.2 710.517C603.076 710.339 602.916 710.189 602.732 710.074C602.649 710.015 602.551 709.984 602.449 709.984C602.348 709.984 602.249 710.015 602.166 710.074C601.882 710.177 601.633 710.359 601.45 710.599C601.266 710.839 601.156 711.127 601.131 711.428C601.572 713.838 602.856 716.012 604.752 717.562C604.657 715.14 604.131 712.755 603.2 710.517Z" fill="#37474F"/>
<path d="M604.875 718.99V718.769C604.629 716.502 605.934 711.034 607.954 710.32C608.288 710.216 608.647 710.227 608.973 710.352C609.3 710.477 609.574 710.709 609.752 711.01C610.216 711.557 610.446 712.265 610.393 712.98C610.146 715.862 605.811 718.99 605.466 719.138C605.397 719.185 605.316 719.209 605.232 719.209C605.149 719.209 605.068 719.185 604.998 719.138C604.946 719.1 604.903 719.049 604.875 718.99ZM609.112 711.724V711.552C608.718 711.084 608.471 711.182 608.348 711.207C607.166 711.601 605.885 715.345 605.885 717.808C607.092 716.798 609.432 714.68 609.58 712.882C609.605 712.482 609.501 712.085 609.284 711.749L609.112 711.724Z" fill="#37474F"/>
<path opacity="0.7" d="M632.906 717.931C632.906 717.931 772.344 663.742 815.055 672.806C857.766 681.871 857.963 704.211 836.312 725.049C814.661 745.888 782.32 737.858 782.32 737.858C782.32 737.858 807.74 722.636 805.966 713.226C804.193 703.817 788.034 725.32 788.034 725.32C788.034 725.32 703.77 745.937 634.187 740.493L632.906 717.931Z" fill="white"/>
<path d="M631.206 717.512L639.039 713.916L643.547 743.252L632.66 741.479L631.206 717.512Z" fill="#37474F"/>
<path opacity="0.6" d="M631.206 717.512L639.039 713.916L643.547 743.252L632.66 741.479L631.206 717.512Z" fill="white"/>
<path d="M861.953 502.48C846.903 586.227 852.371 640.416 852.371 640.416C852.371 640.416 782.344 639.455 753.575 637.83C738.23 536.324 761.826 497.751 761.826 497.751C769.35 496.243 776.959 495.199 784.61 494.623C786.211 494.5 787.862 494.426 789.537 494.352C803.108 494.343 816.669 495.108 830.154 496.643C832.617 496.914 835.302 497.258 837.814 497.628C850.647 499.574 861.953 502.48 861.953 502.48Z" fill="#263238"/>
<path opacity="0.1" d="M861.953 502.48C860.081 512.875 858.529 522.826 857.248 532.235C855.229 547.014 853.874 560.709 852.987 572.877C852.716 576.547 852.47 580.118 852.298 583.518C851.583 595.981 851.386 606.646 851.411 615.267C851.411 631.475 852.371 640.416 852.371 640.416C852.371 640.416 782.344 639.455 753.575 637.83C738.205 536.324 761.851 497.751 761.851 497.751C769.366 496.242 776.967 495.197 784.61 494.623C786.211 494.5 787.862 494.426 789.537 494.352C803.109 494.331 816.67 495.095 830.154 496.643C832.617 496.914 835.302 497.258 837.814 497.628C850.647 499.549 861.953 502.48 861.953 502.48Z" fill="white"/>
<path opacity="0.2" d="M799.414 594.922C817.359 592.79 835.064 588.98 852.298 583.542C851.583 596.006 851.386 606.671 851.411 615.292C817.986 618.371 804.34 611.942 804.34 611.942L799.414 594.922Z" fill="black"/>
<path opacity="0.2" d="M857.248 532.26C855.229 547.038 853.874 560.734 852.987 572.901C843.406 553.393 850.524 529.994 850.524 529.994L857.248 532.26Z" fill="black"/>
<path d="M803.207 629.307H752.27C751.28 629.292 750.332 628.906 749.612 628.227C748.892 627.548 748.452 626.624 748.378 625.637L741.284 558.024C741.235 557.57 741.283 557.111 741.425 556.677C741.567 556.243 741.799 555.844 742.106 555.507C742.413 555.169 742.789 554.901 743.208 554.719C743.626 554.537 744.079 554.446 744.535 554.453H795.473C796.443 554.472 797.372 554.846 798.085 555.504C798.797 556.162 799.244 557.059 799.34 558.024L806.459 625.637C806.523 626.099 806.486 626.569 806.351 627.015C806.217 627.461 805.987 627.872 805.678 628.221C805.369 628.57 804.988 628.847 804.562 629.035C804.135 629.222 803.673 629.315 803.207 629.307Z" fill="#263238"/>
<path opacity="0.6" d="M803.207 629.307H752.27C751.28 629.292 750.332 628.906 749.612 628.227C748.892 627.548 748.452 626.624 748.378 625.637L741.284 558.024C741.235 557.57 741.283 557.111 741.425 556.677C741.567 556.243 741.799 555.844 742.106 555.507C742.413 555.169 742.789 554.901 743.208 554.719C743.626 554.537 744.079 554.446 744.535 554.453H795.473C796.443 554.472 797.372 554.846 798.085 555.504C798.797 556.162 799.244 557.059 799.34 558.024L806.459 625.637C806.523 626.099 806.486 626.569 806.351 627.015C806.217 627.461 805.987 627.872 805.678 628.221C805.369 628.57 804.988 628.847 804.562 629.035C804.135 629.222 803.673 629.315 803.207 629.307Z" fill="white"/>
<path opacity="0.2" d="M801.089 629.307H752.27C751.28 629.292 750.332 628.906 749.612 628.227C748.892 627.548 748.452 626.624 748.378 625.637L741.284 558.024C741.235 557.57 741.283 557.111 741.425 556.677C741.567 556.243 741.799 555.844 742.106 555.507C742.413 555.169 742.789 554.901 743.208 554.719C743.626 554.537 744.079 554.446 744.535 554.453H793.355C794.325 554.472 795.254 554.846 795.966 555.504C796.679 556.162 797.126 557.059 797.222 558.024L804.34 625.637C804.404 626.099 804.368 626.569 804.233 627.015C804.098 627.461 803.869 627.872 803.56 628.221C803.251 628.57 802.87 628.847 802.443 629.035C802.017 629.222 801.555 629.315 801.089 629.307Z" fill="white"/>
<path d="M771.383 586.399C770.681 586.394 769.986 586.539 769.344 586.824C768.703 587.109 768.129 587.528 767.663 588.053C767.196 588.578 766.847 589.196 766.639 589.867C766.432 590.537 766.369 591.245 766.457 591.941C766.602 593.436 767.293 594.825 768.397 595.842C769.501 596.86 770.941 597.436 772.443 597.459C773.142 597.464 773.835 597.32 774.475 597.036C775.115 596.752 775.687 596.336 776.153 595.814C776.619 595.292 776.969 594.676 777.178 594.009C777.388 593.341 777.453 592.636 777.369 591.941C775.865 591.912 774.425 591.331 773.321 590.31C772.218 589.288 771.528 587.896 771.383 586.399Z" fill="#F13C03"/>
<path opacity="0.3" d="M782.418 559.921H755.496C754.835 559.912 754.189 559.718 753.632 559.361C753.074 559.004 752.628 558.498 752.343 557.901L750.742 554.551H786.261L785.325 557.901C785.142 558.518 784.754 559.054 784.226 559.421C783.698 559.788 783.06 559.964 782.418 559.921Z" fill="black"/>
<path d="M798.232 592.754L786.458 591.794L786.951 607.459L796.803 612.632L819.513 610.563L821.361 599.996C813.897 589.06 798.232 592.754 798.232 592.754Z" fill="#E4897B"/>
<path d="M861.953 502.48C874.047 506.126 891.191 576.374 888.457 591.892C885.722 607.41 855.894 614.061 817.986 613.198V594.873L861.953 582.04L854.564 554.945C854.564 554.945 848.455 535.018 851.189 521.077C852.69 513.884 856.464 507.365 861.953 502.48Z" fill="#F13C03"/>
<path opacity="0.1" d="M861.953 502.48C874.047 506.126 891.191 576.374 888.457 591.892C885.722 607.41 855.894 614.061 817.986 613.198V594.873L861.953 582.04L854.564 554.945C854.564 554.945 848.455 535.018 851.189 521.077C852.69 513.884 856.464 507.365 861.953 502.48Z" fill="white"/>
<path d="M824.292 495.854C818.158 502.259 808.528 507.628 793.084 507.062C781.236 506.594 779.586 499.155 781.655 495.066C788.847 493.588 792.098 490.46 793.108 486.47C794.118 482.48 792.714 477.11 790.645 472.134L810.621 455.311L813.996 452.454C813.996 453.415 813.873 454.425 813.823 455.484C813.591 459.388 813.591 463.303 813.823 467.208C814.488 478.218 817.099 490.165 824.292 495.854Z" fill="#E4897B"/>
<path opacity="0.2" d="M813.848 467.208C810.129 474.819 803.601 484.007 793.108 486.47C794.192 482.233 792.714 477.11 790.645 472.134L810.621 455.311C811.68 455.311 812.764 455.311 813.823 455.484C813.599 459.389 813.607 463.304 813.848 467.208Z" fill="black"/>
<path d="M768.083 421.862C765.152 428.562 764.782 442.946 774.98 439.375C785.177 435.803 773.009 410.359 768.083 421.862Z" fill="#263238"/>
<path d="M816.927 436.714C816.04 454.646 816.459 465.213 807.493 474.45C793.995 488.342 771.728 480.164 767.196 462.282C763.157 446.148 765.275 419.522 782.763 412.329C786.642 410.741 790.861 410.161 795.025 410.644C799.189 411.128 803.163 412.659 806.575 415.094C809.987 417.529 812.726 420.79 814.536 424.571C816.346 428.351 817.169 432.529 816.927 436.714Z" fill="#E4897B"/>
<path d="M789.734 441.789C789.734 443.242 788.995 444.449 788.034 444.449C787.074 444.449 786.286 443.266 786.261 441.789C786.236 440.311 787.025 439.153 787.961 439.153C788.897 439.153 789.709 440.335 789.734 441.789Z" fill="#263238"/>
<path d="M773.182 441.838C773.182 443.291 772.443 444.473 771.482 444.473C770.521 444.473 769.733 443.291 769.733 441.838C769.733 440.385 770.472 439.202 771.433 439.202C772.393 439.202 773.182 440.36 773.182 441.838Z" fill="#263238"/>
<path d="M778.453 442.552C776.71 446.879 774.373 450.941 771.507 454.622C772.523 455.29 773.669 455.739 774.869 455.938C776.07 456.138 777.299 456.083 778.477 455.779L778.453 442.552Z" fill="#DE5753"/>
<path d="M794.759 436.444C794.611 436.465 794.459 436.447 794.321 436.391C794.182 436.335 794.061 436.242 793.971 436.123C793.333 435.248 792.5 434.534 791.538 434.038C790.576 433.542 789.511 433.278 788.428 433.266C788.201 433.28 787.977 433.206 787.803 433.059C787.628 432.913 787.517 432.704 787.492 432.478C787.482 432.365 787.495 432.25 787.529 432.142C787.563 432.033 787.618 431.933 787.692 431.846C787.765 431.759 787.855 431.687 787.956 431.635C788.057 431.583 788.167 431.551 788.281 431.542C789.649 431.533 791.001 431.848 792.225 432.46C793.449 433.072 794.511 433.964 795.325 435.064C795.465 435.244 795.528 435.472 795.5 435.698C795.473 435.924 795.357 436.13 795.177 436.271C795.055 436.364 794.911 436.423 794.759 436.444Z" fill="#263238"/>
<path d="M765.989 436.173C765.828 436.219 765.658 436.219 765.497 436.173C765.395 436.123 765.303 436.053 765.228 435.968C765.153 435.883 765.095 435.783 765.059 435.676C765.022 435.568 765.007 435.454 765.015 435.341C765.022 435.228 765.052 435.117 765.103 435.015C765.648 433.762 766.489 432.66 767.552 431.802C768.616 430.944 769.871 430.356 771.211 430.089C771.324 430.075 771.439 430.084 771.549 430.115C771.659 430.146 771.762 430.199 771.851 430.27C771.94 430.341 772.015 430.429 772.07 430.529C772.125 430.629 772.16 430.739 772.172 430.852C772.189 430.962 772.184 431.075 772.158 431.183C772.131 431.291 772.083 431.393 772.017 431.483C771.95 431.572 771.866 431.648 771.77 431.704C771.674 431.761 771.568 431.798 771.457 431.813C770.4 432.012 769.408 432.469 768.57 433.143C767.732 433.818 767.074 434.689 766.654 435.68C766.59 435.809 766.497 435.921 766.381 436.006C766.265 436.092 766.131 436.149 765.989 436.173Z" fill="#263238"/>
<path d="M788.749 422.33C788.749 422.33 793.675 418.783 795.941 422.601C798.207 426.419 798.059 436.591 798.059 436.591L799.045 434.793C799.045 434.793 805.424 457.454 814.661 451.74C823.898 446.025 837.47 423.019 815.892 411.295C815.892 411.295 813.602 405.827 799.34 403.117C785.079 400.408 767.837 409.226 764.856 418.66C761.876 428.094 766.039 433.439 766.039 433.439C766.496 431.385 767.433 429.469 768.773 427.847C768.964 428.809 769.39 429.707 770.013 430.464C770.636 431.22 771.437 431.811 772.344 432.182C772.199 430.255 772.6 428.325 773.502 426.616C773.973 428.292 774.815 429.841 775.965 431.148C777 421.443 783.601 419.472 785.67 419.546C786.41 419.628 787.106 419.941 787.659 420.441C788.211 420.94 788.593 421.601 788.749 422.33Z" fill="#263238"/>
<path d="M824.045 451.567C823.386 453.701 822.311 455.683 820.882 457.4C819.454 459.116 817.699 460.533 815.72 461.568C810.4 464.302 806.508 459.794 806.951 454.178C807.345 449.08 810.572 441.518 816.41 441.148C817.687 441.091 818.958 441.349 820.111 441.901C821.264 442.453 822.262 443.282 823.018 444.313C823.774 445.344 824.263 446.545 824.442 447.811C824.621 449.077 824.485 450.367 824.045 451.567Z" fill="#E4897B"/>
<path d="M779.044 461.789C780.581 463.398 781.997 465.119 783.28 466.937L784.34 466.42C789.093 463.957 790.522 461.321 790.645 459.03C790.677 457.926 790.449 456.829 789.98 455.828C789.73 455.258 789.398 454.727 788.995 454.252C786.726 457.047 783.877 459.316 780.645 460.903C779.684 461.494 779.044 461.789 779.044 461.789Z" fill="#263238"/>
<path d="M780.645 460.952L781.95 462.43C786.409 460.164 789.34 457.947 789.98 455.878C789.73 455.307 789.398 454.776 788.995 454.301C786.726 457.096 783.877 459.365 780.645 460.952Z" fill="white"/>
<path d="M784.34 466.42C789.093 463.957 790.522 461.321 790.645 459.03C788.854 459.981 787.245 461.24 785.891 462.75C784.998 463.778 784.455 465.063 784.34 466.42Z" fill="#A24E3F"/>
<path d="M350.359 520.166L351.64 533.836C351.64 533.836 431.643 546.004 444.451 558.467C457.259 570.931 502.704 768.056 502.704 768.056L484.379 770.519C484.379 770.519 420.78 625.194 417.381 604.159C417.381 604.159 361.369 606.252 323.142 606.252C284.914 606.252 280.357 520.043 280.357 520.043L350.359 520.166Z" fill="#37474F"/>
<path opacity="0.3" d="M502.704 768.081L484.379 770.544C484.379 770.544 458.368 711.108 438.737 662.757C427.628 635.49 418.588 611.745 417.381 604.159C417.381 604.159 378.611 605.587 343.487 606.08C336.393 606.08 329.472 606.228 323.043 606.228C284.815 606.228 280.258 520.018 280.258 520.018H350.261L351.542 533.688C351.542 533.688 431.569 545.832 444.353 558.32C457.136 570.808 502.704 768.081 502.704 768.081Z" fill="white"/>
<path d="M516.843 785.741C504.527 785.741 502.877 785.544 495.931 785.298C489.995 785.101 488.541 785.84 483.812 785.741C479.822 785.741 479.97 781.825 481.201 777.44C481.817 775.224 482.753 770.568 483.664 767.021L501.744 765.691C504.207 770.618 510.02 777.49 516.966 778.426C523.912 779.362 521.769 785.741 516.843 785.741Z" fill="#263238"/>
<path opacity="0.2" d="M438.737 662.855C427.628 635.588 418.588 611.844 417.381 604.257C417.381 604.257 378.611 605.686 343.487 606.178L339.694 539.206C339.694 539.206 389.154 546.3 422.406 574.946C426.618 578.493 434.82 633.347 438.737 662.855Z" fill="black"/>
<path d="M421.495 619.061H278.362V610.267C278.362 607.334 279.527 604.521 281.601 602.447C283.675 600.373 286.488 599.208 289.421 599.208H410.435C413.368 599.208 416.181 600.373 418.255 602.447C420.329 604.521 421.495 607.334 421.495 610.267V619.061Z" fill="#263238"/>
<path opacity="0.2" d="M421.495 619.061H278.362V610.267C278.362 607.334 279.527 604.521 281.601 602.447C283.675 600.373 286.488 599.208 289.421 599.208H410.435C413.368 599.208 416.181 600.373 418.255 602.447C420.329 604.521 421.495 607.334 421.495 610.267V619.061Z" fill="white"/>
<path d="M416.519 747.76L361.345 742.957V670.491H341.96V742.932L286.589 747.858C284.234 748.09 282.051 749.19 280.462 750.942C278.873 752.695 277.993 754.976 277.992 757.341V764.731H425.14V757.341C425.163 754.955 424.291 752.647 422.694 750.873C421.098 749.098 418.895 747.988 416.519 747.76Z" fill="#263238"/>
<path d="M295.825 773.721C295.825 776.23 295.081 778.683 293.688 780.769C292.294 782.855 290.313 784.481 287.995 785.441C285.677 786.401 283.126 786.652 280.665 786.163C278.205 785.673 275.944 784.465 274.17 782.691C272.396 780.917 271.188 778.657 270.699 776.196C270.209 773.735 270.461 771.185 271.421 768.867C272.381 766.549 274.007 764.568 276.093 763.174C278.179 761.78 280.631 761.036 283.14 761.036C286.504 761.036 289.731 762.372 292.11 764.751C294.489 767.13 295.825 770.357 295.825 773.721Z" fill="#263238"/>
<path d="M419.943 786.406C426.949 786.406 432.628 780.727 432.628 773.721C432.628 766.715 426.949 761.036 419.943 761.036C412.937 761.036 407.258 766.715 407.258 773.721C407.258 780.727 412.937 786.406 419.943 786.406Z" fill="#263238"/>
<path d="M338.61 614.331H364.695V676.132C364.695 678.555 363.732 680.879 362.018 682.593C360.304 684.307 357.98 685.27 355.557 685.27H347.773C345.349 685.27 343.025 684.307 341.311 682.593C339.598 680.879 338.635 678.555 338.635 676.132V614.331H338.61Z" fill="#263238"/>
<path opacity="0.2" d="M338.61 614.331H364.695V676.132C364.695 678.555 363.732 680.879 362.018 682.593C360.304 684.307 357.98 685.27 355.557 685.27H347.773C345.349 685.27 343.025 684.307 341.311 682.593C339.598 680.879 338.635 678.555 338.635 676.132V614.331H338.61Z" fill="white"/>
<path d="M277.352 621.351H422.48C424.942 621.351 426.938 619.355 426.938 616.893V615.883C426.938 613.421 424.942 611.425 422.48 611.425H277.352C274.89 611.425 272.894 613.421 272.894 615.883V616.893C272.894 619.355 274.89 621.351 277.352 621.351Z" fill="#263238"/>
<path opacity="0.2" d="M295.825 773.721C295.825 776.23 295.081 778.683 293.688 780.769C292.294 782.855 290.313 784.481 287.995 785.441C285.677 786.401 283.126 786.652 280.665 786.163C278.205 785.673 275.944 784.465 274.17 782.691C272.396 780.917 271.188 778.657 270.699 776.196C270.209 773.735 270.461 771.185 271.421 768.867C272.381 766.549 274.007 764.568 276.093 763.174C278.179 761.78 280.631 761.036 283.14 761.036C286.504 761.036 289.731 762.372 292.11 764.751C294.489 767.13 295.825 770.357 295.825 773.721Z" fill="white"/>
<path opacity="0.2" d="M419.943 786.406C426.949 786.406 432.628 780.727 432.628 773.721C432.628 766.715 426.949 761.036 419.943 761.036C412.937 761.036 407.258 766.715 407.258 773.721C407.258 780.727 412.937 786.406 419.943 786.406Z" fill="white"/>
<path d="M433.663 497.209H389.449C376.493 497.209 367.133 485.559 368.562 471.223L370.434 452.06C371.862 437.7 383.488 426.049 396.444 426.049H440.658C453.614 426.049 462.974 437.7 461.57 452.06L459.673 471.223C458.269 485.559 446.619 497.209 433.663 497.209Z" fill="#263238"/>
<path opacity="0.2" d="M433.663 497.209H389.449C376.493 497.209 367.133 485.559 368.562 471.223L370.434 452.06C371.862 437.7 383.488 426.049 396.444 426.049H440.658C453.614 426.049 462.974 437.7 461.57 452.06L459.673 471.223C458.269 485.559 446.619 497.209 433.663 497.209Z" fill="white"/>
<path d="M429.598 487.874H403.538C395.878 487.874 390.336 481.002 391.223 472.504L392.356 461.198C393.169 452.7 400.065 445.828 407.726 445.828H433.835C441.495 445.828 447.037 452.7 446.151 461.198L445.018 472.504C444.131 481.002 437.259 487.874 429.598 487.874Z" fill="#263238"/>
<path d="M408.859 470.977C408.859 470.977 402.898 590.808 377.084 611.376H404.696C404.696 611.376 429.327 570.561 431.126 470.977H408.859Z" fill="#263238"/>
<path d="M431.076 421.049L435.83 418.586C436.722 418.13 437.71 417.892 438.712 417.892C439.714 417.892 440.702 418.13 441.594 418.586L450.116 422.773C451.794 423.598 453.25 424.814 454.36 426.318C455.47 427.823 456.203 429.572 456.496 431.419L456.89 433.759C449.279 438.537 437.554 438.094 437.554 438.094L434.18 438.365C433.492 438.436 432.796 438.37 432.134 438.17C431.471 437.97 430.855 437.641 430.321 437.201C429.787 436.761 429.346 436.219 429.023 435.607C428.7 434.995 428.502 434.325 428.441 433.636L427.85 426.985C427.737 425.787 427.984 424.583 428.559 423.526C429.133 422.468 430.01 421.606 431.076 421.049Z" fill="#B97964"/>
<path opacity="0.2" d="M431.076 421.049L435.83 418.586C436.722 418.13 437.71 417.892 438.712 417.892C439.714 417.892 440.702 418.13 441.594 418.586L450.116 422.773C451.794 423.598 453.25 424.814 454.36 426.318C455.47 427.823 456.203 429.572 456.496 431.419L456.89 433.759C449.279 438.537 437.554 438.094 437.554 438.094L434.18 438.365C433.492 438.436 432.796 438.37 432.134 438.17C431.471 437.97 430.855 437.641 430.321 437.201C429.787 436.761 429.346 436.219 429.023 435.607C428.7 434.995 428.502 434.325 428.441 433.636L427.85 426.985C427.737 425.787 427.984 424.583 428.559 423.526C429.133 422.468 430.01 421.606 431.076 421.049Z" fill="black"/>
<path d="M396.149 426.911L378.907 448.71H362.503L364.645 418.29C377.06 420.679 396.149 426.911 396.149 426.911Z" fill="#F13C03"/>
<path opacity="0.2" d="M377.454 448.71H363.266L372.084 426.911C372.084 426.911 377.134 434.572 377.454 448.71Z" fill="black"/>
<path d="M351.418 528.392L279.224 521.693C281.49 514.008 283.485 506.471 285.16 499.204C287.278 490.312 288.953 481.79 290.283 473.834C291.613 465.878 292.746 458.489 293.535 451.789L293.756 449.892C293.756 448.833 294.003 447.799 294.101 446.813C294.815 440.335 295.259 434.695 295.554 430.039C296.17 420.95 296.17 415.704 296.17 415.704C320.906 410.967 346.432 412.483 370.434 420.113C381.173 450.36 351.418 528.392 351.418 528.392Z" fill="#F13C03"/>
<path d="M351.172 424.941C350.076 427.213 348.399 429.155 346.312 430.572C344.224 431.989 341.8 432.829 339.284 433.009C336.767 433.189 334.248 432.702 331.98 431.597C329.713 430.491 327.777 428.807 326.368 426.714L323.24 422.059L319.398 416.27C325.851 412.453 328.388 400.235 329.25 389.742C329.521 386.442 329.62 383.338 329.62 380.703L345.827 402.871C344.693 405.219 343.865 407.702 343.364 410.26C343.159 411.315 343.076 412.389 343.118 413.462C343.142 417.773 345.285 421.763 351.172 424.941Z" fill="#B97964"/>
<path opacity="0.2" d="M345.778 402.994C344.644 405.342 343.816 407.825 343.315 410.384C339.053 415.852 332.428 421.64 323.289 422.01L319.398 416.27C325.851 412.453 328.388 400.235 329.25 389.742C329.521 386.442 329.62 383.338 329.62 380.703L345.778 402.994Z" fill="black"/>
<path d="M306.836 365.973C306.836 365.973 298.83 362.968 301.195 357.426C303.56 351.884 306.417 351.933 306.417 351.933C305.207 349.667 304.55 347.148 304.498 344.579C304.447 342.011 305.003 339.467 306.121 337.154C310.087 329.765 318.856 332.77 318.856 332.77C318.89 330.449 319.714 328.209 321.192 326.418C322.669 324.627 324.712 323.393 326.984 322.918C329.303 322.534 331.684 322.918 333.765 324.012C335.846 325.105 337.513 326.849 338.512 328.977C338.512 328.977 344.029 321.809 352.108 323.78C360.187 325.75 361.813 337.007 361.813 337.007C364.019 336.287 366.419 336.446 368.511 337.451C370.603 338.456 372.227 340.229 373.045 342.401C374.143 344.668 374.602 347.192 374.372 349.701C374.142 352.21 373.232 354.608 371.739 356.638C371.739 356.638 376.887 354.175 378.587 362.476C380.286 370.776 371.616 378.067 371.616 378.067C371.616 378.067 376.296 378.634 373.882 384.767C371.468 390.9 363.857 390.999 363.857 390.999C363.857 390.999 366.813 392.501 361.222 397.551C355.63 402.6 337.625 395.383 337.625 395.383L306.836 365.973Z" fill="#263238"/>
<path d="M328.856 352.82C311.614 353.707 306.688 363.214 306.269 381.023C305.85 403.191 311.589 418.734 332.846 412.871C361.665 404.915 357.428 351.317 328.856 352.82Z" fill="#B97964"/>
<path d="M317.329 379.471C316.087 382.111 314.532 384.592 312.698 386.861C313.241 387.547 313.963 388.071 314.784 388.375C315.605 388.679 316.494 388.751 317.353 388.585L317.329 379.471Z" fill="#A24E3F"/>
<path d="M327.797 377.501C327.797 378.929 328.634 379.964 329.57 379.964C330.506 379.964 331.245 378.781 331.221 377.353C331.196 375.924 330.383 374.89 329.423 374.89C328.462 374.89 327.748 376.097 327.797 377.501Z" fill="#263238"/>
<path d="M329.817 374.964L326.713 373.831C326.713 373.831 328.314 376.392 329.817 374.964Z" fill="#263238"/>
<path d="M310.185 377.722C310.185 379.151 311.023 380.185 311.984 380.185C312.944 380.185 313.658 379.003 313.609 377.575C313.56 376.146 312.772 375.111 311.836 375.111C310.9 375.111 310.161 376.318 310.185 377.722Z" fill="#263238"/>
<path d="M312.23 375.161L309.102 374.052C309.102 374.052 310.727 376.589 312.23 375.161Z" fill="#263238"/>
<path d="M334.94 368.559C334.837 368.561 334.735 368.54 334.641 368.498C334.547 368.455 334.464 368.392 334.398 368.313C333.468 367.483 332.362 366.875 331.164 366.534C329.965 366.192 328.704 366.127 327.477 366.343C327.381 366.36 327.283 366.359 327.188 366.339C327.093 366.319 327.003 366.281 326.923 366.226C326.843 366.171 326.775 366.101 326.722 366.019C326.669 365.938 326.632 365.847 326.615 365.751C326.586 365.563 326.631 365.37 326.741 365.214C326.852 365.057 327.018 364.95 327.206 364.914C328.682 364.644 330.201 364.727 331.639 365.155C333.077 365.583 334.394 366.344 335.482 367.377C335.617 367.515 335.693 367.701 335.693 367.894C335.693 368.088 335.617 368.274 335.482 368.412C335.327 368.528 335.133 368.581 334.94 368.559Z" fill="#263238"/>
<path d="M308.018 368.042C307.906 368.042 307.795 368.017 307.693 367.971C307.591 367.924 307.5 367.856 307.427 367.771C307.309 367.614 307.259 367.417 307.286 367.223C307.314 367.029 307.418 366.854 307.574 366.737C308.586 365.888 309.775 365.276 311.053 364.948C312.332 364.62 313.669 364.583 314.964 364.84C315.058 364.868 315.146 364.915 315.222 364.977C315.299 365.04 315.362 365.117 315.407 365.204C315.453 365.292 315.481 365.387 315.49 365.485C315.498 365.583 315.487 365.682 315.457 365.776C315.395 365.957 315.265 366.106 315.095 366.194C314.925 366.281 314.728 366.299 314.545 366.244C313.463 366.049 312.35 366.098 311.289 366.388C310.228 366.678 309.245 367.201 308.412 367.919C308.294 367.995 308.158 368.038 308.018 368.042Z" fill="#263238"/>
<path d="M349.177 380.826C349.177 380.826 340.384 367.106 341.049 356.195C341.049 356.195 306.22 344.051 306.343 378.732C306.343 378.732 301.417 348.189 330.974 345.948C360.532 343.706 362.65 386.984 348.044 400.679C348.019 400.63 354.62 389.398 349.177 380.826Z" fill="#263238"/>
<path d="M346.566 384.619C346.588 383.624 346.807 382.643 347.209 381.732C347.612 380.822 348.19 380 348.911 379.313C349.632 378.627 350.481 378.089 351.41 377.732C352.339 377.374 353.33 377.203 354.325 377.23C359.695 377.55 362.798 388.363 349.67 391.688C347.798 392.206 346.615 390.407 346.566 384.619Z" fill="#B97964"/>
<path d="M321.491 398.61C320.999 398.645 320.505 398.645 320.013 398.61C319.918 398.592 319.827 398.556 319.746 398.503C319.664 398.45 319.594 398.381 319.539 398.301C319.484 398.221 319.446 398.131 319.426 398.036C319.406 397.941 319.404 397.843 319.422 397.748C319.437 397.653 319.471 397.563 319.521 397.482C319.572 397.4 319.638 397.33 319.716 397.275C319.794 397.22 319.882 397.181 319.976 397.161C320.069 397.14 320.166 397.139 320.26 397.156C322.115 397.483 324.026 397.174 325.684 396.28C327.342 395.386 328.651 393.959 329.398 392.23C329.433 392.14 329.487 392.057 329.554 391.987C329.622 391.917 329.702 391.861 329.792 391.822C329.881 391.783 329.977 391.762 330.074 391.76C330.171 391.759 330.268 391.776 330.359 391.812C330.449 391.847 330.532 391.9 330.602 391.968C330.672 392.035 330.728 392.116 330.767 392.205C330.806 392.294 330.827 392.39 330.828 392.488C330.83 392.585 330.813 392.682 330.777 392.772C330.022 394.585 328.724 396.12 327.061 397.165C325.398 398.21 323.452 398.715 321.491 398.61Z" fill="#263238"/>
<path d="M355.507 374.545C351.394 353.189 319.816 335.258 307.969 360.086C309.955 353.864 313.797 348.397 318.979 344.421C318.979 344.421 351 335.282 356.64 371.761L355.507 374.545Z" fill="#37474F"/>
<path d="M338.684 785.741C326.368 785.741 324.718 785.544 317.772 785.298C311.836 785.101 310.383 785.84 305.653 785.741C301.663 785.741 301.811 781.825 303.042 777.44C303.658 775.224 304.594 770.568 305.505 767.021L323.585 765.691C326.048 770.618 331.861 777.49 338.807 778.426C345.753 779.362 343.586 785.741 338.684 785.741Z" fill="#263238"/>
<path d="M280.381 520.166C280.381 520.166 255.75 556.792 269.1 586.892C282.45 616.992 349.965 603.395 349.965 603.395L305.481 767.095L326.762 770.618C326.762 770.618 402.208 608.371 404.13 580.71C406.051 553.049 324.595 535.289 324.595 535.289L280.381 520.166Z" fill="#37474F"/>
<path opacity="0.3" d="M280.381 520.166C280.381 520.166 255.75 556.792 269.1 586.892C282.45 616.992 349.965 603.395 349.965 603.395L305.481 767.095L326.762 770.618C326.762 770.618 402.208 608.371 404.13 580.71C406.051 553.049 324.595 535.289 324.595 535.289L280.381 520.166Z" fill="white"/>
<path opacity="0.2" d="M355.507 435.976C355.507 435.976 321.023 460.262 293.756 449.818C293.756 448.759 294.003 447.725 294.101 446.739C294.815 440.261 295.259 434.621 295.554 429.965C304.391 425.928 313.564 422.672 322.969 420.236C332.65 427.611 343.716 432.964 355.507 435.976Z" fill="black"/>
<path d="M307.476 415.753C322.649 423.143 338.314 432.33 354.842 435.705C364.35 435.089 374.991 431.222 384.548 428.611L413.194 419.941C414.421 419.554 415.748 419.639 416.916 420.179C418.084 420.718 419.009 421.673 419.51 422.858C420.012 424.042 420.054 425.371 419.628 426.585C419.203 427.799 418.34 428.811 417.209 429.424C408.268 434.35 399.252 438.882 389.917 443.02C378.39 447.749 367.749 453.267 354.744 454.449C350.076 454.395 345.437 453.715 340.95 452.429C325.807 447.987 311.228 441.813 297.5 434.03C295.316 432.601 293.748 430.404 293.106 427.874C292.464 425.343 292.795 422.664 294.033 420.367C295.272 418.069 297.328 416.32 299.794 415.466C302.261 414.611 304.958 414.714 307.353 415.753H307.476Z" fill="#B97864"/>
<path d="M299.323 413.019C286.047 416.172 285.603 438.956 297.796 449.646L327.354 424.694C327.354 424.694 315.063 409.275 299.323 413.019Z" fill="#F13C03"/>
<path d="M413.957 420.064L430.337 419.67L422.948 436.246C422.948 436.246 408.169 435.729 408.883 428.192L413.957 420.064Z" fill="#B97964"/>
<path d="M444.402 427.773L433.17 439.867L422.899 436.246L430.337 419.67L444.402 427.773Z" fill="#B97964"/>
<path d="M664.335 619.504C675.789 643.199 686.824 666.895 694.287 692.265C697.711 709.507 698.351 727.045 699.632 744.163C700.519 758.326 701.036 772.465 701.233 786.677L688.548 788.007C684.533 768.031 680.765 745.74 677.267 725.591C675.592 716.478 674.311 707.512 672.02 698.743C663.301 676.156 651.207 652.904 641.182 630.687L664.335 619.504Z" fill="#DC897C"/>
<path d="M683.252 650.515L663.178 660.121L650.714 666.156L643.152 647.978L635.246 628.938L641.921 594.232C662.414 603.198 683.252 650.515 683.252 650.515Z" fill="#37474F"/>
<path opacity="0.2" d="M663.178 660.121L650.714 666.156L643.152 647.978C644.704 637.682 646.01 628.938 646.01 628.938C646.01 628.938 660.591 642.017 663.178 660.121Z" fill="black"/>
<path d="M603.053 531.299C603.274 532.777 604.235 533.762 605.196 533.762C606.156 533.762 606.747 532.309 606.526 530.831C606.304 529.353 605.319 528.368 604.358 528.368C603.398 528.368 602.683 529.846 603.053 531.299Z" fill="#263238"/>
<path d="M603.964 533.861C606.406 538.077 609.414 541.939 612.905 545.339C612.02 546.22 610.953 546.897 609.778 547.322C608.604 547.748 607.351 547.912 606.107 547.802L603.964 533.861Z" fill="#DE5753"/>
<path d="M596.279 523.984C596.059 523.976 595.849 523.888 595.688 523.737C595.528 523.572 595.439 523.351 595.439 523.121C595.439 522.892 595.528 522.671 595.688 522.506C596.652 521.517 597.841 520.776 599.154 520.347C600.466 519.918 601.863 519.814 603.225 520.042C603.337 520.066 603.443 520.111 603.538 520.176C603.632 520.241 603.713 520.324 603.774 520.42C603.836 520.517 603.879 520.624 603.898 520.737C603.918 520.85 603.915 520.965 603.89 521.077C603.867 521.189 603.821 521.295 603.756 521.39C603.692 521.484 603.609 521.565 603.512 521.626C603.416 521.688 603.308 521.73 603.196 521.75C603.083 521.77 602.967 521.767 602.856 521.742C601.773 521.588 600.669 521.695 599.636 522.055C598.603 522.415 597.672 523.017 596.919 523.811C596.829 523.881 596.726 523.932 596.616 523.961C596.507 523.991 596.392 523.998 596.279 523.984Z" fill="#263238"/>
<path d="M607.634 553.566C607.162 559.512 604.627 565.105 600.466 569.379C597.717 572.202 594.342 574.337 590.614 575.611C587.046 576.85 583.225 577.181 579.497 576.574C575.769 575.968 572.25 574.443 569.258 572.138C558.716 564.305 557.337 553.64 553.445 535.782C552.487 531.642 552.603 527.326 553.783 523.243C554.962 519.161 557.166 515.448 560.184 512.457C563.202 509.466 566.935 507.296 571.028 506.153C575.121 505.011 579.438 504.933 583.569 505.929C602.388 510.387 608.989 536.767 607.634 553.566Z" fill="#E4897B"/>
<path d="M560.219 564.921C567.608 569.576 595.54 556.497 590.934 534.501C590.934 534.501 601.944 522.456 601.402 508.589C600.86 494.721 591.55 488.884 581.402 491.495C572.386 493.687 572.411 498.589 572.411 498.589C572.411 498.589 530.144 501.569 538.321 519.082C520.34 536.964 551.13 559.133 560.219 564.921Z" fill="#263238"/>
<path d="M583.348 537.925C584.346 542.36 586.778 546.343 590.269 549.255C594.875 553.049 598.619 549.699 598.545 544.329C598.545 539.403 596.082 531.595 590.737 529.895C585.392 528.196 582.313 532.58 583.348 537.925Z" fill="#E4897B"/>
<path opacity="0.2" d="M606.353 559.773C605.124 563.37 603.113 566.651 600.466 569.379C597.717 572.202 594.342 574.337 590.614 575.611C588.109 574.343 585.704 572.885 583.421 571.251L587.165 562.064C587.165 562.064 598.644 567.68 606.353 559.773Z" fill="black"/>
<path d="M566.229 587.459L563.076 565.857C563.076 565.857 577.14 556.004 591.87 562.63L614.038 589.355L566.229 587.459Z" fill="#E4897B"/>
<path d="M616.6 586.695L611.452 578.985C611.452 578.985 574.111 565.167 557.829 582.877C557.829 582.877 594.259 602.139 616.6 586.695Z" fill="#37474F"/>
<path opacity="0.2" d="M616.6 586.695L611.452 578.985C611.452 578.985 574.111 565.167 557.829 582.877C557.829 582.877 594.259 602.139 616.6 586.695Z" fill="black"/>
<path d="M473.221 796.136L459.156 787.071L464.55 779.017L479.206 757.144L493.295 766.209L477.088 790.372L473.221 796.136Z" fill="#E4897B"/>
<path d="M460.19 785.914L479.896 785.717C480.215 785.724 480.524 785.836 480.773 786.037C481.023 786.237 481.199 786.514 481.275 786.825L484.576 801.136C484.696 801.752 484.577 802.39 484.243 802.921C483.909 803.452 483.385 803.835 482.777 803.993H482.26C475.905 803.993 471.299 803.599 463.343 803.673C458.417 803.673 443.638 804.387 436.889 804.436C430.14 804.486 429.155 797.835 431.963 797.195C444.279 794.362 453.688 790.52 457.629 786.899C458.334 786.268 459.245 785.918 460.19 785.914Z" fill="#F13C03"/>
<path d="M463.984 773.573L489.748 780.519L629.605 674.407L557.854 658.693C552.729 657.597 547.392 658.087 542.552 660.097C537.712 662.108 533.599 665.544 530.759 669.949L463.984 773.573Z" fill="#263238"/>
<path opacity="0.2" d="M463.984 773.573L489.748 780.519L629.605 674.407L557.854 658.693C552.729 657.597 547.392 658.087 542.552 660.097C537.712 662.108 533.599 665.544 530.759 669.949L463.984 773.573Z" fill="black"/>
<path d="M387.528 796.653L372.995 788.352L377.971 780.027L391.444 757.415L405.977 765.716L391.075 790.692L387.528 796.653Z" fill="#E4897B"/>
<path d="M373.562 785.569H393.267C393.588 785.572 393.899 785.683 394.149 785.884C394.399 786.085 394.575 786.364 394.646 786.677L397.824 801.037C397.936 801.656 397.807 802.294 397.463 802.821C397.12 803.347 396.588 803.723 395.977 803.87H395.459C389.129 803.87 384.498 803.377 376.542 803.377C371.616 803.377 356.837 803.895 350.088 803.895C343.339 803.895 342.428 797.195 345.162 796.505C357.478 793.796 366.961 790.052 370.951 786.48C371.684 785.873 372.611 785.549 373.562 785.569Z" fill="#F13C03"/>
<path d="M663.35 730.124L565.564 730.37C563.1 721.7 559.997 691.526 550.44 654.21C547.854 644.086 544.775 633.445 541.154 622.534C538.146 612.665 534.493 603.005 530.218 593.616C539.065 588.268 548.788 584.525 558.938 582.557C602.215 575.168 641.921 594.232 641.921 594.232C641.921 594.232 659.089 642.017 663.35 730.124Z" fill="#37474F"/>
<path opacity="0.2" d="M550.44 654.21C547.854 644.086 544.775 633.445 541.154 622.534L547.977 619.775C547.977 619.775 558.716 643.988 550.44 654.21Z" fill="black"/>
<path d="M507.655 670.959L519.01 676.329L523.345 657.215C523.345 657.215 514.281 654.037 507.483 658.668L507.655 670.959Z" fill="#E4897B"/>
<path d="M535.292 682.807L535.809 665.392L523.346 657.215L519.01 676.329L535.292 682.807Z" fill="#E4897B"/>
<path d="M543.051 623.544C524.158 633.766 502.581 643.249 486.152 656.623C485.783 656.944 485.906 657.092 486.324 655.663C486.403 654.754 486.285 653.838 485.98 652.978C485.707 652.041 485.103 651.236 484.28 650.712C483.96 650.589 484.157 650.884 484.6 651.18C485.216 651.564 485.867 651.886 486.546 652.141C494.133 655.023 504.65 655.983 513.148 657.067L514.429 669.752C511.744 670.516 509.232 671.033 506.596 671.526C496.744 673.225 486.522 674.432 476.152 671.008C471.695 669.668 467.935 666.646 465.668 662.582C463.402 658.517 462.806 653.73 464.008 649.234C469.083 631.229 514.995 608.765 531.843 600.415L543.051 623.568V623.544Z" fill="#DC897C"/>
<path d="M560.958 709.556L556.573 720.788C556.573 720.788 504.182 656.057 475.29 652.362C446.397 648.668 379.227 771.677 379.227 771.677L404.696 779.386L476.373 714.36C505.931 765.938 541.277 803.772 583.298 803.772H624.334C670.222 803.772 670.74 752.587 661.675 709.187L560.958 709.556Z" fill="#263238"/>
<path d="M530.218 593.616C513.788 599.626 494.477 617.854 494.477 617.854C494.477 617.854 510.734 646.032 512.36 644.948C513.985 643.864 547.336 634.307 547.336 634.307C547.336 634.307 554.135 625.489 548.913 610.563C547.555 606.348 545.113 602.564 541.832 599.589C538.55 596.615 534.545 594.555 530.218 593.616Z" fill="#37474F"/>
<path d="M695.199 778.179L713.056 779.066L703.622 796.505C703.622 796.505 687.735 794.756 688.991 786.653L695.199 778.179Z" fill="#E4897B"/>
<path d="M727.687 789.017L714.51 801.259L703.622 796.505L713.056 779.066L727.687 789.017Z" fill="#E4897B"/>
<path d="M141.756 601.548C153.727 613.617 165.525 627.14 179.861 636.278C179.861 636.278 180.748 636.746 180.821 636.82C180.436 636.677 180.026 636.61 179.614 636.623C179.245 636.623 179.836 636.623 180.477 636.623C196.832 631.992 212.029 621.327 227.079 613.125C228.244 612.423 229.626 612.174 230.963 612.425C232.299 612.676 233.497 613.41 234.327 614.487C235.158 615.564 235.563 616.909 235.467 618.266C235.37 619.622 234.778 620.896 233.804 621.844C222.079 632.706 190.477 661.747 173.875 655.663C163.727 651.944 155.254 644.948 147.273 638.224C139.478 631.467 132.131 624.21 125.278 616.499C115.893 605.341 131.559 591.129 141.756 601.572V601.548Z" fill="#E9B376"/>
<path d="M162.348 618.593C160.254 634.258 147.569 649.628 147.569 649.628L144.909 647.806L131.953 639.209C131.953 639.209 131.706 638.47 131.337 637.165C130.967 635.859 130.499 634.332 129.933 632.238C126.953 621.795 121.583 602.262 120.918 594.158C137.002 593.789 144.244 601.449 162.348 618.593Z" fill="#37474F"/>
<path opacity="0.7" d="M162.348 618.593C160.254 634.258 147.569 649.628 147.569 649.628L144.909 647.806L131.953 639.209C131.953 639.209 131.706 638.47 131.337 637.165C130.967 635.859 130.499 634.332 129.933 632.238C126.953 621.795 121.583 602.262 120.918 594.158C137.002 593.789 144.244 601.449 162.348 618.593Z" fill="white"/>
<path opacity="0.2" d="M144.909 647.806L131.953 639.209C131.953 639.209 131.706 638.47 131.337 637.165C131.817 633.199 132.541 629.267 133.504 625.391C136.918 628.076 139.706 631.472 141.675 635.342C143.645 639.213 144.748 643.466 144.909 647.806Z" fill="black"/>
<path d="M129.145 695.837L140.204 715.197C169.762 708.3 264.79 693.817 276.44 726.404C290.948 766.874 186.191 799.165 128.233 801.136C70.2757 803.106 19.7075 789.313 56.359 704.803L129.145 695.837Z" fill="#263238"/>
<path opacity="0.2" d="M129.145 695.837L140.204 715.197C169.762 708.3 264.79 693.817 276.44 726.404C290.948 766.874 186.191 799.165 128.233 801.136C70.2757 803.106 19.7075 789.313 56.359 704.803L129.145 695.837Z" fill="black"/>
<path d="M259.666 783.623C259.6 783.664 259.523 783.686 259.445 783.686C259.366 783.686 259.29 783.664 259.223 783.623C259.188 783.568 259.169 783.504 259.169 783.438C259.169 783.373 259.188 783.309 259.223 783.253C259.42 782.613 261.341 777.046 263.287 776.455C263.491 776.405 263.705 776.409 263.908 776.465C264.11 776.521 264.295 776.628 264.445 776.775C264.712 777.001 264.916 777.292 265.037 777.62C265.158 777.948 265.191 778.302 265.135 778.647C264.817 779.695 264.179 780.616 263.312 781.283C262.18 782.186 260.959 782.971 259.666 783.623ZM260.159 782.564C261.969 781.777 263.431 780.359 264.272 778.574C264.327 778.341 264.312 778.098 264.229 777.874C264.146 777.651 263.998 777.457 263.804 777.317C263.75 777.249 263.676 777.199 263.593 777.173C263.51 777.146 263.42 777.145 263.336 777.169C263.172 777.23 263.022 777.322 262.893 777.44C261.678 778.968 260.751 780.704 260.159 782.564Z" fill="#263238"/>
<path d="M259.543 783.697C259.495 783.737 259.434 783.759 259.371 783.759C259.308 783.759 259.247 783.737 259.198 783.697C259.001 783.549 256.341 780.175 256.735 777.884C256.782 777.6 256.888 777.328 257.045 777.087C257.201 776.845 257.406 776.639 257.647 776.48C257.855 776.292 258.119 776.176 258.398 776.149C258.678 776.122 258.958 776.187 259.198 776.332C260.602 777.342 260.43 781.85 259.74 783.574V783.746L259.543 783.697ZM258.041 777.096C257.795 777.293 257.628 777.573 257.573 777.884C257.647 779.591 258.278 781.226 259.371 782.539C259.79 780.618 259.666 777.441 258.829 776.874C258.829 776.874 258.583 776.677 258.164 776.874V776.997L258.041 777.096Z" fill="#263238"/>
<path d="M157.766 793.131C157.804 793.069 157.859 793.02 157.925 792.989C157.991 792.958 158.064 792.948 158.136 792.958C158.202 792.963 158.265 792.99 158.314 793.034C158.363 793.079 158.396 793.139 158.407 793.205C158.555 793.87 159.564 799.683 158.16 801.136C158.002 801.277 157.81 801.374 157.602 801.418C157.395 801.461 157.18 801.449 156.978 801.382C156.631 801.325 156.307 801.173 156.042 800.942C155.777 800.712 155.581 800.412 155.476 800.077C155.232 799.019 155.345 797.911 155.796 796.924C156.319 795.594 156.979 794.323 157.766 793.131ZM157.766 794.313C156.567 795.875 155.965 797.814 156.067 799.781C156.134 800.018 156.272 800.229 156.46 800.387C156.649 800.545 156.881 800.643 157.126 800.668C157.195 800.714 157.277 800.739 157.36 800.739C157.443 800.739 157.525 800.714 157.594 800.668C157.705 800.538 157.789 800.387 157.84 800.225C158.21 798.271 158.21 796.266 157.84 794.313H157.766Z" fill="#263238"/>
<path d="M195.699 763.795L171.856 772.293L160.402 776.381L163.333 788.919L174.417 786.554L201.512 780.766L195.699 763.795Z" fill="#EBB376"/>
<path d="M166.461 789.51L164.442 774.731C164.414 774.536 164.349 774.348 164.248 774.179C164.148 774.01 164.014 773.862 163.856 773.745C163.698 773.628 163.518 773.544 163.326 773.498C163.135 773.451 162.936 773.443 162.742 773.475L155.353 774.706C155.353 774.706 145.5 775.618 143.456 778.179C137.692 785.569 141.288 818.427 145.13 819.585C146.534 820.004 148.012 818.082 148.628 816.752C150.574 812.516 153.998 801.456 155.673 797.958C157.594 793.845 163.062 791.85 165.328 791.136C165.685 791.053 165.998 790.841 166.208 790.541C166.417 790.24 166.507 789.873 166.461 789.51Z" fill="#37474F"/>
<path d="M157.816 793.131C157.87 793.093 157.934 793.072 158 793.072C158.067 793.072 158.131 793.093 158.185 793.131C158.407 793.131 162.397 794.855 163.111 797.047C163.198 797.322 163.23 797.612 163.205 797.899C163.179 798.187 163.097 798.466 162.964 798.722C162.885 798.995 162.715 799.232 162.481 799.394C162.248 799.555 161.966 799.631 161.683 799.609C159.983 799.412 157.939 795.372 157.717 793.549V793.131C157.75 793.124 157.783 793.124 157.816 793.131ZM162.348 798.18C162.446 797.876 162.446 797.548 162.348 797.244C161.88 795.84 159.663 794.609 158.53 794.042C159.072 795.939 160.722 798.648 161.732 798.747C161.732 798.747 162.028 798.747 162.249 798.328V798.18H162.348Z" fill="#263238"/>
<path opacity="0.2" d="M195.699 763.795L171.856 772.293L174.417 786.554L201.512 780.766L195.699 763.795Z" fill="black"/>
<path d="M178.654 788.697L185.501 789.19L180.92 765.593L173.136 769.879L178.654 788.697Z" fill="#37474F"/>
<path opacity="0.6" d="M178.654 788.697L185.501 789.19L180.92 765.593L173.136 769.879L178.654 788.697Z" fill="white"/>
<path opacity="0.2" d="M79.1676 697.068L114.883 736.676C114.883 736.676 154.293 735.789 202.325 759.238C202.325 759.238 253.78 737.981 258.509 720.32C264.716 697.191 140.278 715.271 140.278 715.271L79.1676 697.068Z" fill="black"/>
<path d="M128.775 712.906L55.9403 704.458C57.3353 696.936 58.1587 689.32 58.4034 681.674C58.6952 670.779 58.2673 659.876 57.1226 649.037C56.1127 638.667 54.6595 626.746 52.1963 612.755C51.7036 610.253 51.7768 607.673 52.4107 605.203C53.0445 602.733 54.223 600.436 55.8596 598.48C57.4962 596.525 59.5496 594.96 61.8693 593.901C64.189 592.842 66.7163 592.316 69.2659 592.36C72.197 592.36 75.2759 592.508 78.4288 592.705C89.5824 593.204 100.686 594.497 111.657 596.572C115.203 597.287 118.874 598.173 122.396 599.035C135.032 602.311 142.864 618.223 141.781 631.056C141.354 641.03 140.252 650.962 138.48 660.786C136.239 675.27 133.603 689.408 128.775 712.906Z" fill="#37474F"/>
<path opacity="0.7" d="M128.775 712.906L55.9403 704.458C57.3353 696.936 58.1587 689.32 58.4034 681.674C58.6952 670.779 58.2673 659.876 57.1226 649.037C56.1127 638.667 54.6595 626.746 52.1963 612.755C51.7036 610.253 51.7768 607.673 52.4107 605.203C53.0445 602.733 54.223 600.436 55.8596 598.48C57.4962 596.525 59.5496 594.96 61.8693 593.901C64.189 592.842 66.7163 592.316 69.2659 592.36C72.197 592.36 75.2759 592.508 78.4288 592.705C89.5824 593.204 100.686 594.497 111.657 596.572C115.203 597.287 118.874 598.173 122.396 599.035C135.032 602.311 142.864 618.223 141.781 631.056C141.354 641.03 140.252 650.962 138.48 660.786C136.239 675.27 133.603 689.408 128.775 712.906Z" fill="white"/>
<path opacity="0.2" d="M58.4527 681.698C58.7444 670.803 58.3166 659.901 57.1718 649.062C66.2854 638.298 74.9064 629.357 74.9064 629.357C74.9064 629.357 89.1926 666.131 58.4527 681.698Z" fill="black"/>
<path d="M69.9554 625.366C70.7929 640.958 70.6451 665.22 73.4777 680.122L72.7388 678.299C72.2461 677.585 72.5417 678.299 73.059 678.693C73.7253 679.353 74.4328 679.97 75.1773 680.541C85.0298 687.93 96.8529 693.62 107.962 699.507L121.977 706.724C123.192 707.333 124.141 708.368 124.643 709.631C125.145 710.894 125.165 712.298 124.7 713.575C124.234 714.852 123.316 715.913 122.119 716.558C120.922 717.202 119.531 717.384 118.208 717.069C112.863 715.788 107.74 714.261 102.543 712.685C87.7639 707.758 72.591 703.029 59.8812 693.398C57.3988 691.471 55.4699 688.922 54.2899 686.009C48.6 665.811 48.1566 646.303 47.7379 625.711C48.2552 611.351 69.0441 611.08 69.9062 625.44L69.9554 625.366Z" fill="#E9B376"/>
<path d="M141.633 705.837L137.199 702.61C136.378 702.015 135.426 701.627 134.423 701.477C133.419 701.326 132.395 701.42 131.436 701.748L122.322 704.803C120.526 705.411 118.9 706.438 117.581 707.801C116.261 709.163 115.286 710.82 114.735 712.635L114.046 714.926C121.041 720.739 132.889 721.897 132.889 721.897L136.214 722.586C136.895 722.751 137.602 722.778 138.294 722.667C138.986 722.557 139.649 722.31 140.244 721.941C140.84 721.572 141.356 721.089 141.764 720.519C142.171 719.949 142.462 719.304 142.618 718.621L144.096 712.019C144.334 710.861 144.227 709.658 143.789 708.56C143.352 707.461 142.602 706.515 141.633 705.837Z" fill="#EBB376"/>
<path d="M63.3051 593.37C49.0681 598.469 44.9793 610.883 44.6837 636.771C52.0731 643.495 74.5123 643.864 74.5123 643.864C74.5123 643.864 78.4041 604.602 63.3051 593.37Z" fill="#37474F"/>
<path d="M235.774 720.099V725.961C235.774 727.463 234.001 728.079 232.498 728.079H115.351C113.824 728.079 112.026 727.463 112.026 725.961V720.099H235.774Z" fill="#263238"/>
<path opacity="0.4" d="M235.774 720.099V725.961C235.774 727.463 234.001 728.079 232.498 728.079H115.351C113.824 728.079 112.026 727.463 112.026 725.961V720.099H235.774Z" fill="white"/>
<path opacity="0.2" d="M235.774 720.099V725.961C235.774 727.463 234.001 728.079 232.498 728.079H155.156C153.653 728.079 151.855 727.463 151.855 725.961V720.099H235.774Z" fill="black"/>
<path d="M255.405 659.161L241.439 722.488C241.181 723.5 240.598 724.4 239.779 725.05C238.961 725.699 237.952 726.063 236.907 726.084H160.55C160.075 726.071 159.609 725.948 159.189 725.725C158.769 725.502 158.407 725.185 158.13 724.799C157.853 724.412 157.67 723.967 157.594 723.498C157.518 723.028 157.552 722.548 157.693 722.094L171.634 659.259C171.919 658.3 172.525 657.469 173.35 656.904C174.175 656.339 175.169 656.075 176.166 656.156H252.523C254.568 656.156 255.75 657.091 255.405 659.161Z" fill="#263238"/>
<path opacity="0.4" d="M255.405 659.161L241.439 722.488C241.181 723.5 240.598 724.4 239.779 725.05C238.961 725.699 237.952 726.063 236.907 726.084H163.21C162.734 726.07 162.269 725.947 161.848 725.724C161.428 725.501 161.064 725.185 160.786 724.799C160.507 724.413 160.321 723.969 160.242 723.5C160.162 723.031 160.192 722.55 160.328 722.094L174.294 659.259C174.579 658.3 175.185 657.469 176.01 656.904C176.835 656.339 177.829 656.075 178.826 656.156H252.523C254.568 656.156 255.75 657.091 255.405 659.161Z" fill="white"/>
<path opacity="0.2" d="M217.793 691.329C217.549 693.897 216.404 696.296 214.56 698.1C212.715 699.903 210.292 700.995 207.719 701.182C203.458 701.182 200.921 696.773 202.152 691.329C203.384 685.886 207.596 681.674 211.758 681.477C210.551 686.896 213.162 691.329 217.399 691.329H217.793Z" fill="black"/>
<path d="M229.887 623.864L246.292 624.283L238.902 607.681C238.902 607.681 224.271 608.198 224.838 615.735L229.887 623.864Z" fill="#EBB376"/>
<path d="M260.356 616.203L249.124 604.085L238.853 607.681L246.292 624.283L260.356 616.203Z" fill="#EBB376"/>
<path d="M74.8325 592.533C73.1576 592.41 78.2809 612.977 103.159 618.051C128.036 623.125 126.115 600.242 124.169 594.503C124.169 594.503 91.4587 593.616 74.8325 592.533Z" fill="#EBB376"/>
<path d="M81.6554 512.111C81.6554 512.111 95.9169 496.298 122.002 504.451C148.086 512.604 146.978 559.157 133.726 576.054C112.973 575.326 92.2112 577.263 71.9506 581.818C71.9506 581.818 59.3886 548.048 65.6203 528.196C71.8521 508.343 81.6554 512.111 81.6554 512.111Z" fill="#263238"/>
<path d="M86.9019 558.541C88.5522 569.527 89.8331 589.429 81.9756 595.735C81.9756 595.735 92.2223 595.39 112.1 611.105C119.317 602.927 115.056 599.553 115.056 599.553C103.306 595.341 103.971 586.473 106.361 578.37L86.9019 558.541Z" fill="#EBB376"/>
<path opacity="0.2" d="M94.8824 566.645L106.484 578.37C105.898 580.268 105.478 582.212 105.228 584.183C100.72 583 94.6854 577.261 94.4144 572.409C94.2231 570.475 94.3817 568.523 94.8824 566.645Z" fill="black"/>
<path d="M80.2761 536.127C81.5077 553.689 81.6801 561.128 90.5227 570.611C103.848 584.7 125.007 580.463 128.825 563.221C132.396 547.654 129.761 521.545 112.716 513.835C109.12 512.056 105.115 511.268 101.113 511.553C97.1117 511.838 93.2587 513.187 89.9523 515.459C86.6459 517.731 84.0059 520.844 82.3048 524.478C80.6038 528.111 79.9035 532.132 80.2761 536.127Z" fill="#EBB376"/>
<path d="M101.902 541.521C101.902 543.024 102.715 544.231 103.676 544.28C104.637 544.329 105.326 543.147 105.302 541.669C105.277 540.191 104.464 538.959 103.528 538.935C102.592 538.91 101.853 540.043 101.902 541.521Z" fill="#263238"/>
<path d="M120.277 541.718C120.277 543.196 121.115 544.428 122.051 544.477C122.987 544.526 123.701 543.344 123.677 541.866C123.652 540.388 122.839 539.157 121.903 539.132C120.967 539.107 120.277 540.24 120.277 541.718Z" fill="#263238"/>
<path d="M121.411 539.181L124.834 538.294C124.834 538.294 123.135 541.004 121.411 539.181Z" fill="#263238"/>
<path d="M114.711 544.748C116.088 548.179 117.892 551.423 120.08 554.403C119.343 554.906 118.501 555.235 117.618 555.368C116.735 555.5 115.834 555.431 114.982 555.167L114.711 544.748Z" fill="#D58745"/>
<path d="M98.9466 532.161C99.0575 532.179 99.1711 532.171 99.2781 532.136C99.3851 532.102 99.4825 532.043 99.5624 531.964C100.331 531.253 101.266 530.745 102.281 530.486C103.296 530.228 104.36 530.228 105.375 530.486C105.479 530.52 105.588 530.532 105.696 530.521C105.805 530.51 105.909 530.477 106.004 530.424C106.099 530.371 106.182 530.298 106.248 530.212C106.313 530.125 106.36 530.025 106.385 529.92C106.447 529.691 106.417 529.448 106.302 529.241C106.187 529.034 105.996 528.88 105.77 528.811C104.484 528.467 103.132 528.453 101.84 528.772C100.548 529.09 99.3578 529.731 98.3801 530.634C98.2221 530.795 98.1337 531.012 98.1337 531.237C98.1337 531.463 98.2221 531.68 98.3801 531.841C98.5215 532.016 98.724 532.13 98.9466 532.161Z" fill="#263238"/>
<path d="M127.421 532.309C127.619 532.385 127.838 532.385 128.036 532.309C128.132 532.249 128.214 532.17 128.279 532.078C128.343 531.985 128.388 531.881 128.411 531.77C128.434 531.66 128.435 531.546 128.413 531.435C128.39 531.325 128.346 531.22 128.283 531.127C127.606 529.912 126.658 528.869 125.513 528.078C124.369 527.288 123.058 526.772 121.681 526.57C121.572 526.563 121.462 526.579 121.359 526.617C121.256 526.655 121.162 526.714 121.083 526.791C121.004 526.867 120.942 526.96 120.901 527.062C120.86 527.163 120.84 527.273 120.844 527.383C120.848 527.613 120.935 527.835 121.089 528.006C121.242 528.178 121.453 528.289 121.681 528.319C122.77 528.485 123.806 528.9 124.707 529.532C125.609 530.165 126.352 530.997 126.879 531.964C126.942 532.054 127.022 532.131 127.115 532.191C127.208 532.25 127.312 532.29 127.421 532.309Z" fill="#263238"/>
<path d="M103.035 538.984L106.459 538.122C106.459 538.122 104.833 540.807 103.035 538.984Z" fill="#263238"/>
<path d="M83.9215 546.669C83.9215 546.669 97.4687 536.028 94.3898 519.377C94.3898 519.377 118.627 509.796 128.184 534.156C128.184 534.156 130.204 513.269 107.42 509.18C84.6358 505.091 57.6644 535.979 83.4781 559.403L83.9215 546.669Z" fill="#263238"/>
<path d="M74.6847 550.315C75.5635 551.944 76.7559 553.383 78.1931 554.55C79.6304 555.717 81.2842 556.588 83.0594 557.113C87.6654 558.369 89.7345 553.837 88.2566 549.157C86.9019 544.945 82.887 539.304 78.404 540.019C73.9211 540.733 72.394 546.152 74.6847 550.315Z" fill="#EBB376"/>
<path d="M130.844 544.501C130.733 544.501 130.626 544.465 130.537 544.398C130.448 544.332 130.383 544.238 130.352 544.132C121.657 513.515 92.9612 519.821 92.6657 519.87C92.6026 519.885 92.5373 519.887 92.4734 519.876C92.4096 519.865 92.3485 519.842 92.2936 519.808C92.2387 519.773 92.1911 519.729 92.1535 519.676C92.1159 519.623 92.0891 519.564 92.0745 519.501C92.06 519.438 92.058 519.372 92.0687 519.308C92.0793 519.244 92.1025 519.183 92.1368 519.129C92.1711 519.074 92.2159 519.026 92.2686 518.988C92.3213 518.951 92.3809 518.924 92.444 518.909C92.7396 518.909 122.371 512.333 131.312 543.861C131.331 543.924 131.337 543.99 131.33 544.056C131.322 544.121 131.302 544.184 131.27 544.242C131.238 544.299 131.194 544.349 131.142 544.39C131.09 544.43 131.031 544.46 130.967 544.477L130.844 544.501Z" fill="#263238"/>
<path d="M115.844 560.266C114.984 562.279 114.276 564.354 113.725 566.473H112.568C107.371 565.906 105.178 564.01 104.242 561.916C103.823 560.921 103.646 559.84 103.725 558.763C103.763 558.151 103.879 557.547 104.07 556.965C107.135 558.739 110.545 559.831 114.07 560.167C115.154 560.216 115.844 560.266 115.844 560.266Z" fill="#263238"/>
<path d="M114.07 560.069L113.405 561.867C108.479 561.349 105.104 560.315 103.725 558.665C103.763 558.053 103.879 557.449 104.07 556.866C107.134 558.64 110.545 559.732 114.07 560.069Z" fill="white"/>
<path d="M112.568 566.374C107.371 565.808 105.178 563.911 104.242 561.817C106.217 562.073 108.133 562.665 109.908 563.566C111.064 564.204 111.993 565.185 112.568 566.374Z" fill="#DE5753"/>
<path d="M111.73 642.337C111.652 642.342 111.574 642.329 111.501 642.299C111.429 642.27 111.364 642.224 111.312 642.165C98.2237 628.132 88.3551 611.413 82.3944 593.173C82.3567 593.023 82.3795 592.864 82.4578 592.73C82.5361 592.597 82.6637 592.499 82.8131 592.459C82.8859 592.44 82.9616 592.437 83.0359 592.448C83.1101 592.459 83.1814 592.485 83.2456 592.524C83.3097 592.563 83.3655 592.614 83.4097 592.675C83.4538 592.736 83.4855 592.805 83.5028 592.878C89.3045 610.617 98.8465 626.904 111.484 640.638C112.962 635.712 119.095 612.312 109.858 594.38C109.813 594.247 109.817 594.102 109.87 593.971C109.922 593.84 110.019 593.732 110.144 593.667C110.269 593.602 110.413 593.583 110.55 593.614C110.687 593.646 110.809 593.725 110.893 593.838C121.46 614.356 112.371 641.672 112.272 641.943C112.24 642.038 112.185 642.124 112.112 642.192C112.039 642.261 111.95 642.311 111.854 642.337H111.73Z" fill="#263238"/>
<path d="M112.494 641.303L114.366 643.766C114.534 643.976 114.625 644.236 114.625 644.505C114.625 644.773 114.534 645.034 114.366 645.244L112.469 647.707C112.356 647.842 112.215 647.95 112.055 648.024C111.896 648.098 111.722 648.137 111.546 648.137C111.37 648.137 111.196 648.098 111.036 648.024C110.877 647.95 110.735 647.842 110.622 647.707L108.849 645.687C108.693 645.482 108.608 645.231 108.608 644.973C108.608 644.715 108.693 644.464 108.849 644.259L110.425 641.401C110.528 641.223 110.674 641.073 110.85 640.966C111.027 640.859 111.227 640.797 111.433 640.788C111.638 640.778 111.844 640.82 112.029 640.91C112.214 641 112.374 641.135 112.494 641.303Z" fill="white"/>
<path opacity="0.7" d="M63.3051 593.37C49.0681 598.469 44.9793 610.883 44.6837 636.771C52.0731 643.495 74.5123 643.864 74.5123 643.864C74.5123 643.864 78.4041 604.602 63.3051 593.37Z" fill="white"/>
<path d="M212.251 790.938L237.227 795.052L249.223 797.022L252.72 784.633L241.883 781.332L215.379 773.278L212.251 790.938Z" fill="#EBB376"/>
<path d="M250.282 782.613L244.888 796.505C244.817 796.691 244.784 796.889 244.79 797.088C244.796 797.287 244.842 797.482 244.924 797.663C245.007 797.844 245.124 798.007 245.27 798.142C245.416 798.278 245.588 798.383 245.774 798.451L252.745 800.914C252.745 800.914 261.883 804.904 264.839 803.624C273.485 799.904 286.219 769.435 283.411 766.677C282.377 765.617 280.16 766.677 278.977 767.465C275.233 770.223 266.883 778.229 263.731 780.495C260.036 783.155 254.395 782.317 251.957 781.8C251.627 781.713 251.276 781.747 250.969 781.896C250.662 782.045 250.418 782.3 250.282 782.613Z" fill="#37474F"/>
<path opacity="0.2" d="M212.251 790.938L237.227 795.052L241.883 781.332L215.379 773.278L212.251 790.938Z" fill="black"/>
<path d="M237.572 778.746C237.572 778.746 135.746 721.503 100.572 723.128C65.3987 724.754 60.3739 755.74 74.8572 775.125C89.3404 794.51 116.139 799.239 116.139 799.239C116.139 799.239 97.9368 773.426 100.572 766.233C103.208 759.041 113.504 769.09 113.504 769.09C113.504 769.09 177.545 789.781 233.631 794.535L237.572 778.746Z" fill="#263238"/>
<path d="M239.222 777.17L233.459 773.302L226.045 796.037H234.936L239.222 777.17Z" fill="#37474F"/>
<path opacity="0.6" d="M239.222 777.17L233.459 773.302L226.045 796.037H234.936L239.222 777.17Z" fill="white"/>
</svg>
