<svg width="1245" height="820" viewBox="0 0 1245 820" fill="none" xmlns="http://www.w3.org/2000/svg">
<path d="M417.227 391.705L725.742 391.705V291.362L417.227 291.362V391.705Z" fill="#C7C7C7"/>
<path d="M725.742 291.381V391.724H1206.64V381.933H1196.28V301.172H1206.64V291.381H725.742Z" fill="#A6A6A6"/>
<path d="M738.373 381.3L1196.82 381.3V301.786L738.373 301.786V381.3Z" fill="white"/>
<path d="M738.354 381.3C852.634 380.974 1082.57 380.57 1196.82 380.436L1195.95 381.3V301.786C1126.4 304.531 924.661 301.441 853.075 302.343L738.45 302.074C738.776 300.366 738.45 381.665 738.45 381.3H738.354ZM738.354 381.3C738.354 381.031 738.085 301.767 738.085 301.517C738.085 301.268 852.902 301.268 852.979 301.229L1196.82 300.826H1197.78V301.786L1197.68 381.3V382.164H1196.82C1082.56 382.049 852.595 381.645 738.354 381.3Z" fill="#DBDBDB"/>
<path d="M1032.28 363.716C1067.33 364.176 1102.39 364.496 1137.44 364.675L1196.82 364.829V362.621L1137.44 362.775C1102.39 362.903 1067.33 363.216 1032.28 363.716Z" fill="#DBDBDB"/>
<path d="M738.354 344.922V346.957L814.892 347.168L925.831 346.88C960.885 346.713 995.939 346.4 1030.99 345.939C995.939 345.478 960.885 345.165 925.831 344.998L814.892 344.711L738.354 344.922Z" fill="#DBDBDB"/>
<path d="M738.354 315.109V317.566L847.776 317.278C882.856 317.112 917.909 316.798 952.937 316.337C917.884 315.877 882.83 315.563 847.776 315.397L738.354 315.109Z" fill="#DBDBDB"/>
<path d="M738.354 363.927V365.962H767.744C802.798 365.808 837.858 365.494 872.924 365.021C837.845 364.586 802.785 364.272 767.744 364.08L738.354 363.927Z" fill="#DBDBDB"/>
<path d="M1028.77 329.66C1063.83 330.095 1098.89 330.409 1133.95 330.601L1196.82 330.773V328.547L1133.95 328.719C1098.87 328.873 1063.81 329.187 1028.77 329.66Z" fill="#DBDBDB"/>
<path d="M1166.31 337.819C1142.19 337.691 1118.04 337.595 1093.88 337.531H1017.5H943.07C918.921 337.531 894.777 337.627 870.64 337.819C894.79 337.947 918.933 338.043 943.07 338.107H1017.5H1093.88C1118.03 338.043 1142.17 337.947 1166.31 337.819Z" fill="#DBDBDB"/>
<path d="M1136.1 216.801H827.581V291.381H1136.1V216.801Z" fill="#EBEBEB"/>
<path d="M827.562 291.381V216.801H346.659V224.077H357.025V284.106H346.659V291.381H827.562Z" fill="#DBDBDB"/>
<path d="M814.95 224.538H356.507V283.645H814.95V224.538Z" fill="white"/>
<path d="M814.95 224.538C700.67 224.883 470.729 225.286 356.507 225.421L357.39 224.538V283.645C351.324 280.996 587.024 283.818 585.661 282.973C642.753 282.973 757.82 283.242 814.892 283.434C814.566 284.701 814.892 224.288 814.892 224.538H814.95ZM814.95 224.538L815.161 283.645V283.856H814.95C757.762 284.048 642.887 284.298 585.719 284.317L356.507 284.605H355.547V283.645V224.538V223.654H356.43C470.691 223.789 700.651 224.192 814.873 224.538H814.95Z" fill="#DBDBDB"/>
<path d="M521.045 237.611C485.991 237.265 450.931 237.028 415.864 236.9L356.488 236.785V238.417L415.864 238.321C450.88 238.231 485.94 237.995 521.045 237.611Z" fill="#DBDBDB"/>
<path d="M814.95 251.624V250.108L738.431 249.954L627.492 250.165C592.438 250.293 557.378 250.524 522.312 250.857C557.365 251.202 592.425 251.439 627.492 251.567L738.431 251.778L814.95 251.624Z" fill="#DBDBDB"/>
<path d="M814.95 273.739V271.82L705.527 272.031C670.461 272.159 635.401 272.396 600.347 272.741C635.401 273.061 670.461 273.291 705.527 273.432L814.95 273.739Z" fill="#DBDBDB"/>
<path d="M814.95 237.457V235.941H785.559C750.506 236.056 715.452 236.292 680.398 236.651C715.452 236.984 750.506 237.214 785.559 237.342L814.95 237.457Z" fill="#DBDBDB"/>
<path d="M524.558 262.931C489.491 262.612 454.425 262.375 419.358 262.221L356.488 262.106V263.757L419.358 263.623C454.438 263.507 489.504 263.277 524.558 262.931Z" fill="#DBDBDB"/>
<path d="M386.992 256.865C411.142 256.968 435.286 257.038 459.423 257.076H535.826H610.234C634.384 257.076 658.527 257.006 682.664 256.865C658.527 256.75 634.384 256.68 610.234 256.654H535.826H459.423C435.273 256.692 411.129 256.763 386.992 256.865Z" fill="#DBDBDB"/>
<path d="M539.223 66.7001H111.131V391.724H539.223V66.7001Z" fill="#EBEBEB"/>
<path d="M701.918 66.7001H539.224V391.724H701.918V66.7001Z" fill="#DBDBDB"/>
<path d="M111.131 227.955H539.223L204.908 236.382L111.131 227.955Z" fill="#DBDBDB"/>
<path d="M539.223 352.159H111.131L445.465 360.586L539.223 352.159Z" fill="#DBDBDB"/>
<path d="M111.131 136.404H382.307L141.251 143.277L111.131 136.404Z" fill="#DBDBDB"/>
<path d="M539.224 303.936H268.067L509.104 310.809L539.224 303.936Z" fill="#DBDBDB"/>
<path d="M575.161 86.9145H304.003L545.06 93.8062L575.161 86.9145Z" fill="#DBDBDB"/>
<path d="M296.767 107.513H602.613L551.626 111.64L296.767 107.513Z" fill="#DBDBDB"/>
<path d="M152.751 263.066H458.597L407.61 267.193L152.751 263.066Z" fill="#DBDBDB"/>
<path d="M340.823 167.58H539.224L574.681 178.599L340.823 167.58Z" fill="#EBEBEB"/>
<path d="M388.643 277.406H587.044L622.481 288.425L388.643 277.406Z" fill="#EBEBEB"/>
<path d="M345.008 325.802H543.409L578.865 336.821L345.008 325.802Z" fill="#EBEBEB"/>
<path d="M56.4783 167.58H254.879L290.316 178.599L56.4783 167.58Z" fill="#DBDBDB"/>
<path d="M311.049 104.077H112.667L77.2104 115.076L311.049 104.077Z" fill="#EBEBEB"/>
<path d="M321.78 298.427H123.379L87.9221 309.446L321.78 298.427Z" fill="#EBEBEB"/>
<path d="M311.049 314.802H112.667L77.2104 325.802L311.049 314.802Z" fill="#DBDBDB"/>
<path d="M539.224 277.406H698.539L733.996 288.425L539.224 277.406Z" fill="#DBDBDB"/>
<path d="M594.837 227.955H718.389L701.918 218.951L594.837 227.955Z" fill="#DBDBDB"/>
<path d="M18.1416 391.762C411.142 390.591 851.981 390.572 1244.98 391.762C851.981 392.952 411.142 392.933 18.1416 391.762Z" fill="#263238"/>
<path d="M809.038 663.534L999.683 616.674L1241.91 650.422L1043.03 700.757L809.038 663.534Z" fill="#DBDBDB"/>
<path d="M809.038 663.534L999.625 616.463C999.625 616.463 1242.03 649.981 1242.03 649.961L1244.46 650.288L1242.03 650.921L1043.03 701.025C1043.03 701.025 809.114 663.514 809.038 663.534ZM809.038 663.534C809.038 663.534 1043.39 700.526 1042.97 700.507L1241.79 649.961V650.902C1241.79 650.902 999.375 616.866 999.74 616.885L809.038 663.534Z" fill="#DBDBDB"/>
<path d="M1035.45 687.703C1047.18 684.094 1059.27 680.734 1071.4 677.413C1083.53 674.092 1095.86 670.905 1108.22 667.815C1120.58 664.724 1133.18 661.595 1145.81 658.658L1164.85 654.261C1171.34 652.879 1177.7 651.42 1184.26 650.115C1178.5 651.939 1172.4 653.609 1166.47 655.375L1148.32 660.385C1136.23 663.745 1123.87 666.912 1111.5 669.984C1099.14 673.055 1086.55 676.204 1073.92 679.141C1061.29 682.078 1048.54 685.015 1035.45 687.703Z" fill="#C7C7C7"/>
<path d="M1066.95 668.64C1080.39 664.033 1094.9 660.078 1109.6 656.316C1124.31 652.553 1139.47 649.002 1155.64 646.237C1142.2 650.864 1127.71 654.799 1112.98 658.562C1098.26 662.324 1083.02 665.799 1066.95 668.64Z" fill="#C7C7C7"/>
<path d="M978.009 680.081C989.738 676.472 1001.83 673.113 1013.97 669.792C1026.1 666.471 1038.42 663.284 1050.78 660.193C1063.15 657.103 1075.74 653.974 1088.35 651.036L1107.42 646.66C1113.89 645.277 1120.26 643.818 1126.82 642.494C1121.06 644.317 1114.96 646.007 1109.03 647.754L1090.89 652.783C1078.77 656.124 1066.43 659.291 1054.07 662.382C1041.7 665.473 1029.11 668.602 1016.48 671.539C1003.85 674.476 991.101 677.394 978.009 680.081Z" fill="#C7C7C7"/>
<path d="M970.676 670.848C990.622 664.589 1011.57 659.022 1032.76 653.57C1053.95 648.118 1075.57 643.05 1098.03 638.578C1078.08 644.836 1057.14 650.403 1035.96 655.855C1014.79 661.307 993.213 666.375 970.676 670.848Z" fill="#C7C7C7"/>
<path d="M995.593 653.474C1006.59 649.481 1018.63 646.16 1030.86 643.012C1043.09 639.864 1055.81 637.023 1069.39 634.796C1058.39 638.808 1046.35 642.11 1034.14 645.258C1021.93 648.406 1009.18 651.248 995.593 653.474Z" fill="#C7C7C7"/>
<path d="M21.2131 466.746L285.747 416.68L541.009 491.26L277.8 543.13L21.2131 466.746Z" fill="#EBEBEB"/>
<path d="M21.2132 466.746L285.766 416.43C285.766 416.43 541.086 490.819 541.086 490.799L543.006 491.356L541.086 491.74L277.8 543.418C277.704 543.418 21.2899 466.803 21.2132 466.803V466.746ZM21.2132 466.746L277.876 542.881C277.243 543.015 541.086 490.742 540.875 490.799V491.721L285.69 416.853C286.189 416.738 21.1364 466.765 21.2132 466.765V466.746Z" fill="#DBDBDB"/>
<path d="M274.095 527.926C291.372 523.933 308.784 520.248 326.272 516.542C343.761 512.837 361.384 509.305 379.026 505.811C396.668 502.318 414.406 498.9 432.259 495.656L459.039 490.78C468.042 489.244 476.968 487.632 486.049 486.173C477.448 488.189 468.771 490.012 460.056 491.932L433.833 497.557C416.364 501.281 398.722 504.794 381.099 508.288C363.476 511.782 345.719 515.199 327.866 518.443C310.013 521.687 292.179 524.97 274.095 527.926Z" fill="#DBDBDB"/>
<path d="M341.898 501.377C360.75 496.52 380.292 492.412 399.892 488.496C419.493 484.58 439.457 481.009 459.96 478.11C441.108 482.967 421.566 487.075 401.966 490.991C382.366 494.908 362.401 498.478 341.898 501.377Z" fill="#DBDBDB"/>
<path d="M248.006 506.675C263.076 503.105 278.357 499.822 293.676 496.559C308.995 493.295 324.391 490.204 339.902 487.114C355.413 484.023 370.943 481.067 386.627 478.245L410.144 474.021C418.072 472.697 425.904 471.295 433.89 470.048C426.384 471.852 418.744 473.503 411.161 475.231L388.221 480.164C372.863 483.447 357.506 486.519 341.994 489.609C326.483 492.7 310.972 495.637 295.288 498.478C279.604 501.319 263.94 504.141 248.006 506.675Z" fill="#DBDBDB"/>
<path d="M235.701 495.906C249.619 492.566 263.748 489.494 277.934 486.461C292.121 483.428 306.404 480.548 320.725 477.707C335.045 474.866 349.52 472.102 363.994 469.51L385.783 465.671C393.135 464.461 400.411 463.175 407.821 462.042C400.891 463.751 393.807 465.267 386.82 466.899L365.588 471.487C351.44 474.54 337.119 477.4 322.798 480.241C308.477 483.082 294.002 485.827 279.528 488.438C265.053 491.049 250.483 493.506 235.701 495.906Z" fill="#DBDBDB"/>
<path d="M169.798 495.695C187.075 491.702 204.487 488.016 221.975 484.292C239.464 480.567 257.086 477.074 274.728 473.561C292.37 470.047 310.108 466.669 327.942 463.405L354.818 458.529C363.822 457.013 372.748 455.381 381.828 453.922C373.228 455.957 364.551 457.761 355.836 459.681L329.632 465.248C312.163 468.953 294.52 472.466 276.898 475.979C259.275 479.492 241.518 482.871 223.665 486.135C205.811 489.398 187.881 492.719 169.798 495.695Z" fill="#DBDBDB"/>
<path d="M167.61 482.929C182.852 479.32 198.325 475.999 213.817 472.697C229.309 469.395 244.954 466.266 260.6 463.098C276.245 459.931 291.987 456.974 307.843 454.114L331.648 449.833C339.653 448.489 347.6 447.069 355.663 445.821C347.984 447.645 340.305 449.296 332.627 451.062L309.418 456.034C293.945 459.355 278.299 462.465 262.654 465.632C247.008 468.8 231.248 471.756 215.391 474.616C199.534 477.477 183.716 480.356 167.61 482.929Z" fill="#DBDBDB"/>
<path d="M117.64 479.569C134.917 475.576 152.329 471.89 169.836 468.185C187.344 464.48 204.947 460.871 222.666 457.454C240.385 454.037 258.046 450.543 275.899 447.299L302.679 442.423C311.683 440.887 320.628 439.275 329.689 437.816C321.089 439.831 312.412 441.655 303.716 443.575L277.512 449.161C260.043 452.866 242.401 456.379 224.759 459.873C207.117 463.367 189.379 466.784 171.526 470.028C153.672 473.273 135.742 476.613 117.64 479.569Z" fill="#DBDBDB"/>
<path d="M178.245 454.44C198.305 449.334 219 444.995 239.848 440.849C260.696 436.702 281.812 432.882 303.524 429.753C283.463 434.859 262.788 439.179 241.921 443.344C221.054 447.51 199.956 451.273 178.245 454.44Z" fill="#DBDBDB"/>
<path d="M408.838 722.334L745.016 658.715L1069.37 753.491L734.899 819.394L408.838 722.334Z" fill="#EBEBEB"/>
<path d="M408.877 722.334L745.016 658.466C745.016 658.466 1069.44 753.049 1069.44 753.03L1071.36 753.587L1069.44 753.971L734.899 819.643C734.803 819.663 408.877 722.334 408.877 722.334ZM408.877 722.334L735.014 819.163C734.419 819.163 1069.46 752.991 1069.31 753.03V753.951L744.939 658.946C745.438 658.792 408.762 722.43 408.838 722.296L408.877 722.334Z" fill="#DBDBDB"/>
<path d="M730.176 800.082C752.08 795.014 774.329 790.272 796.502 785.607C818.674 780.942 841.115 776.431 863.518 771.977C885.921 767.524 908.478 763.204 931.168 759.058L965.205 752.876C976.723 750.957 987.991 748.864 999.529 747.021C988.606 749.594 977.51 751.955 966.51 754.431L933.203 761.496C911.012 766.218 888.59 770.672 866.187 775.126C843.784 779.579 821.227 783.899 798.537 788.026C775.846 792.153 753.174 796.319 730.176 800.082Z" fill="#DBDBDB"/>
<path d="M816.352 766.333C840.309 760.171 865.073 754.95 890.03 749.978C914.986 745.006 940.326 740.379 966.395 736.77C942.437 742.951 917.654 748.173 892.698 753.145C867.742 758.117 842.402 762.648 816.352 766.333Z" fill="#DBDBDB"/>
<path d="M697.042 773.072C716.239 768.541 735.609 764.356 755.075 760.229C774.54 756.101 794.179 752.147 813.817 748.231C833.456 744.314 853.248 740.552 873.174 736.943L903.083 731.568C913.142 729.898 923.106 728.112 933.261 726.538C923.662 728.842 914.064 730.934 904.465 733.123L875.324 739.381C855.878 743.547 836.22 747.463 816.582 751.379C796.943 755.295 777.132 759.058 757.206 762.648C737.279 766.237 717.276 769.942 697.042 773.072Z" fill="#DBDBDB"/>
<path d="M681.474 759.384C699.154 755.142 717.122 751.245 735.225 747.405C753.328 743.566 771.392 739.88 789.591 736.252C807.79 732.624 826.065 729.149 844.571 725.847L872.291 720.894C881.621 719.378 890.855 717.727 900.281 716.287C891.469 718.456 882.485 720.395 873.578 722.449L846.606 728.208C828.638 732.048 810.439 735.714 792.24 739.342C774.041 742.971 755.766 746.445 737.26 749.747C718.754 753.049 700.171 756.505 681.474 759.384Z" fill="#DBDBDB"/>
<path d="M597.641 759.115C619.544 754.047 641.794 749.306 663.966 744.641C686.139 739.976 708.58 735.465 730.983 731.011C753.386 726.557 775.942 722.238 798.575 718.111L832.611 711.929C844.13 710.009 855.398 707.917 866.936 706.17C856.013 708.742 844.917 711.104 833.917 713.58L800.61 720.645C778.418 725.367 755.996 729.821 733.594 734.274C711.191 738.728 688.634 743.047 665.943 747.175C643.253 751.302 620.639 755.353 597.641 759.115Z" fill="#DBDBDB"/>
<path d="M594.876 742.894C614.246 738.325 633.904 734.082 653.6 729.917C673.296 725.751 693.145 721.739 713.11 717.765C733.075 713.791 753.002 709.99 773.158 706.362L803.317 700.833C813.51 699.144 823.589 697.34 833.859 695.727C824.261 698.05 814.374 700.161 804.622 702.388L775.136 708.723C755.459 712.927 735.571 716.901 715.625 720.856C695.679 724.81 675.734 728.535 655.577 732.259C635.42 735.983 615.34 739.63 594.876 742.894Z" fill="#DBDBDB"/>
<path d="M531.373 738.632C553.276 733.564 575.526 728.823 597.698 724.158C619.871 719.493 642.312 714.981 664.715 710.528C687.117 706.074 709.674 701.755 732.365 697.608L766.401 691.427C777.919 689.507 789.188 687.415 800.706 685.572C789.802 688.144 778.706 690.505 767.706 692.982L734.4 700.046C712.208 704.769 689.786 709.222 667.383 713.676C644.98 718.13 622.424 722.449 599.733 726.576C577.042 730.704 554.371 734.87 531.373 738.632Z" fill="#DBDBDB"/>
<path d="M608.391 706.688C633.884 700.219 660.223 694.709 686.657 689.411C713.091 684.113 740.005 679.275 767.591 675.301C742.098 681.79 715.759 687.299 689.306 692.579C662.853 697.858 635.977 702.753 608.391 706.688Z" fill="#DBDBDB"/>
<path d="M1230.31 561.099L607.911 733.065V609.11L1230.31 437.144C1263.29 497.96 1230.31 561.099 1230.31 561.099Z" fill="#37474F"/>
<path d="M0.557373 647.082L607.911 733.065V701.64L56.0942 634.143L0.557373 637.483V647.082Z" fill="#455A64"/>
<path d="M607.93 609.686C630.621 664.301 607.93 733.065 607.93 733.065L29.8518 641.764V534.626L607.93 609.686Z" fill="#455A64"/>
<path d="M593.628 607.843C615.724 662.247 595.452 720.837 595.452 720.837L29.8518 641.323V534.588L593.628 607.843Z" fill="white"/>
<path d="M593.628 607.843C594.377 609.955 596.546 615.906 597.295 617.998C601.786 632.943 604.063 648.466 604.052 664.071C604.136 683.321 601.335 702.475 595.74 720.894C596.009 721.739 29.9095 641.975 29.7176 642.187L28.8921 642.071V641.323V534.588V533.609L29.8519 533.743L311.855 570.659L593.513 607.805L593.628 607.843ZM593.628 607.843C454.949 589.203 164.749 554.802 30.6966 534.626L30.7926 641.361L29.9671 640.401C29.9671 640.612 596.738 720.241 595.126 720.741C597.992 711.6 600.136 702.248 601.537 692.771C605.818 664.417 604.167 634.661 593.609 607.843H593.628Z" fill="#DBDBDB"/>
<path d="M303.524 580.852C397.896 592.37 503.594 606.576 597.64 620.532C503.268 609.014 397.57 594.789 303.524 580.852Z" fill="#DBDBDB"/>
<path d="M29.8518 573.673C110.748 583.271 200.494 595.442 281.102 607.555C200.148 597.957 110.441 585.824 29.8518 573.673Z" fill="#DBDBDB"/>
<path d="M43.3286 584.212C180.798 601.489 334.815 622.26 471.92 642.014C334.47 624.737 180.453 603.965 43.3286 584.212Z" fill="#DBDBDB"/>
<path d="M117.64 620.475C260.235 638.117 420.011 659.31 562.26 679.429C419.685 661.806 259.908 640.593 117.64 620.475Z" fill="#DBDBDB"/>
<path d="M213.49 643.05C337.848 658.6 477.314 677.375 601.384 695.381C476.969 679.87 337.579 661.057 213.49 643.05Z" fill="#DBDBDB"/>
<path d="M101.726 642.839C261.06 663.15 439.592 687.223 598.524 709.856C439.189 689.565 260.657 665.473 101.726 642.839Z" fill="#DBDBDB"/>
<path d="M607.93 609.686L1230.31 437.144L601.384 408.656L0.557373 520.075V530.825L607.93 609.686Z" fill="#455A64"/>
<path d="M623.883 590.72C701.093 567.318 780.395 546.183 859.621 527.926C782.43 551.347 703.128 572.444 623.883 590.72Z" fill="#37474F"/>
<path d="M474.569 579.739C496.069 580.852 518.28 583.348 539.627 585.939C560.974 588.531 583.012 591.699 603.937 596.018C582.437 594.924 560.226 592.409 538.898 589.817C517.57 587.226 495.513 583.962 474.569 579.739Z" fill="#37474F"/>
<path d="M17.2588 522.167C163.444 537.87 310.8 556.395 456.005 577.378C309.705 561.713 162.369 543.149 17.2588 522.167Z" fill="#37474F"/>
<path d="M1030.86 507.059C1091.6 487.977 1153.07 470.591 1215.28 454.901C1154.57 473.983 1093.09 491.369 1030.86 507.059Z" fill="#455A64"/>
<path d="M708.138 412.514C700.075 414.088 666.788 415.874 666.116 408.675C665.079 397.848 744.689 321.06 773.254 306.624C800.418 292.879 887.937 262.893 909.553 262.24L909.745 331.196C897.516 334.306 800.092 324.803 779.628 335.669C770.739 340.391 758.972 359.972 735.014 391.071C726.586 402.033 712.899 411.573 708.138 412.514Z" fill="#F13C03"/>
<g opacity="0.3">
<path d="M708.138 412.514C700.075 414.088 666.787 415.874 666.115 408.675C665.079 397.848 744.689 321.06 773.254 306.624C800.417 292.879 887.936 262.893 909.552 262.24L909.744 331.196C897.516 334.306 800.091 324.803 779.627 335.669C770.739 340.391 758.971 359.972 735.013 391.071C726.586 402.033 712.899 411.574 708.138 412.514Z" fill="black"/>
</g>
<path d="M691.61 412.514C683.528 414.088 652.582 415.874 651.891 408.675C650.874 397.848 730.483 321.06 759.029 306.624C786.193 292.879 887.937 262.893 909.553 262.24L909.745 331.196C897.516 334.306 785.886 324.803 765.422 335.669C756.534 340.391 742.385 359.972 718.466 391.071C710.058 402.033 696.37 411.573 691.61 412.514Z" fill="#F13C03"/>
<g opacity="0.2">
<path d="M691.61 412.514C683.528 414.088 652.582 415.874 651.891 408.675C650.874 397.848 730.483 321.06 759.029 306.624C786.193 292.879 887.937 262.893 909.553 262.24L909.745 331.196C897.516 334.306 785.886 324.803 765.422 335.669C756.534 340.391 742.385 359.972 718.466 391.071C710.058 402.033 696.37 411.573 691.61 412.514Z" fill="black"/>
</g>
<path d="M1005.5 504.007C1012.45 506.925 1039.78 508.403 1044.47 502.51C1051.53 493.583 965.339 372.124 914.697 350.086C867.339 329.641 199.188 199.869 185.405 197.719L184.906 251.624C277.992 266.176 868.644 360.279 905.176 376.194C928.999 386.541 959.35 441.137 981.157 478.859C989.969 494.178 997.436 500.628 1005.5 504.007Z" fill="#F13C03"/>
<g opacity="0.2">
<path d="M1005.5 504.007C1012.45 506.925 1039.78 508.403 1044.47 502.51C1051.53 493.583 965.339 372.124 914.697 350.086C867.339 329.641 199.188 199.869 185.405 197.719L184.906 251.624C277.992 266.176 868.644 360.279 905.176 376.194C928.999 386.541 959.35 441.137 981.157 478.859C989.969 494.178 997.436 500.628 1005.5 504.007Z" fill="black"/>
</g>
<path d="M993.962 504.007C1000.91 506.925 1028.25 508.403 1032.93 502.51C1040 493.583 954.435 369.187 903.813 347.149C856.435 326.704 199.188 199.793 185.405 197.719L173.368 251.624C266.454 266.176 857.107 360.279 893.638 376.194C917.462 386.541 947.812 441.137 969.62 478.859C978.431 494.178 985.899 500.628 993.962 504.007Z" fill="#F13C03"/>
<g opacity="0.1">
<path d="M993.962 504.007C1000.91 506.925 1028.25 508.403 1032.93 502.509C1040 493.583 954.435 369.187 903.813 347.148C856.435 326.704 199.188 199.793 185.405 197.719L173.368 251.624C266.454 266.176 857.107 360.279 893.638 376.193C917.462 386.541 947.812 441.137 969.62 478.859C978.431 494.178 985.899 500.628 993.962 504.007Z" fill="black"/>
</g>
<g opacity="0.1">
<path d="M314.811 222.599L264.246 266.08C222.185 259.361 189.915 254.274 173.406 251.682L185.423 197.719C189.167 198.295 240.749 208.182 314.811 222.599Z" fill="black"/>
<path d="M444.122 295.182L412.716 290.018L383.536 236.036L429.782 245.174L444.122 295.182Z" fill="black"/>
<path d="M621.002 283.607L585.488 318.603L553.947 313.304L579.172 275.083C593.186 277.911 607.129 280.753 621.002 283.607Z" fill="black"/>
<path d="M899.473 345.555L887.245 374.139C881.371 372.488 872.521 370.415 861.137 368.016L852.326 333.173C874.479 338.395 890.835 342.637 899.473 345.555Z" fill="black"/>
</g>
<path d="M312.393 532.246C242.785 528.886 189.82 450.044 194.312 356.517C196.443 311.884 211.206 270.38 235.855 239.646C261.329 207.894 294.213 191.231 328.768 192.978C363.322 194.725 394.46 214.306 416.748 248.38C438.344 281.284 449.056 324.035 446.887 368.707C442.625 457.205 388.374 527.657 323.546 532.13C319.834 532.38 316.11 532.419 312.393 532.246ZM253.573 253.89C231.9 280.861 218.827 317.72 216.907 357.63C213.068 438.641 256.319 506.81 313.449 509.555C370.579 512.3 420.241 448.624 424.177 367.497C426.097 327.587 416.671 289.673 397.723 260.705C379.467 232.888 354.569 216.859 327.616 215.573C324.746 215.4 321.867 215.4 318.997 215.573C295.116 217.396 272.156 230.7 253.573 253.851V253.89ZM194.408 368.4C190.895 299.982 198.555 289.27 195.445 269.094C193.967 259.495 180.452 250.281 180.452 250.281L192.258 201.156C192.258 201.156 229.059 204.745 237.544 204.88C252.633 205.091 285.21 194.072 313.583 193.362C313.583 193.362 251.903 221.082 232.073 256.424C212.242 291.765 194.408 368.361 194.408 368.361V368.4Z" fill="#F13C03"/>
<path opacity="0.1" d="M312.393 532.246C242.785 528.886 189.82 450.044 194.312 356.517C196.443 311.884 211.206 270.38 235.855 239.646C261.329 207.894 294.213 191.231 328.768 192.978C363.322 194.725 394.46 214.306 416.748 248.38C438.344 281.284 449.056 324.035 446.887 368.707C442.625 457.205 388.374 527.657 323.546 532.13C319.834 532.38 316.11 532.419 312.393 532.246ZM253.573 253.89C231.9 280.861 218.827 317.72 216.907 357.63C213.068 438.641 256.319 506.81 313.449 509.555C370.579 512.3 420.241 448.624 424.177 367.497C426.097 327.587 416.671 289.673 397.723 260.705C379.467 232.888 354.569 216.859 327.616 215.573C324.746 215.4 321.867 215.4 318.997 215.573C295.116 217.396 272.156 230.7 253.573 253.851V253.89ZM194.408 368.4C190.895 299.982 198.555 289.27 195.445 269.094C193.967 259.495 180.452 250.281 180.452 250.281L192.258 201.156C192.258 201.156 229.059 204.745 237.544 204.88C252.633 205.091 285.21 194.072 313.583 193.362C313.583 193.362 251.903 221.082 232.073 256.424C212.242 291.765 194.408 368.361 194.408 368.361V368.4Z" fill="black"/>
<path d="M302.928 532.246C233.301 528.886 180.337 450.044 184.829 356.517C186.96 311.884 201.722 270.38 226.371 239.646C251.845 207.894 284.73 191.231 319.284 192.978C353.839 194.725 384.976 214.306 407.264 248.38C428.861 281.284 439.572 324.035 437.403 368.707C433.141 457.205 378.891 527.658 314.063 532.13C310.356 532.38 306.639 532.418 302.928 532.246ZM244.09 253.89C222.416 280.9 209.42 317.758 207.5 357.669C203.661 438.68 246.892 506.848 304.023 509.593C361.153 512.338 410.815 448.662 414.751 367.536C416.67 327.625 407.245 289.711 388.297 260.743C370.06 232.927 345.143 216.897 318.19 215.611C315.319 215.438 312.441 215.438 309.571 215.611C285.651 217.396 262.672 230.7 244.09 253.851V253.89ZM184.925 368.4C181.412 299.982 189.071 289.27 185.961 269.094C184.483 259.495 170.969 250.281 170.969 250.281L183.312 195.531C183.312 195.531 220.727 202.154 229.193 202.269C244.282 202.499 275.726 194.072 304.061 193.439C304.061 193.439 242.381 221.159 222.551 256.501C202.72 291.842 184.925 368.361 184.925 368.361V368.4Z" fill="#F13C03"/>
<path d="M220.209 220.583C219.767 223.981 213.451 225.939 206.099 224.96C198.747 223.981 193.179 220.429 193.64 217.051C194.101 213.672 200.397 211.695 207.75 212.674C215.102 213.653 220.746 217.185 220.209 220.583Z" fill="#A6A6A6"/>
<path d="M196.865 217.166C197.461 215.534 203.853 213.691 210.841 215.573Z" fill="white"/>
<path d="M180.433 250.722C193.717 258.171 199.4 269.151 197.902 284.355C196.424 310.732 193.448 336.859 193.41 363.236C193.229 376.399 194.076 389.557 195.944 402.589C187.44 370.454 189.974 336.571 192.969 303.84L194.888 284.183C196.962 269.478 192.316 259.418 180.395 250.722H180.433Z" fill="white"/>
<path d="M249.811 205.437C268.24 200.177 287.379 195.838 306.653 196.702C287.456 198.41 268.816 202.711 249.811 205.437Z" fill="white"/>
<path opacity="0.1" d="M249.792 255.253C228.848 282.128 216.293 318.756 214.412 358.456C210.668 439.083 252.517 506.81 307.728 509.555C362.938 512.3 410.95 448.95 414.751 368.361C416.671 328.681 407.514 290.959 389.2 262.164C371.558 234.482 347.485 218.548 321.415 217.262C318.641 217.089 315.858 217.089 313.084 217.262C289.952 218.99 267.76 232.197 249.792 255.253Z" fill="#EBEBEB"/>
<g opacity="0.2">
<path d="M355.74 228.089L214.258 373.66C214.124 368.63 214.258 363.581 214.431 358.436C215.101 343.417 217.405 328.515 221.304 313.995L315.369 217.262C317.288 217.262 319.419 217.262 321.454 217.262C333.607 217.954 345.394 221.676 355.74 228.089Z" fill="white"/>
<path d="M405.038 295.777L240.27 465.306C237.24 460.606 234.496 455.727 232.054 450.697L398.511 279.422C400.994 284.746 403.173 290.206 405.038 295.777Z" fill="white"/>
<path d="M411.45 397.061C409.438 407.997 406.496 418.741 402.658 429.177L325.966 508.077C319.978 509.369 313.846 509.866 307.729 509.555C306.001 509.459 304.273 509.324 302.565 509.094L411.45 397.061Z" fill="white"/>
<path d="M411.757 321.866L254.63 483.524C253.881 482.794 253.171 482.026 252.479 481.239L411.027 318.065C411.315 319.332 411.526 320.618 411.757 321.866Z" fill="white"/>
</g>
<path d="M529.28 372.892L544.638 356.21C519.95 333.365 461.841 301.46 418.302 343.789L434.121 360.068C473.129 322.077 526.996 370.818 529.28 372.892Z" fill="#F13C03"/>
<path d="M676.214 553.017C631.896 544.88 592.619 519.487 567.009 482.413C541.4 445.339 531.551 399.617 539.627 355.288C545.676 322.233 561.391 291.714 584.784 267.59C608.177 243.465 638.199 226.819 671.052 219.757C703.906 212.694 738.115 215.531 769.356 227.91C800.597 240.289 827.466 261.654 846.565 289.302C865.664 316.951 876.136 349.642 876.656 383.242C877.176 416.842 867.722 449.842 849.488 478.069C831.255 506.296 805.061 528.482 774.218 541.823C743.376 555.163 709.27 559.059 676.214 553.017ZM561.973 359.435C556.504 389.562 560.582 420.644 573.635 448.341C586.689 476.039 608.068 498.967 634.785 513.925C661.502 528.883 692.224 535.123 722.659 531.773C753.095 528.424 781.724 515.652 804.549 495.242C827.374 474.832 843.254 447.803 849.972 417.93C856.69 388.057 853.911 356.831 842.021 328.615C830.132 300.398 809.727 276.599 783.656 260.542C757.585 244.485 727.149 236.971 696.601 239.05C663.983 241.33 633.05 254.397 608.676 276.193C584.301 297.988 567.871 327.273 561.973 359.435Z" fill="#F13C03"/>
<path d="M858.085 313.285C846.394 274.469 778.303 231.794 778.303 231.794C805.87 238.571 836.278 252.354 851.059 255.425C859.352 257.134 909.648 262.279 909.648 262.279L909.84 331.234C909.84 331.234 896.018 332.002 892.563 341.044C885.153 360.068 888.896 364.675 870.621 430.674C870.448 430.674 869.603 352.082 858.085 313.285Z" fill="#F13C03"/>
<g opacity="0.1">
<path d="M676.214 553.017C631.896 544.88 592.619 519.487 567.009 482.413C541.4 445.339 531.551 399.617 539.627 355.288C545.676 322.233 561.391 291.714 584.784 267.59C608.177 243.465 638.199 226.819 671.052 219.757C703.906 212.694 738.115 215.531 769.356 227.91C800.597 240.289 827.466 261.654 846.565 289.302C865.664 316.951 876.136 349.642 876.656 383.242C877.176 416.842 867.722 449.842 849.488 478.069C831.255 506.296 805.061 528.482 774.218 541.823C743.376 555.163 709.27 559.059 676.214 553.017ZM561.973 359.435C556.504 389.562 560.582 420.644 573.635 448.341C586.689 476.039 608.068 498.967 634.785 513.925C661.502 528.883 692.224 535.123 722.659 531.773C753.095 528.424 781.724 515.652 804.549 495.242C827.374 474.832 843.254 447.803 849.972 417.93C856.69 388.057 853.911 356.831 842.021 328.615C830.132 300.398 809.727 276.599 783.656 260.542C757.585 244.485 727.149 236.971 696.601 239.05C663.983 241.33 633.05 254.397 608.676 276.193C584.301 297.988 567.871 327.273 561.973 359.435Z" fill="black"/>
<path d="M858.086 313.285C846.395 274.469 778.303 231.794 778.303 231.794C805.87 238.57 836.278 252.354 851.059 255.425C859.353 257.134 909.649 262.279 909.649 262.279L909.841 331.234C909.841 331.234 896.019 332.002 892.563 341.044C885.153 360.068 888.897 364.675 870.621 430.674C870.448 430.674 869.604 352.082 858.086 313.285Z" fill="black"/>
</g>
<path d="M661.106 550.54C616.823 542.402 577.576 517.034 551.971 479.999C526.366 442.965 516.494 397.287 524.519 352.984C530.529 319.892 546.221 289.327 569.608 265.156C592.995 240.985 623.027 224.295 655.903 217.198C688.779 210.101 723.021 212.916 754.297 225.287C785.572 237.658 812.475 259.028 831.601 286.694C850.727 314.36 861.216 347.078 861.741 380.707C862.266 414.336 852.803 447.365 834.55 475.614C816.297 503.864 790.074 526.063 759.199 539.404C728.325 552.745 694.187 556.627 661.106 550.56V550.54ZM546.865 357.054C541.372 387.205 545.436 418.319 558.488 446.047C571.541 473.776 592.93 496.734 619.666 511.714C646.403 526.694 677.152 532.947 707.615 529.599C738.079 526.252 766.736 513.471 789.582 493.043C812.427 472.615 828.321 445.559 835.04 415.658C841.76 385.757 838.971 354.503 827.062 326.265C815.154 298.026 794.72 274.213 768.618 258.153C742.516 242.093 712.049 234.589 681.474 236.689C648.862 238.972 617.935 252.038 593.565 273.83C569.195 295.621 552.766 324.899 546.865 357.054Z" fill="#F13C03"/>
<path d="M842.882 310.905C831.191 272.088 763.099 229.414 763.099 229.414C790.666 236.19 821.074 249.974 835.856 253.045C844.149 254.754 894.445 259.898 894.445 259.898L894.637 323.037C894.637 323.037 880.815 327.222 877.359 336.245C869.93 355.269 873.674 362.295 855.398 428.39C855.341 428.236 854.573 349.702 842.882 310.905Z" fill="#F13C03"/>
<path d="M872.906 288.252C872.445 291.65 866.129 293.608 858.796 292.629C851.463 291.65 845.857 288.118 846.318 284.72C846.779 281.322 853.095 279.364 860.428 280.343C867.761 281.322 873.443 284.874 872.906 288.252Z" fill="#A6A6A6"/>
<path d="M849.543 284.854C850.138 283.223 856.531 281.361 863.518 283.261Z" fill="white"/>
<path d="M613.958 241.776C628.514 230.69 646.341 224.755 664.638 224.902C647.361 229.97 630.736 235.461 613.958 241.776Z" fill="white"/>
<path d="M542.065 326.493C550.665 292.149 579.384 259.015 611.001 243.562C581.4 264.678 556.578 293.013 542.065 326.493Z" fill="white"/>
<path opacity="0.1" d="M553.871 357.054C539.665 436.856 591.459 513.644 669.36 528.214C747.261 542.785 822.168 489.686 836.374 409.903C850.579 330.121 798.767 253.295 720.866 238.743C709.152 236.538 697.203 235.848 685.313 236.689C621.329 241.201 565.889 289.577 553.871 357.054Z" fill="#EBEBEB"/>
<g opacity="0.2">
<path d="M838.581 390.265L701.726 530.403C690.886 530.902 680.025 530.142 669.36 528.137C664.744 527.281 660.175 526.186 655.673 524.855L833.129 343.079C837.466 358.413 839.307 374.346 838.581 390.265Z" fill="white"/>
<path d="M713.532 237.572L552.719 402.359C550.816 387.286 551.205 372.011 553.871 357.054C554.524 353.33 555.349 349.625 556.271 345.997L658.437 241.239C667.226 238.849 676.227 237.325 685.313 236.689C694.725 236.012 704.181 236.308 713.532 237.572Z" fill="white"/>
<path d="M815.257 303.053L616.587 506.541C612.05 503.522 607.697 500.233 603.553 496.693L805.678 289.692C809.127 293.956 812.326 298.417 815.257 303.053Z" fill="white"/>
<path d="M753.097 248.841L563.776 442.73C561.397 437.216 559.359 431.562 557.672 425.798L736.568 242.506C742.204 244.272 747.724 246.388 753.097 248.841Z" fill="white"/>
<path d="M836.738 407.868C836.643 408.54 836.508 409.231 836.393 409.903C836.201 411.094 835.971 412.284 835.721 413.436L724.379 527.542C722.593 527.926 720.77 528.272 718.927 528.579L836.738 407.868Z" fill="white"/>
<path d="M794.371 277.214L591.42 485.155C590.691 484.388 589.981 483.6 589.29 482.813L792.105 275.006L794.371 277.214Z" fill="white"/>
</g>
</svg>
