<svg width="2470" height="2766" viewBox="0 0 2470 2766" fill="none" xmlns="http://www.w3.org/2000/svg">
<g opacity="0.5">
<ellipse cx="2.92135" cy="2.92136" rx="2.92135" ry="2.92136" transform="matrix(1 0 0 -1 10.2244 2635.12)" fill="white"/>
<ellipse cx="2.92135" cy="2.9214" rx="2.92135" ry="2.9214" transform="matrix(1 0 0 -1 448.427 2620.52)" fill="white"/>
<circle cx="2.92136" cy="2.92136" r="2.92136" transform="matrix(1 0 0 -1 886.631 2635.12)" fill="white"/>
<ellipse cx="2.92148" cy="2.92136" rx="2.92148" ry="2.92136" transform="matrix(1 0 0 -1 1324.83 2649.73)" fill="white"/>
<ellipse cx="2.92144" cy="2.92136" rx="2.92144" ry="2.92136" transform="matrix(1 0 0 -1 1763.04 2635.12)" fill="white"/>
<ellipse cx="2.92128" cy="2.9214" rx="2.92128" ry="2.9214" transform="matrix(1 0 0 -1 2201.24 2620.52)" fill="white"/>
<ellipse cx="2.92135" cy="2.92136" rx="2.92135" ry="2.92136" transform="matrix(1 0 0 -1 185.506 2340.07)" fill="white"/>
<ellipse cx="2.92134" cy="2.92132" rx="2.92134" ry="2.92132" transform="matrix(1 0 0 -1 623.709 2325.46)" fill="white"/>
<circle cx="2.92136" cy="2.92136" r="2.92136" transform="matrix(1 0 0 -1 1061.91 2340.07)" fill="white"/>
<ellipse cx="2.9214" cy="2.92136" rx="2.9214" ry="2.92136" transform="matrix(1 0 0 -1 1500.11 2354.67)" fill="white"/>
<ellipse cx="2.92128" cy="2.92136" rx="2.92128" ry="2.92136" transform="matrix(1 0 0 -1 1938.32 2340.07)" fill="white"/>
<circle cx="2.92136" cy="2.92136" r="2.92136" transform="matrix(1 0 0 -1 2376.52 2328.38)" fill="white"/>
<ellipse cx="2.92135" cy="2.92128" rx="2.92135" ry="2.92128" transform="matrix(1 0 0 -1 112.471 2047.93)" fill="white"/>
<ellipse cx="2.92134" cy="2.92136" rx="2.92134" ry="2.92136" transform="matrix(1 0 0 -1 550.674 2033.33)" fill="white"/>
<ellipse cx="2.92132" cy="2.92128" rx="2.92132" ry="2.92128" transform="matrix(1 0 0 -1 988.877 2047.93)" fill="white"/>
<ellipse cx="2.92148" cy="2.92136" rx="2.92148" ry="2.92136" transform="matrix(1 0 0 -1 1427.08 2062.54)" fill="white"/>
<ellipse cx="2.92136" cy="2.92128" rx="2.92136" ry="2.92128" transform="matrix(1 0 0 -1 1865.28 2047.93)" fill="white"/>
<circle cx="2.92136" cy="2.92136" r="2.92136" transform="matrix(1 0 0 -1 2303.49 2033.33)" fill="white"/>
<ellipse cx="2.92135" cy="2.92136" rx="2.92135" ry="2.92136" transform="matrix(1 0 0 -1 39.438 1758.72)" fill="white"/>
<ellipse cx="2.92138" cy="2.92136" rx="2.92138" ry="2.92136" transform="matrix(1 0 0 -1 477.642 1741.19)" fill="white"/>
<circle cx="2.92136" cy="2.92136" r="2.92136" transform="matrix(1 0 0 -1 915.843 1755.8)" fill="white"/>
<ellipse cx="2.92132" cy="2.92136" rx="2.92132" ry="2.92136" transform="matrix(1 0 0 -1 1354.05 1770.41)" fill="white"/>
<circle cx="2.92136" cy="2.92136" r="2.92136" transform="matrix(1 0 0 -1 1792.25 1755.8)" fill="white"/>
<circle cx="2.92136" cy="2.92136" r="2.92136" transform="matrix(1 0 0 -1 2230.45 1741.19)" fill="white"/>
<ellipse cx="2.92135" cy="2.92128" rx="2.92135" ry="2.92128" transform="matrix(1 0 0 -1 273.146 1463.66)" fill="white"/>
<circle cx="2.92136" cy="2.92136" r="2.92136" transform="matrix(1 0 0 -1 711.349 1449.05)" fill="white"/>
<ellipse cx="2.92136" cy="2.92128" rx="2.92136" ry="2.92128" transform="matrix(1 0 0 -1 1149.55 1463.66)" fill="white"/>
<ellipse cx="2.92152" cy="2.92136" rx="2.92152" ry="2.92136" transform="matrix(1 0 0 -1 1587.75 1478.27)" fill="white"/>
<ellipse cx="2.92144" cy="2.92128" rx="2.92144" ry="2.92128" transform="matrix(1 0 0 -1 2025.96 1463.66)" fill="white"/>
<circle cx="2.92136" cy="2.92136" r="2.92136" transform="matrix(1 0 0 -1 2464.16 1451.98)" fill="white"/>
<ellipse cx="2.92135" cy="2.92136" rx="2.92135" ry="2.92136" transform="matrix(1 0 0 -1 0 1174.45)" fill="white"/>
<ellipse cx="2.92135" cy="2.92136" rx="2.92135" ry="2.92136" transform="matrix(1 0 0 -1 438.203 1159.84)" fill="white"/>
<ellipse cx="2.9214" cy="2.92136" rx="2.9214" ry="2.92136" transform="matrix(1 0 0 -1 876.404 1174.45)" fill="white"/>
<ellipse cx="2.92148" cy="2.92136" rx="2.92148" ry="2.92136" transform="matrix(1 0 0 -1 1314.61 1189.06)" fill="white"/>
<circle cx="2.92136" cy="2.92136" r="2.92136" transform="matrix(1 0 0 -1 1752.81 1174.45)" fill="white"/>
<circle cx="2.92136" cy="2.92136" r="2.92136" transform="matrix(1 0 0 -1 2191.01 1159.84)" fill="white"/>
<ellipse cx="2.92135" cy="2.92128" rx="2.92135" ry="2.92128" transform="matrix(1 0 0 -1 33.5942 920.29)" fill="white"/>
<ellipse cx="2.92132" cy="2.92136" rx="2.92132" ry="2.92136" transform="matrix(1 0 0 -1 471.798 905.684)" fill="white"/>
<ellipse cx="2.92132" cy="2.92128" rx="2.92132" ry="2.92128" transform="matrix(1 0 0 -1 910.001 920.29)" fill="white"/>
<ellipse cx="2.92148" cy="2.92144" rx="2.92148" ry="2.92144" transform="matrix(1 0 0 -1 1348.2 934.896)" fill="white"/>
<ellipse cx="2.92136" cy="2.92128" rx="2.92136" ry="2.92128" transform="matrix(1 0 0 -1 1786.41 920.29)" fill="white"/>
<circle cx="2.92136" cy="2.92136" r="2.92136" transform="matrix(1 0 0 -1 2224.61 905.684)" fill="white"/>
<ellipse cx="2.92134" cy="2.92128" rx="2.92134" ry="2.92128" transform="matrix(1 0 0 -1 140.224 607.705)" fill="white"/>
<ellipse cx="2.92134" cy="2.92128" rx="2.92134" ry="2.92128" transform="matrix(1 0 0 -1 578.427 593.099)" fill="white"/>
<ellipse cx="2.92136" cy="2.92128" rx="2.92136" ry="2.92128" transform="matrix(1 0 0 -1 1016.63 607.705)" fill="white"/>
<ellipse cx="2.92124" cy="2.92128" rx="2.92124" ry="2.92128" transform="matrix(1 0 0 -1 1454.83 622.312)" fill="white"/>
<ellipse cx="2.92136" cy="2.92128" rx="2.92136" ry="2.92128" transform="matrix(1 0 0 -1 1893.03 607.705)" fill="white"/>
<ellipse cx="2.92136" cy="2.92128" rx="2.92136" ry="2.92128" transform="matrix(1 0 0 -1 2261.12 334.268)" fill="white"/>
<ellipse cx="1.46067" cy="1.46064" rx="1.46067" ry="1.46064" transform="matrix(1 0 0 -1 224.944 317.91)" fill="white"/>
<circle cx="1.46064" cy="1.46064" r="1.46064" transform="matrix(1 0 0 -1 444.045 317.91)" fill="white"/>
<ellipse cx="1.46068" cy="1.46064" rx="1.46068" ry="1.46064" transform="matrix(1 0 0 -1 663.148 317.91)" fill="white"/>
<ellipse cx="1.46076" cy="1.46064" rx="1.46076" ry="1.46064" transform="matrix(1 0 0 -1 882.248 317.91)" fill="white"/>
<ellipse cx="1.46068" cy="1.46064" rx="1.46068" ry="1.46064" transform="matrix(1 0 0 -1 1101.35 317.91)" fill="white"/>
<ellipse cx="1.46052" cy="1.46064" rx="1.46052" ry="1.46064" transform="matrix(1 0 0 -1 1320.45 317.91)" fill="white"/>
<ellipse cx="1.4608" cy="1.46064" rx="1.4608" ry="1.46064" transform="matrix(1 0 0 -1 1539.55 317.91)" fill="white"/>
<ellipse cx="1.46072" cy="1.46064" rx="1.46072" ry="1.46064" transform="matrix(1 0 0 -1 1758.65 317.91)" fill="white"/>
<ellipse cx="1.46072" cy="1.46064" rx="1.46072" ry="1.46064" transform="matrix(1 0 0 -1 1977.76 317.91)" fill="white"/>
<ellipse cx="1.46072" cy="1.46064" rx="1.46072" ry="1.46064" transform="matrix(1 0 0 -1 1977.76 317.91)" fill="white"/>
<ellipse cx="1.46066" cy="1.46064" rx="1.46066" ry="1.46064" transform="matrix(1 0 0 -1 297.977 303.303)" fill="white"/>
<ellipse cx="1.4607" cy="1.46064" rx="1.4607" ry="1.46064" transform="matrix(1 0 0 -1 517.08 303.303)" fill="white"/>
<ellipse cx="1.4606" cy="1.46064" rx="1.4606" ry="1.46064" transform="matrix(1 0 0 -1 736.18 303.303)" fill="white"/>
<ellipse cx="1.46068" cy="1.46064" rx="1.46068" ry="1.46064" transform="matrix(1 0 0 -1 955.281 303.303)" fill="white"/>
<ellipse cx="1.46068" cy="1.46064" rx="1.46068" ry="1.46064" transform="matrix(1 0 0 -1 1174.38 303.303)" fill="white"/>
<ellipse cx="1.46068" cy="1.46064" rx="1.46068" ry="1.46064" transform="matrix(1 0 0 -1 1393.48 303.303)" fill="white"/>
<ellipse cx="1.4608" cy="1.46064" rx="1.4608" ry="1.46064" transform="matrix(1 0 0 -1 1612.58 303.303)" fill="white"/>
<circle cx="1.46064" cy="1.46064" r="1.46064" transform="matrix(1 0 0 -1 1831.69 303.303)" fill="white"/>
<ellipse cx="1.46072" cy="1.46064" rx="1.46072" ry="1.46064" transform="matrix(1 0 0 -1 2050.79 303.303)" fill="white"/>
<ellipse cx="1.46072" cy="1.46064" rx="1.46072" ry="1.46064" transform="matrix(1 0 0 -1 2050.79 303.303)" fill="white"/>
<ellipse cx="1.46067" cy="1.46048" rx="1.46067" ry="1.46048" transform="matrix(1 0 0 -1 201.574 390.941)" fill="white"/>
<ellipse cx="1.46064" cy="1.46048" rx="1.46064" ry="1.46048" transform="matrix(1 0 0 -1 420.674 390.941)" fill="white"/>
<ellipse cx="1.46068" cy="1.46048" rx="1.46068" ry="1.46048" transform="matrix(1 0 0 -1 639.775 390.941)" fill="white"/>
<ellipse cx="1.46076" cy="1.46048" rx="1.46076" ry="1.46048" transform="matrix(1 0 0 -1 858.875 390.941)" fill="white"/>
<ellipse cx="1.46068" cy="1.46048" rx="1.46068" ry="1.46048" transform="matrix(1 0 0 -1 1077.98 390.941)" fill="white"/>
<ellipse cx="1.46068" cy="1.46048" rx="1.46068" ry="1.46048" transform="matrix(1 0 0 -1 1297.08 390.941)" fill="white"/>
<ellipse cx="1.46072" cy="1.46048" rx="1.46072" ry="1.46048" transform="matrix(1 0 0 -1 1516.18 390.941)" fill="white"/>
<ellipse cx="1.46064" cy="1.46048" rx="1.46064" ry="1.46048" transform="matrix(1 0 0 -1 1735.28 390.941)" fill="white"/>
<ellipse cx="1.46064" cy="1.46048" rx="1.46064" ry="1.46048" transform="matrix(1 0 0 -1 1954.38 390.941)" fill="white"/>
<ellipse cx="1.46068" cy="1.46064" rx="1.46068" ry="1.46064" transform="matrix(1 0 0 -1 362.246 244.875)" fill="white"/>
<ellipse cx="1.46068" cy="1.46064" rx="1.46068" ry="1.46064" transform="matrix(1 0 0 -1 581.349 244.875)" fill="white"/>
<ellipse cx="1.46062" cy="1.46064" rx="1.46062" ry="1.46064" transform="matrix(1 0 0 -1 800.45 244.875)" fill="white"/>
<ellipse cx="1.46068" cy="1.46064" rx="1.46068" ry="1.46064" transform="matrix(1 0 0 -1 1019.55 244.875)" fill="white"/>
<ellipse cx="1.4608" cy="1.46064" rx="1.4608" ry="1.46064" transform="matrix(1 0 0 -1 1238.65 244.875)" fill="white"/>
<ellipse cx="1.46068" cy="1.46064" rx="1.46068" ry="1.46064" transform="matrix(1 0 0 -1 1457.75 244.875)" fill="white"/>
<circle cx="1.46064" cy="1.46064" r="1.46064" transform="matrix(1 0 0 -1 1676.85 244.875)" fill="white"/>
<circle cx="1.46064" cy="1.46064" r="1.46064" transform="matrix(1 0 0 -1 1895.96 244.875)" fill="white"/>
<circle cx="1.46064" cy="1.46064" r="1.46064" transform="matrix(1 0 0 -1 1895.96 244.875)" fill="white"/>
<ellipse cx="1.46072" cy="1.46048" rx="1.46072" ry="1.46048" transform="matrix(1 0 0 -1 2173.48 390.941)" fill="white"/>
<ellipse cx="2.92134" cy="2.92128" rx="2.92134" ry="2.92128" transform="matrix(1 0 0 -1 525.843 335.436)" fill="white"/>
<ellipse cx="2.92136" cy="2.92128" rx="2.92136" ry="2.92128" transform="matrix(1 0 0 -1 964.046 350.042)" fill="white"/>
<ellipse cx="2.92124" cy="2.92128" rx="2.92124" ry="2.92128" transform="matrix(1 0 0 -1 1402.25 364.649)" fill="white"/>
<ellipse cx="2.92136" cy="2.92128" rx="2.92136" ry="2.92128" transform="matrix(1 0 0 -1 1840.45 350.042)" fill="white"/>
<ellipse cx="2.92112" cy="2.92128" rx="2.92112" ry="2.92128" transform="matrix(1 0 0 -1 2331.24 593.099)" fill="white"/>
<ellipse cx="2.92137" cy="2.92144" rx="2.92137" ry="2.92144" transform="matrix(1 0 0 -1 42.3601 295.122)" fill="white"/>
<ellipse cx="2.92134" cy="2.92112" rx="2.92134" ry="2.92112" transform="matrix(1 0 0 -1 480.561 280.515)" fill="white"/>
<ellipse cx="2.92128" cy="2.92144" rx="2.92128" ry="2.92144" transform="matrix(1 0 0 -1 918.764 295.122)" fill="white"/>
<ellipse cx="2.92152" cy="2.92144" rx="2.92152" ry="2.92144" transform="matrix(1 0 0 -1 1356.97 309.729)" fill="white"/>
<ellipse cx="2.92128" cy="2.92144" rx="2.92128" ry="2.92144" transform="matrix(1 0 0 -1 1795.17 295.122)" fill="white"/>
<ellipse cx="2.92136" cy="2.92112" rx="2.92136" ry="2.92112" transform="matrix(1 0 0 -1 2233.37 280.515)" fill="white"/>
<ellipse cx="2096.07" cy="186.156" rx="1.46067" ry="1.46064" transform="rotate(-180 2096.07 186.156)" fill="white"/>
<ellipse cx="1876.97" cy="186.156" rx="1.46068" ry="1.46064" transform="rotate(-180 1876.97 186.156)" fill="white"/>
<ellipse cx="1657.87" cy="186.156" rx="1.46066" ry="1.46064" transform="rotate(-180 1657.87 186.156)" fill="white"/>
<ellipse cx="1438.77" cy="186.156" rx="1.46068" ry="1.46064" transform="rotate(-180 1438.77 186.156)" fill="white"/>
<ellipse cx="1219.67" cy="186.156" rx="1.4608" ry="1.46064" transform="rotate(-180 1219.67 186.156)" fill="white"/>
<ellipse cx="1000.57" cy="186.156" rx="1.46052" ry="1.46064" transform="rotate(-180 1000.57 186.156)" fill="white"/>
<ellipse cx="781.463" cy="186.156" rx="1.46072" ry="1.46064" transform="rotate(-180 781.463 186.156)" fill="white"/>
<circle cx="562.365" cy="186.156" r="1.46064" transform="rotate(-180 562.365 186.156)" fill="white"/>
<circle cx="343.262" cy="186.156" r="1.46064" transform="rotate(-180 343.262 186.156)" fill="white"/>
<ellipse cx="2023.04" cy="171.549" rx="1.46068" ry="1.4608" transform="rotate(-180 2023.04 171.549)" fill="white"/>
<ellipse cx="1803.93" cy="171.549" rx="1.46068" ry="1.4608" transform="rotate(-180 1803.93 171.549)" fill="white"/>
<ellipse cx="1584.83" cy="171.549" rx="1.46072" ry="1.4608" transform="rotate(-180 1584.83 171.549)" fill="white"/>
<ellipse cx="1365.73" cy="171.549" rx="1.46068" ry="1.4608" transform="rotate(-180 1365.73 171.549)" fill="white"/>
<ellipse cx="1146.63" cy="171.549" rx="1.46068" ry="1.4608" transform="rotate(-180 1146.63 171.549)" fill="white"/>
<ellipse cx="927.528" cy="171.549" rx="1.46064" ry="1.4608" transform="rotate(-180 927.528 171.549)" fill="white"/>
<ellipse cx="708.43" cy="171.549" rx="1.46072" ry="1.4608" transform="rotate(-180 708.43 171.549)" fill="white"/>
<ellipse cx="489.327" cy="171.549" rx="1.46072" ry="1.4608" transform="rotate(-180 489.327 171.549)" fill="white"/>
<ellipse cx="270.224" cy="171.549" rx="1.46064" ry="1.4608" transform="rotate(-180 270.224 171.549)" fill="white"/>
<ellipse cx="2177.87" cy="113.121" rx="1.46067" ry="1.4608" transform="rotate(-180 2177.87 113.121)" fill="white"/>
<ellipse cx="1958.77" cy="113.121" rx="1.46064" ry="1.4608" transform="rotate(-180 1958.77 113.121)" fill="white"/>
<ellipse cx="1739.67" cy="113.121" rx="1.4607" ry="1.4608" transform="rotate(-180 1739.67 113.121)" fill="white"/>
<ellipse cx="1520.56" cy="113.121" rx="1.46068" ry="1.4608" transform="rotate(-180 1520.56 113.121)" fill="white"/>
<ellipse cx="1301.46" cy="113.121" rx="1.46064" ry="1.4608" transform="rotate(-180 1301.46 113.121)" fill="white"/>
<ellipse cx="1082.36" cy="113.121" rx="1.46068" ry="1.4608" transform="rotate(-180 1082.36 113.121)" fill="white"/>
<circle cx="863.261" cy="113.121" r="1.4608" transform="rotate(-180 863.261 113.121)" fill="white"/>
<ellipse cx="644.158" cy="113.121" rx="1.46072" ry="1.4608" transform="rotate(-180 644.158 113.121)" fill="white"/>
<ellipse cx="425.055" cy="113.121" rx="1.46064" ry="1.4608" transform="rotate(-180 425.055 113.121)" fill="white"/>
<ellipse cx="2242.14" cy="210.988" rx="2.92136" ry="2.92144" transform="rotate(-180 2242.14 210.988)" fill="white"/>
<ellipse cx="1803.94" cy="196.38" rx="2.92134" ry="2.92128" transform="rotate(-180 1803.94 196.38)" fill="white"/>
<ellipse cx="1365.73" cy="210.988" rx="2.92136" ry="2.92144" transform="rotate(-180 1365.73 210.988)" fill="white"/>
<ellipse cx="927.531" cy="225.592" rx="2.92136" ry="2.92128" transform="rotate(-180 927.531 225.592)" fill="white"/>
<ellipse cx="489.33" cy="210.988" rx="2.92136" ry="2.92144" transform="rotate(-180 489.33 210.988)" fill="white"/>
<ellipse cx="227.867" cy="89.4586" rx="2.92136" ry="2.92128" transform="rotate(-180 227.867 89.4586)" fill="white"/>
<ellipse cx="2265.51" cy="74.5608" rx="1.46067" ry="1.46064" transform="rotate(-180 2265.51 74.5608)" fill="white"/>
<circle cx="2046.41" cy="74.5608" r="1.46064" transform="rotate(-180 2046.41 74.5608)" fill="white"/>
<ellipse cx="1827.3" cy="74.5608" rx="1.46068" ry="1.46064" transform="rotate(-180 1827.3 74.5608)" fill="white"/>
<ellipse cx="1608.2" cy="74.5608" rx="1.46076" ry="1.46064" transform="rotate(-180 1608.2 74.5608)" fill="white"/>
<ellipse cx="1389.1" cy="74.5608" rx="1.46068" ry="1.46064" transform="rotate(-180 1389.1 74.5608)" fill="white"/>
<ellipse cx="1170" cy="74.5608" rx="1.46052" ry="1.46064" transform="rotate(-180 1170 74.5608)" fill="white"/>
<ellipse cx="950.898" cy="74.5608" rx="1.4608" ry="1.46064" transform="rotate(-180 950.898 74.5608)" fill="white"/>
<ellipse cx="731.8" cy="74.5608" rx="1.46072" ry="1.46064" transform="rotate(-180 731.8 74.5608)" fill="white"/>
<ellipse cx="512.697" cy="74.5608" rx="1.46072" ry="1.46064" transform="rotate(-180 512.697 74.5608)" fill="white"/>
<ellipse cx="512.697" cy="74.5608" rx="1.46072" ry="1.46064" transform="rotate(-180 512.697 74.5608)" fill="white"/>
<ellipse cx="2192.47" cy="59.9534" rx="1.46066" ry="1.46064" transform="rotate(-180 2192.47 59.9534)" fill="white"/>
<ellipse cx="1973.37" cy="59.9534" rx="1.4607" ry="1.46064" transform="rotate(-180 1973.37 59.9534)" fill="white"/>
<ellipse cx="1754.27" cy="59.9534" rx="1.4606" ry="1.46064" transform="rotate(-180 1754.27 59.9534)" fill="white"/>
<ellipse cx="1535.17" cy="59.9534" rx="1.46068" ry="1.46064" transform="rotate(-180 1535.17 59.9534)" fill="white"/>
<ellipse cx="1316.07" cy="59.9534" rx="1.46068" ry="1.46064" transform="rotate(-180 1316.07 59.9534)" fill="white"/>
<ellipse cx="1096.97" cy="59.9534" rx="1.46068" ry="1.46064" transform="rotate(-180 1096.97 59.9534)" fill="white"/>
<ellipse cx="877.865" cy="59.9534" rx="1.4608" ry="1.46064" transform="rotate(-180 877.865 59.9534)" fill="white"/>
<circle cx="658.768" cy="59.9534" r="1.46064" transform="rotate(-180 658.768 59.9534)" fill="white"/>
<ellipse cx="439.665" cy="59.9534" rx="1.46072" ry="1.46064" transform="rotate(-180 439.665 59.9534)" fill="white"/>
<ellipse cx="439.665" cy="59.9534" rx="1.46072" ry="1.46064" transform="rotate(-180 439.665 59.9534)" fill="white"/>
<ellipse cx="2069.78" cy="147.594" rx="1.46064" ry="1.46048" transform="rotate(-180 2069.78 147.594)" fill="white"/>
<ellipse cx="1850.68" cy="147.594" rx="1.46068" ry="1.46048" transform="rotate(-180 1850.68 147.594)" fill="white"/>
<ellipse cx="1631.58" cy="147.594" rx="1.46076" ry="1.46048" transform="rotate(-180 1631.58 147.594)" fill="white"/>
<ellipse cx="1412.47" cy="147.594" rx="1.46068" ry="1.46048" transform="rotate(-180 1412.47 147.594)" fill="white"/>
<ellipse cx="1193.37" cy="147.594" rx="1.46068" ry="1.46048" transform="rotate(-180 1193.37 147.594)" fill="white"/>
<ellipse cx="974.273" cy="147.594" rx="1.46072" ry="1.46048" transform="rotate(-180 974.273 147.594)" fill="white"/>
<ellipse cx="755.171" cy="147.594" rx="1.46064" ry="1.46048" transform="rotate(-180 755.171 147.594)" fill="white"/>
<ellipse cx="536.068" cy="147.594" rx="1.46064" ry="1.46048" transform="rotate(-180 536.068 147.594)" fill="white"/>
<ellipse cx="2128.21" cy="1.52569" rx="1.46068" ry="1.46064" transform="rotate(-180 2128.21 1.52569)" fill="white"/>
<ellipse cx="1909.1" cy="1.52569" rx="1.46068" ry="1.46064" transform="rotate(-180 1909.1 1.52569)" fill="white"/>
<ellipse cx="1690" cy="1.52569" rx="1.46062" ry="1.46064" transform="rotate(-180 1690 1.52569)" fill="white"/>
<ellipse cx="1470.9" cy="1.52569" rx="1.46068" ry="1.46064" transform="rotate(-180 1470.9 1.52569)" fill="white"/>
<ellipse cx="1251.8" cy="1.52569" rx="1.4608" ry="1.46064" transform="rotate(-180 1251.8 1.52569)" fill="white"/>
<ellipse cx="1032.7" cy="1.52569" rx="1.46068" ry="1.46064" transform="rotate(-180 1032.7 1.52569)" fill="white"/>
<circle cx="813.599" cy="1.52569" r="1.46064" transform="rotate(-180 813.599 1.52569)" fill="white"/>
<circle cx="594.495" cy="1.52569" r="1.46064" transform="rotate(-180 594.495 1.52569)" fill="white"/>
<circle cx="594.495" cy="1.52569" r="1.46064" transform="rotate(-180 594.495 1.52569)" fill="white"/>
<ellipse cx="316.97" cy="147.594" rx="1.46072" ry="1.46048" transform="rotate(-180 316.97 147.594)" fill="white"/>
<ellipse cx="1963.15" cy="90.6275" rx="2.92134" ry="2.92128" transform="rotate(-180 1963.15 90.6275)" fill="white"/>
<ellipse cx="1524.95" cy="105.235" rx="2.92136" ry="2.92128" transform="rotate(-180 1524.95 105.235)" fill="white"/>
<ellipse cx="1086.74" cy="119.841" rx="2.92124" ry="2.92128" transform="rotate(-180 1086.74 119.841)" fill="white"/>
<ellipse cx="648.541" cy="105.235" rx="2.92136" ry="2.92128" transform="rotate(-180 648.541 105.235)" fill="white"/>
<ellipse cx="2008.43" cy="35.7058" rx="2.92134" ry="2.92112" transform="rotate(-180 2008.43 35.7058)" fill="white"/>
<ellipse cx="1570.23" cy="50.3129" rx="2.92128" ry="2.92144" transform="rotate(-180 1570.23 50.3129)" fill="white"/>
<ellipse cx="1132.02" cy="64.9199" rx="2.92152" ry="2.92144" transform="rotate(-180 1132.02 64.9199)" fill="white"/>
<ellipse cx="693.823" cy="50.3129" rx="2.92128" ry="2.92144" transform="rotate(-180 693.823 50.3129)" fill="white"/>
<ellipse cx="255.617" cy="35.7058" rx="2.92136" ry="2.92112" transform="rotate(-180 255.617 35.7058)" fill="white"/>
</g>
</svg>
