<svg width="62" height="62" viewBox="0 0 62 62" fill="none" xmlns="http://www.w3.org/2000/svg">
<circle cx="16.7917" cy="15.5" r="7.75" fill="#F13C03"/>
<path d="M16.7916 56.8334C22.4985 56.8334 27.1249 52.207 27.1249 46.5001C27.1249 40.7931 22.4985 36.1667 16.7916 36.1667C11.0846 36.1667 6.45825 40.7931 6.45825 46.5001C6.45825 52.207 11.0846 56.8334 16.7916 56.8334Z" stroke="#FFF5EA" stroke-width="7.75" stroke-linejoin="round"/>
<path d="M45.2083 25.8334C50.9153 25.8334 55.5417 21.207 55.5417 15.5001C55.5417 9.79314 50.9153 5.16675 45.2083 5.16675C39.5014 5.16675 34.875 9.79314 34.875 15.5001C34.875 21.207 39.5014 25.8334 45.2083 25.8334Z" stroke="#FFF5EA" stroke-width="7.75" stroke-linejoin="round"/>
<path d="M15.5001 25.8334C21.207 25.8334 25.8334 21.207 25.8334 15.5001C25.8334 9.79314 21.207 5.16675 15.5001 5.16675C9.79314 5.16675 5.16675 9.79314 5.16675 15.5001C5.16675 21.207 9.79314 25.8334 15.5001 25.8334Z" stroke="#FFF5EA" stroke-width="7.75" stroke-linejoin="round"/>
<path d="M55.5414 37.4583L37.4583 55.5416M37.4584 37.4583L55.5416 55.5416" stroke="#F13C03" stroke-width="7.75" stroke-linecap="round" stroke-linejoin="round"/>
</svg>
