<svg width="310" height="439" viewBox="0 0 310 439" fill="none" xmlns="http://www.w3.org/2000/svg">
<rect width="310" height="438.5" transform="translate(0 0.25)" fill="white"/>
<path d="M70.4135 50.6454C74.3598 50.6454 77.559 47.4463 77.559 43.4999C77.559 39.5536 74.3598 36.3545 70.4135 36.3545C66.4672 36.3545 63.2681 39.5536 63.2681 43.4999C63.2681 47.4463 66.4672 50.6454 70.4135 50.6454Z" stroke="#050041" stroke-width="5.35909" stroke-linejoin="round"/>
<circle cx="53.5388" cy="40.1455" r="5.35909" fill="#F13C03"/>
<g filter="url(#filter0_d_821_8)">
<path d="M52.6455 47.2909C56.5918 47.2909 59.7909 44.0918 59.7909 40.1455C59.7909 36.1991 56.5918 33 52.6455 33C48.6991 33 45.5 36.1991 45.5 40.1455C45.5 44.0918 48.6991 47.2909 52.6455 47.2909Z" stroke="#050041" stroke-width="5.35909" stroke-linejoin="round" shape-rendering="crispEdges"/>
</g>
<g filter="url(#filter1_d_821_8)">
<path d="M37.1455 51.7909C41.0918 51.7909 44.2909 48.5918 44.2909 44.6455C44.2909 40.6991 41.0918 37.5 37.1455 37.5C33.1991 37.5 30 40.6991 30 44.6455C30 48.5918 33.1991 51.7909 37.1455 51.7909Z" stroke="#050041" stroke-width="5.35909" stroke-linejoin="round" shape-rendering="crispEdges"/>
</g>
<g filter="url(#filter2_d_821_8)">
<path d="M86.54 33.2373L72 43.3028M74.2374 31L84.3028 45.5401" stroke="#F13C03" stroke-width="5.35909" stroke-linecap="round" stroke-linejoin="round" shape-rendering="crispEdges"/>
</g>
<path d="M20 104C20 101.791 21.7909 100 24 100H108V116H20V104Z" fill="white" stroke="black" stroke-width="0.5"/>
<path d="M20 400C20 397.791 21.7909 396 24 396H108V412H20V400Z" fill="white" stroke="black" stroke-width="0.5"/>
<path d="M108 100H286C288.209 100 290 101.791 290 104V116H108V100Z" fill="white" stroke="black" stroke-width="0.5"/>
<path d="M108 396H286C288.209 396 290 397.791 290 400V412H108V396Z" fill="white" stroke="black" stroke-width="0.5"/>
<rect x="20" y="116" width="88" height="16" fill="white" stroke="black" stroke-width="0.5"/>
<rect x="108" y="116" width="182" height="16" fill="white" stroke="black" stroke-width="0.5"/>
<path d="M20 132H108V148H24C21.7909 148 20 146.209 20 144V132Z" fill="white" stroke="black" stroke-width="0.5"/>
<path d="M20 412H108V428H24C21.7909 428 20 426.209 20 424V412Z" fill="white" stroke="black" stroke-width="0.5"/>
<path d="M108 132H290V144C290 146.209 288.209 148 286 148H108V132Z" fill="white" stroke="black" stroke-width="0.5"/>
<path d="M108 412H290V424C290 426.209 288.209 428 286 428H108V412Z" fill="white" stroke="black" stroke-width="0.5"/>
<rect x="24" y="106" width="67" height="4" rx="2" fill="#BBBBBB"/>
<rect x="24" y="402" width="67" height="4" rx="2" fill="#BBBBBB"/>
<rect x="24" y="122" width="40" height="4" rx="2" fill="#BBBBBB"/>
<rect x="24" y="138" width="54" height="4" rx="2" fill="#BBBBBB"/>
<rect x="24" y="418" width="54" height="4" rx="2" fill="#BBBBBB"/>
<rect x="20" y="170" width="208" height="8" rx="4" fill="#A7A7A7"/>
<rect x="20" y="182" width="164" height="4" rx="2" fill="#BBBBBB"/>
<rect x="20" y="194" width="270" height="4" rx="2" fill="#D9D9D9"/>
<rect x="20" y="202" width="249" height="4" rx="2" fill="#D9D9D9"/>
<rect x="20" y="210" width="261" height="4" rx="2" fill="#D9D9D9"/>
<rect x="20" y="250" width="261" height="4" rx="2" fill="#D9D9D9"/>
<rect x="20" y="302" width="261" height="4" rx="2" fill="#D9D9D9"/>
<rect x="20" y="218" width="266" height="4" rx="2" fill="#D9D9D9"/>
<rect x="20" y="258" width="266" height="4" rx="2" fill="#D9D9D9"/>
<rect x="20" y="310" width="266" height="4" rx="2" fill="#D9D9D9"/>
<rect x="20" y="226" width="255" height="4" rx="2" fill="#D9D9D9"/>
<rect x="20" y="278" width="255" height="4" rx="2" fill="#D9D9D9"/>
<rect x="20" y="318" width="255" height="4" rx="2" fill="#D9D9D9"/>
<rect x="20" y="234" width="270" height="4" rx="2" fill="#D9D9D9"/>
<rect x="20" y="286" width="270" height="4" rx="2" fill="#D9D9D9"/>
<rect x="20" y="326" width="270" height="4" rx="2" fill="#D9D9D9"/>
<rect x="20" y="242" width="249" height="4" rx="2" fill="#D9D9D9"/>
<rect x="20" y="294" width="249" height="4" rx="2" fill="#D9D9D9"/>
<rect x="20" y="334" width="249" height="4" rx="2" fill="#D9D9D9"/>
<path d="M107.018 78.212L111.878 78.14C112.11 78.212 112.226 78.328 112.226 78.488C112.226 78.888 112.062 79.088 111.734 79.088C111.134 79.088 110.498 79.104 109.826 79.136C109.786 79.824 109.766 80.344 109.766 80.696C109.766 81.04 109.766 81.26 109.766 81.356L109.814 85.568C109.814 85.816 109.75 85.96 109.622 86C109.526 86.032 109.406 86.048 109.262 86.048C109.03 86.048 108.902 85.916 108.878 85.652C108.83 85.036 108.806 83.888 108.806 82.208C108.806 80.52 108.83 79.504 108.878 79.16C108.71 79.168 108.462 79.172 108.134 79.172C107.806 79.172 107.398 79.168 106.91 79.16C106.782 79.16 106.682 79.12 106.61 79.04C106.538 78.96 106.502 78.864 106.502 78.752C106.502 78.632 106.55 78.516 106.646 78.404C106.75 78.292 106.874 78.228 107.018 78.212ZM114.288 80.444C114.712 80.444 115.116 80.568 115.5 80.816C115.884 81.064 116.076 81.372 116.076 81.74C116.076 82.1 115.92 82.452 115.608 82.796C115.296 83.132 114.88 83.336 114.36 83.408C114.136 83.44 113.8 83.456 113.352 83.456C113.44 84.136 113.612 84.584 113.868 84.8C113.948 84.888 114.056 84.932 114.192 84.932C114.688 84.932 115.104 84.776 115.44 84.464C115.776 84.144 116.016 83.984 116.16 83.984C116.224 83.984 116.32 84.044 116.448 84.164C116.576 84.284 116.64 84.396 116.64 84.5C116.64 84.708 116.388 85.008 115.884 85.4C115.66 85.584 115.388 85.74 115.068 85.868C114.756 85.988 114.464 86.048 114.192 86.048C113.496 86.048 112.984 85.6 112.656 84.704C112.448 84.152 112.344 83.544 112.344 82.88C112.344 82.216 112.5 81.644 112.812 81.164C113.124 80.684 113.616 80.444 114.288 80.444ZM114.348 81.272C114.044 81.272 113.784 81.444 113.568 81.788C113.488 81.908 113.412 82.18 113.34 82.604C114.46 82.604 115.02 82.328 115.02 81.776C115.02 81.44 114.796 81.272 114.348 81.272ZM120.689 80.396C121.041 80.396 121.217 80.696 121.217 81.296C121.217 81.36 121.217 81.428 121.217 81.5L121.193 82.34C121.185 82.604 121.181 82.864 121.181 83.12L121.361 85.832C121.361 86.032 121.157 86.132 120.749 86.132C120.725 86.132 120.665 86.132 120.569 86.132C120.481 86.132 120.417 86.096 120.377 86.024C120.345 85.952 120.341 85.864 120.365 85.76C120.397 85.656 120.389 85.54 120.341 85.412C119.973 85.804 119.485 86 118.877 86C117.749 86 117.185 85.128 117.185 83.384C117.185 82.416 117.365 81.684 117.725 81.188C118.093 80.692 118.617 80.444 119.297 80.444C119.617 80.444 119.937 80.5 120.257 80.612C120.361 80.468 120.505 80.396 120.689 80.396ZM119.441 81.488C118.985 81.488 118.645 81.62 118.421 81.884C118.197 82.148 118.085 82.632 118.085 83.336C118.085 84.52 118.405 85.112 119.045 85.112C119.213 85.112 119.397 85.036 119.597 84.884C119.805 84.732 119.949 84.56 120.029 84.368C120.181 83.936 120.257 83.464 120.257 82.952C120.257 82.44 120.193 82.068 120.065 81.836C119.945 81.604 119.737 81.488 119.441 81.488ZM121.872 83.192C121.872 82.656 122.012 82.168 122.292 81.728C122.58 81.288 122.944 80.96 123.384 80.744C123.824 80.52 124.252 80.408 124.668 80.408C125.084 80.408 125.416 80.46 125.664 80.564C125.92 80.66 126.048 80.792 126.048 80.96C126.048 81.12 126 81.284 125.904 81.452C125.816 81.612 125.696 81.692 125.544 81.692C125.488 81.692 125.332 81.648 125.076 81.56C124.828 81.464 124.668 81.416 124.596 81.416C124.132 81.416 123.736 81.588 123.408 81.932C123.08 82.268 122.916 82.716 122.916 83.276C122.916 83.836 123.004 84.256 123.18 84.536C123.364 84.808 123.676 84.944 124.116 84.944C124.292 84.944 124.592 84.844 125.016 84.644C125.448 84.436 125.716 84.332 125.82 84.332C125.924 84.332 126.008 84.364 126.072 84.428C126.136 84.492 126.168 84.572 126.168 84.668C126.168 84.86 126.044 85.064 125.796 85.28C125.556 85.488 125.256 85.664 124.896 85.808C124.536 85.944 124.212 86.012 123.924 86.012C123.284 86.012 122.78 85.76 122.412 85.256C122.052 84.752 121.872 84.064 121.872 83.192ZM127.976 82.112L128.072 84.944C128.072 85.296 128.056 85.5 128.024 85.556C128.008 85.7 127.96 85.812 127.88 85.892C127.808 85.972 127.664 86.012 127.448 86.012C127.344 86.012 127.26 85.948 127.196 85.82C127.132 85.684 127.096 85.532 127.088 85.364C127.032 83.956 126.956 82.636 126.86 81.404C126.772 80.164 126.728 79.012 126.728 77.948C126.728 77.78 126.784 77.648 126.896 77.552C127.008 77.456 127.14 77.408 127.292 77.408C127.516 77.408 127.648 77.6 127.688 77.984C127.736 78.368 127.764 78.848 127.772 79.424C127.788 80 127.804 80.42 127.82 80.684C128.22 80.476 128.62 80.372 129.02 80.372C129.948 80.372 130.536 80.78 130.784 81.596C130.928 82.06 131 82.656 131 83.384C131 83.624 130.976 84.004 130.928 84.524C130.888 85.036 130.864 85.368 130.856 85.52C130.848 85.672 130.78 85.792 130.652 85.88C130.532 85.96 130.4 86 130.256 86C130.032 86 129.92 85.88 129.92 85.64L130.004 83.552C130.004 83.376 129.996 83.084 129.98 82.676C129.964 82.268 129.88 81.944 129.728 81.704C129.584 81.464 129.328 81.344 128.96 81.344C128.304 81.344 127.976 81.6 127.976 82.112ZM132.523 78.416C132.667 78.416 132.803 78.484 132.931 78.62C133.059 78.756 133.123 78.9 133.123 79.052C133.123 79.196 133.051 79.344 132.907 79.496C132.771 79.648 132.627 79.724 132.475 79.724C132.323 79.724 132.183 79.66 132.055 79.532C131.935 79.404 131.875 79.24 131.875 79.04C131.875 78.656 132.083 78.448 132.499 78.416C132.507 78.416 132.515 78.416 132.523 78.416ZM133.027 84.704L133.039 85.544C133.039 85.696 132.979 85.824 132.859 85.928C132.739 86.024 132.611 86.072 132.475 86.072C132.275 86.072 132.171 85.972 132.163 85.772C132.059 83.22 132.007 81.808 132.007 81.536C132.007 81.264 132.019 80.932 132.043 80.54C132.059 80.396 132.151 80.324 132.319 80.324C132.743 80.324 132.983 80.496 133.039 80.84C133.063 81.016 133.075 81.156 133.075 81.26L133.027 82.016V84.704ZM134.871 85.628L134.739 80.756C134.739 80.604 134.791 80.48 134.895 80.384C134.999 80.288 135.103 80.24 135.207 80.24C135.463 80.24 135.611 80.348 135.651 80.564C135.683 80.78 135.699 81.004 135.699 81.236C136.131 80.668 136.671 80.384 137.319 80.384C138.311 80.384 138.807 81.516 138.807 83.78C138.807 83.988 138.807 84.304 138.807 84.728C138.807 85.144 138.783 85.448 138.735 85.64C138.679 85.88 138.507 86 138.219 86C138.027 86 137.931 85.872 137.931 85.616L137.943 84.944C137.943 84.016 137.911 83.384 137.847 83.048C137.791 82.704 137.735 82.432 137.679 82.232C137.543 81.8 137.323 81.584 137.019 81.584C136.619 81.584 136.339 81.728 136.179 82.016C136.003 82.328 135.899 82.696 135.867 83.12C135.811 83.864 135.783 84.652 135.783 85.484C135.783 85.644 135.723 85.772 135.603 85.868C135.483 85.964 135.339 86.012 135.171 86.012C134.971 86.012 134.871 85.884 134.871 85.628ZM143.285 85.508C142.997 85.844 142.633 86.012 142.193 86.012C141.753 86.012 141.373 85.876 141.053 85.604C140.381 85.084 140.045 84.288 140.045 83.216C140.045 82.376 140.277 81.704 140.741 81.2C141.205 80.688 141.777 80.432 142.457 80.432C143.137 80.432 143.601 80.664 143.849 81.128C144.065 81.536 144.173 82.152 144.173 82.976L144.149 83.96C144.149 84.424 144.169 85.068 144.209 85.892C144.257 86.708 144.281 87.324 144.281 87.74C144.281 88.428 144.109 88.932 143.765 89.252C143.429 89.58 142.913 89.744 142.217 89.744C141.801 89.744 141.377 89.656 140.945 89.48C140.513 89.304 140.297 89.1 140.297 88.868C140.297 88.7 140.341 88.572 140.429 88.484C140.525 88.396 140.633 88.352 140.753 88.352C140.873 88.352 141.141 88.44 141.557 88.616C141.981 88.792 142.285 88.88 142.469 88.88C143.045 88.88 143.333 88.408 143.333 87.464C143.333 86.52 143.317 85.868 143.285 85.508ZM143.273 82.976C143.273 82.392 143.185 81.984 143.009 81.752C142.841 81.512 142.573 81.392 142.205 81.392C141.837 81.392 141.541 81.56 141.317 81.896C141.093 82.232 140.981 82.66 140.981 83.18C140.981 83.692 141.085 84.1 141.293 84.404C141.509 84.708 141.837 84.86 142.277 84.86C142.717 84.86 143.001 84.672 143.129 84.296C143.225 83.992 143.273 83.552 143.273 82.976ZM148.922 85.484C148.922 85.628 148.858 85.76 148.73 85.88C148.602 85.992 148.462 86.048 148.31 86.048C148.166 86.048 148.066 85.952 148.01 85.76C147.986 84.704 147.974 83.652 147.974 82.604L147.938 79.58C147.938 78.972 148.206 78.556 148.742 78.332C149.174 78.132 149.686 78.032 150.278 78.032C150.582 78.032 150.906 78.108 151.25 78.26C151.602 78.404 151.914 78.62 152.186 78.908C152.466 79.188 152.606 79.496 152.606 79.832C152.606 80.16 152.454 80.516 152.15 80.9C151.846 81.276 151.47 81.612 151.022 81.908C150.574 82.196 150.138 82.412 149.714 82.556C150.458 83.076 151.106 83.636 151.658 84.236C152.21 84.828 152.486 85.288 152.486 85.616C152.486 85.72 152.434 85.82 152.33 85.916C152.226 86.004 152.098 86.048 151.946 86.048C151.802 86.048 151.678 85.984 151.574 85.856C151.398 85.432 151.062 84.988 150.566 84.524C150.078 84.052 149.506 83.604 148.85 83.18L148.922 85.484ZM148.874 81.884C149.41 81.86 150.01 81.636 150.674 81.212C151.346 80.788 151.682 80.408 151.682 80.072C151.682 79.728 151.514 79.464 151.178 79.28C150.842 79.096 150.442 79.004 149.978 79.004C149.522 79.004 149.158 79.06 148.886 79.172C148.878 79.58 148.874 80.484 148.874 81.884ZM155.127 80.444C155.551 80.444 155.955 80.568 156.339 80.816C156.723 81.064 156.915 81.372 156.915 81.74C156.915 82.1 156.759 82.452 156.447 82.796C156.135 83.132 155.719 83.336 155.199 83.408C154.975 83.44 154.639 83.456 154.191 83.456C154.279 84.136 154.451 84.584 154.707 84.8C154.787 84.888 154.895 84.932 155.031 84.932C155.527 84.932 155.943 84.776 156.279 84.464C156.615 84.144 156.855 83.984 156.999 83.984C157.063 83.984 157.159 84.044 157.287 84.164C157.415 84.284 157.479 84.396 157.479 84.5C157.479 84.708 157.227 85.008 156.723 85.4C156.499 85.584 156.227 85.74 155.907 85.868C155.595 85.988 155.303 86.048 155.031 86.048C154.335 86.048 153.823 85.6 153.495 84.704C153.287 84.152 153.183 83.544 153.183 82.88C153.183 82.216 153.339 81.644 153.651 81.164C153.963 80.684 154.455 80.444 155.127 80.444ZM155.187 81.272C154.883 81.272 154.623 81.444 154.407 81.788C154.327 81.908 154.251 82.18 154.179 82.604C155.299 82.604 155.859 82.328 155.859 81.776C155.859 81.44 155.635 81.272 155.187 81.272ZM158.013 83.192C158.013 82.656 158.153 82.168 158.433 81.728C158.721 81.288 159.085 80.96 159.525 80.744C159.965 80.52 160.393 80.408 160.809 80.408C161.225 80.408 161.557 80.46 161.805 80.564C162.061 80.66 162.189 80.792 162.189 80.96C162.189 81.12 162.141 81.284 162.045 81.452C161.957 81.612 161.837 81.692 161.685 81.692C161.629 81.692 161.473 81.648 161.217 81.56C160.969 81.464 160.809 81.416 160.737 81.416C160.273 81.416 159.877 81.588 159.549 81.932C159.221 82.268 159.057 82.716 159.057 83.276C159.057 83.836 159.145 84.256 159.321 84.536C159.505 84.808 159.817 84.944 160.257 84.944C160.433 84.944 160.733 84.844 161.157 84.644C161.589 84.436 161.857 84.332 161.961 84.332C162.065 84.332 162.149 84.364 162.213 84.428C162.277 84.492 162.309 84.572 162.309 84.668C162.309 84.86 162.185 85.064 161.937 85.28C161.697 85.488 161.397 85.664 161.037 85.808C160.677 85.944 160.353 86.012 160.065 86.012C159.425 86.012 158.921 85.76 158.553 85.256C158.193 84.752 158.013 84.064 158.013 83.192ZM164.957 80.408C165.533 80.408 166.005 80.684 166.373 81.236C166.749 81.788 166.937 82.452 166.937 83.228C166.937 83.996 166.745 84.652 166.361 85.196C165.985 85.74 165.481 86.012 164.849 86.012C164.225 86.012 163.721 85.736 163.337 85.184C162.953 84.624 162.761 84.004 162.761 83.324C162.761 82.452 162.937 81.756 163.289 81.236C163.665 80.684 164.221 80.408 164.957 80.408ZM164.813 81.392C164.477 81.392 164.201 81.568 163.985 81.92C163.769 82.272 163.661 82.644 163.661 83.036C163.661 83.644 163.781 84.108 164.021 84.428C164.261 84.748 164.533 84.908 164.837 84.908C165.381 84.908 165.729 84.672 165.881 84.2C165.945 83.976 165.977 83.696 165.977 83.36C165.977 82.048 165.589 81.392 164.813 81.392ZM169.221 84.248L169.233 85.484C169.233 85.628 169.165 85.76 169.029 85.88C168.901 86 168.773 86.06 168.645 86.06C168.461 86.06 168.345 85.916 168.297 85.628C168.289 85.564 168.257 84.98 168.201 83.876C168.145 82.764 168.037 81.892 167.877 81.26C167.805 80.956 167.769 80.776 167.769 80.72C167.769 80.456 167.929 80.324 168.249 80.324C168.385 80.324 168.493 80.376 168.573 80.48C168.653 80.584 168.701 80.692 168.717 80.804C168.741 80.908 168.761 81.052 168.777 81.236C168.793 81.42 168.805 81.536 168.813 81.584C168.981 81.184 169.233 80.884 169.569 80.684C169.905 80.484 170.273 80.384 170.673 80.384C171.329 80.384 171.657 80.552 171.657 80.888C171.657 81.056 171.597 81.192 171.477 81.296C171.365 81.392 171.233 81.44 171.081 81.44C170.401 81.44 169.921 81.656 169.641 82.088C169.361 82.52 169.221 83.24 169.221 84.248ZM175.158 80.384L175.146 78.068C175.146 77.636 175.282 77.42 175.554 77.42C175.834 77.42 175.99 77.54 176.022 77.78C176.038 77.884 176.058 78.512 176.082 79.664C176.106 80.816 176.142 81.896 176.19 82.904C176.246 83.912 176.274 84.852 176.274 85.724C176.274 85.964 176.094 86.084 175.734 86.084C175.494 86.084 175.374 85.916 175.374 85.58C175.03 85.852 174.622 85.988 174.15 85.988C173.55 85.988 173.062 85.764 172.686 85.316C172.318 84.868 172.134 84.316 172.134 83.66C172.134 83.004 172.266 82.392 172.53 81.824C172.802 81.248 173.222 80.836 173.79 80.588C174.142 80.436 174.482 80.36 174.81 80.36C174.93 80.36 175.046 80.368 175.158 80.384ZM175.218 82.028C175.162 81.852 175.094 81.72 175.014 81.632C174.934 81.536 174.846 81.48 174.75 81.464C174.662 81.44 174.554 81.428 174.426 81.428C174.298 81.428 174.142 81.476 173.958 81.572C173.774 81.668 173.618 81.824 173.49 82.04C173.234 82.472 173.106 82.928 173.106 83.408C173.106 83.88 173.198 84.268 173.382 84.572C173.574 84.868 173.842 85.016 174.186 85.016C174.538 85.016 174.814 84.844 175.014 84.5C175.214 84.156 175.314 83.716 175.314 83.18C175.314 82.58 175.282 82.196 175.218 82.028ZM182.467 78.056C182.987 78.056 183.427 78.144 183.787 78.32C184.155 78.496 184.339 78.72 184.339 78.992C184.339 79.112 184.307 79.216 184.243 79.304C184.187 79.392 184.099 79.436 183.979 79.436C183.867 79.436 183.619 79.348 183.235 79.172C182.851 78.988 182.499 78.896 182.179 78.896C181.867 78.896 181.543 78.996 181.207 79.196C180.871 79.396 180.703 79.64 180.703 79.928C180.703 80.32 180.907 80.608 181.315 80.792C181.619 80.928 182.055 81.052 182.623 81.164C183.191 81.268 183.655 81.488 184.015 81.824C184.375 82.152 184.555 82.652 184.555 83.324C184.555 84.348 184.247 85.104 183.631 85.592C183.287 85.864 182.799 86 182.167 86C181.543 86 180.919 85.828 180.295 85.484C179.887 85.268 179.683 85.052 179.683 84.836C179.683 84.756 179.715 84.668 179.779 84.572C179.851 84.476 179.947 84.396 180.067 84.332C180.187 84.268 180.295 84.26 180.391 84.308C180.495 84.348 180.659 84.424 180.883 84.536C181.107 84.648 181.271 84.724 181.375 84.764C181.711 84.892 182.027 84.956 182.323 84.956C182.619 84.956 182.903 84.812 183.175 84.524C183.455 84.228 183.595 83.868 183.595 83.444C183.595 82.884 183.315 82.492 182.755 82.268C182.483 82.156 182.175 82.072 181.831 82.016C181.119 81.888 180.583 81.676 180.223 81.38C179.863 81.076 179.683 80.62 179.683 80.012C179.683 79.404 179.943 78.928 180.463 78.584C180.983 78.232 181.651 78.056 182.467 78.056ZM186.523 82.112L186.619 84.944C186.619 85.296 186.603 85.5 186.571 85.556C186.555 85.7 186.507 85.812 186.427 85.892C186.355 85.972 186.211 86.012 185.995 86.012C185.891 86.012 185.807 85.948 185.743 85.82C185.679 85.684 185.643 85.532 185.635 85.364C185.579 83.956 185.503 82.636 185.407 81.404C185.319 80.164 185.275 79.012 185.275 77.948C185.275 77.78 185.331 77.648 185.443 77.552C185.555 77.456 185.687 77.408 185.839 77.408C186.063 77.408 186.195 77.6 186.235 77.984C186.283 78.368 186.311 78.848 186.319 79.424C186.335 80 186.351 80.42 186.367 80.684C186.767 80.476 187.167 80.372 187.567 80.372C188.495 80.372 189.083 80.78 189.331 81.596C189.475 82.06 189.547 82.656 189.547 83.384C189.547 83.624 189.523 84.004 189.475 84.524C189.435 85.036 189.411 85.368 189.403 85.52C189.395 85.672 189.327 85.792 189.199 85.88C189.079 85.96 188.947 86 188.803 86C188.579 86 188.467 85.88 188.467 85.64L188.551 83.552C188.551 83.376 188.543 83.084 188.527 82.676C188.511 82.268 188.427 81.944 188.275 81.704C188.131 81.464 187.875 81.344 187.507 81.344C186.851 81.344 186.523 81.6 186.523 82.112ZM192.006 80.444C192.43 80.444 192.834 80.568 193.218 80.816C193.602 81.064 193.794 81.372 193.794 81.74C193.794 82.1 193.638 82.452 193.326 82.796C193.014 83.132 192.598 83.336 192.078 83.408C191.854 83.44 191.518 83.456 191.07 83.456C191.158 84.136 191.33 84.584 191.586 84.8C191.666 84.888 191.774 84.932 191.91 84.932C192.406 84.932 192.822 84.776 193.158 84.464C193.494 84.144 193.734 83.984 193.878 83.984C193.942 83.984 194.038 84.044 194.166 84.164C194.294 84.284 194.358 84.396 194.358 84.5C194.358 84.708 194.106 85.008 193.602 85.4C193.378 85.584 193.106 85.74 192.786 85.868C192.474 85.988 192.182 86.048 191.91 86.048C191.214 86.048 190.702 85.6 190.374 84.704C190.166 84.152 190.062 83.544 190.062 82.88C190.062 82.216 190.218 81.644 190.53 81.164C190.842 80.684 191.334 80.444 192.006 80.444ZM192.066 81.272C191.762 81.272 191.502 81.444 191.286 81.788C191.206 81.908 191.13 82.18 191.058 82.604C192.178 82.604 192.738 82.328 192.738 81.776C192.738 81.44 192.514 81.272 192.066 81.272ZM196.788 80.444C197.212 80.444 197.616 80.568 198 80.816C198.384 81.064 198.576 81.372 198.576 81.74C198.576 82.1 198.42 82.452 198.108 82.796C197.796 83.132 197.38 83.336 196.86 83.408C196.636 83.44 196.3 83.456 195.852 83.456C195.94 84.136 196.112 84.584 196.368 84.8C196.448 84.888 196.556 84.932 196.692 84.932C197.188 84.932 197.604 84.776 197.94 84.464C198.276 84.144 198.516 83.984 198.66 83.984C198.724 83.984 198.82 84.044 198.948 84.164C199.076 84.284 199.14 84.396 199.14 84.5C199.14 84.708 198.888 85.008 198.384 85.4C198.16 85.584 197.888 85.74 197.568 85.868C197.256 85.988 196.964 86.048 196.692 86.048C195.996 86.048 195.484 85.6 195.156 84.704C194.948 84.152 194.844 83.544 194.844 82.88C194.844 82.216 195 81.644 195.312 81.164C195.624 80.684 196.116 80.444 196.788 80.444ZM196.848 81.272C196.544 81.272 196.284 81.444 196.068 81.788C195.988 81.908 195.912 82.18 195.84 82.604C196.96 82.604 197.52 82.328 197.52 81.776C197.52 81.44 197.296 81.272 196.848 81.272ZM200.141 80.396L200.741 80.408C200.877 80.408 200.953 80.404 200.969 80.396V77.936C200.977 77.8 201.045 77.684 201.173 77.588C201.301 77.492 201.421 77.444 201.533 77.444C201.645 77.444 201.733 77.48 201.797 77.552C201.869 77.624 201.901 77.736 201.893 77.888C201.885 78.04 201.881 78.872 201.881 80.384L203.285 80.336C203.525 80.336 203.645 80.476 203.645 80.756C203.645 80.964 203.581 81.12 203.453 81.224C203.333 81.328 203.201 81.384 203.057 81.392C202.921 81.4 202.785 81.404 202.649 81.404L201.917 81.392C201.917 81.72 201.949 82.368 202.013 83.336C202.085 84.304 202.141 84.932 202.181 85.22C202.221 85.5 202.229 85.684 202.205 85.772C202.181 85.852 202.137 85.908 202.073 85.94C201.969 85.988 201.829 86.012 201.653 86.012C201.477 86.012 201.373 85.916 201.341 85.724C201.181 84.676 201.073 83.236 201.017 81.404C200.945 81.412 200.669 81.416 200.189 81.416C199.709 81.416 199.469 81.276 199.469 80.996C199.469 80.596 199.693 80.396 200.141 80.396Z" fill="black"/>
<defs>
<filter id="filter0_d_821_8" x="41.3206" y="28.3204" width="23.6499" height="23.65" filterUnits="userSpaceOnUse" color-interpolation-filters="sRGB">
<feFlood flood-opacity="0" result="BackgroundImageFix"/>
<feColorMatrix in="SourceAlpha" type="matrix" values="0 0 0 0 0 0 0 0 0 0 0 0 0 0 0 0 0 0 127 0" result="hardAlpha"/>
<feOffset dx="0.5"/>
<feGaussianBlur stdDeviation="1"/>
<feComposite in2="hardAlpha" operator="out"/>
<feColorMatrix type="matrix" values="0 0 0 0 0 0 0 0 0 0 0 0 0 0 0 0 0 0 0.3 0"/>
<feBlend mode="normal" in2="BackgroundImageFix" result="effect1_dropShadow_821_8"/>
<feBlend mode="normal" in="SourceGraphic" in2="effect1_dropShadow_821_8" result="shape"/>
</filter>
<filter id="filter1_d_821_8" x="25.8206" y="32.8204" width="23.6499" height="23.65" filterUnits="userSpaceOnUse" color-interpolation-filters="sRGB">
<feFlood flood-opacity="0" result="BackgroundImageFix"/>
<feColorMatrix in="SourceAlpha" type="matrix" values="0 0 0 0 0 0 0 0 0 0 0 0 0 0 0 0 0 0 127 0" result="hardAlpha"/>
<feOffset dx="0.5"/>
<feGaussianBlur stdDeviation="1"/>
<feComposite in2="hardAlpha" operator="out"/>
<feColorMatrix type="matrix" values="0 0 0 0 0 0 0 0 0 0 0 0 0 0 0 0 0 0 0.3 0"/>
<feBlend mode="normal" in2="BackgroundImageFix" result="effect1_dropShadow_821_8"/>
<feBlend mode="normal" in="SourceGraphic" in2="effect1_dropShadow_821_8" result="shape"/>
</filter>
<filter id="filter2_d_821_8" x="66.8203" y="26.8202" width="23.8994" height="23.8997" filterUnits="userSpaceOnUse" color-interpolation-filters="sRGB">
<feFlood flood-opacity="0" result="BackgroundImageFix"/>
<feColorMatrix in="SourceAlpha" type="matrix" values="0 0 0 0 0 0 0 0 0 0 0 0 0 0 0 0 0 0 127 0" result="hardAlpha"/>
<feOffset dx="-0.5" dy="0.5"/>
<feGaussianBlur stdDeviation="1"/>
<feComposite in2="hardAlpha" operator="out"/>
<feColorMatrix type="matrix" values="0 0 0 0 0 0 0 0 0 0 0 0 0 0 0 0 0 0 0.3 0"/>
<feBlend mode="normal" in2="BackgroundImageFix" result="effect1_dropShadow_821_8"/>
<feBlend mode="normal" in="SourceGraphic" in2="effect1_dropShadow_821_8" result="shape"/>
</filter>
</defs>
</svg>
