<svg width="131" height="60" viewBox="0 0 131 60" fill="none" xmlns="http://www.w3.org/2000/svg">
<path d="M89.8273 48.2908C97.7199 48.2908 104.118 41.8925 104.118 33.9999C104.118 26.1072 97.7199 19.709 89.8273 19.709C81.9346 19.709 75.5364 26.1072 75.5364 33.9999C75.5364 41.8925 81.9346 48.2908 89.8273 48.2908Z" stroke="#050041" stroke-width="10.7182" stroke-linejoin="round"/>
<circle cx="56.0773" cy="27.2909" r="10.7182" fill="#F13C03"/>
<g filter="url(#filter0_d_662_45)">
<path d="M54.2909 41.5818C62.1836 41.5818 68.5818 35.1836 68.5818 27.2909C68.5818 19.3983 62.1836 13 54.2909 13C46.3983 13 40 19.3983 40 27.2909C40 35.1836 46.3983 41.5818 54.2909 41.5818Z" stroke="#050041" stroke-width="10.7182" stroke-linejoin="round" shape-rendering="crispEdges"/>
</g>
<g filter="url(#filter1_d_662_45)">
<path d="M23.2909 50.5818C31.1836 50.5818 37.5818 44.1836 37.5818 36.2909C37.5818 28.3983 31.1836 22 23.2909 22C15.3983 22 9 28.3983 9 36.2909C9 44.1836 15.3983 50.5818 23.2909 50.5818Z" stroke="#050041" stroke-width="10.7182" stroke-linejoin="round" shape-rendering="crispEdges"/>
</g>
<g filter="url(#filter2_d_662_45)">
<path d="M122.08 13.4745L93 33.6055M97.4748 9.00004L117.606 38.0801" stroke="#F13C03" stroke-width="10.7182" stroke-linecap="round" stroke-linejoin="round" shape-rendering="crispEdges"/>
</g>
<defs>
<filter id="filter0_d_662_45" x="31.6409" y="3.64087" width="47.3" height="47.3" filterUnits="userSpaceOnUse" color-interpolation-filters="sRGB">
<feFlood flood-opacity="0" result="BackgroundImageFix"/>
<feColorMatrix in="SourceAlpha" type="matrix" values="0 0 0 0 0 0 0 0 0 0 0 0 0 0 0 0 0 0 127 0" result="hardAlpha"/>
<feOffset dx="1"/>
<feGaussianBlur stdDeviation="2"/>
<feComposite in2="hardAlpha" operator="out"/>
<feColorMatrix type="matrix" values="0 0 0 0 0 0 0 0 0 0 0 0 0 0 0 0 0 0 0.3 0"/>
<feBlend mode="normal" in2="BackgroundImageFix" result="effect1_dropShadow_662_45"/>
<feBlend mode="normal" in="SourceGraphic" in2="effect1_dropShadow_662_45" result="shape"/>
</filter>
<filter id="filter1_d_662_45" x="0.640869" y="12.6409" width="47.3" height="47.3" filterUnits="userSpaceOnUse" color-interpolation-filters="sRGB">
<feFlood flood-opacity="0" result="BackgroundImageFix"/>
<feColorMatrix in="SourceAlpha" type="matrix" values="0 0 0 0 0 0 0 0 0 0 0 0 0 0 0 0 0 0 127 0" result="hardAlpha"/>
<feOffset dx="1"/>
<feGaussianBlur stdDeviation="2"/>
<feComposite in2="hardAlpha" operator="out"/>
<feColorMatrix type="matrix" values="0 0 0 0 0 0 0 0 0 0 0 0 0 0 0 0 0 0 0.3 0"/>
<feBlend mode="normal" in2="BackgroundImageFix" result="effect1_dropShadow_662_45"/>
<feBlend mode="normal" in="SourceGraphic" in2="effect1_dropShadow_662_45" result="shape"/>
</filter>
<filter id="filter2_d_662_45" x="82.6404" y="0.640381" width="47.7991" height="47.7993" filterUnits="userSpaceOnUse" color-interpolation-filters="sRGB">
<feFlood flood-opacity="0" result="BackgroundImageFix"/>
<feColorMatrix in="SourceAlpha" type="matrix" values="0 0 0 0 0 0 0 0 0 0 0 0 0 0 0 0 0 0 127 0" result="hardAlpha"/>
<feOffset dx="-1" dy="1"/>
<feGaussianBlur stdDeviation="2"/>
<feComposite in2="hardAlpha" operator="out"/>
<feColorMatrix type="matrix" values="0 0 0 0 0 0 0 0 0 0 0 0 0 0 0 0 0 0 0.3 0"/>
<feBlend mode="normal" in2="BackgroundImageFix" result="effect1_dropShadow_662_45"/>
<feBlend mode="normal" in="SourceGraphic" in2="effect1_dropShadow_662_45" result="shape"/>
</filter>
</defs>
</svg>
